<svg width="129" height="129" viewBox="0 0 129 129" fill="none" xmlns="http://www.w3.org/2000/svg">
    <g id="Frame 156359">
        <g id="Subtract" filter="url(#filter0_b_1614_35244)">
            <path d="M104.732 59.2468C109.025 61.434 109.025 67.5668 104.732 69.754L43.494 100.958C39.0516 103.222 33.9794 99.2929 35.061 94.4257L39.4874 74.5068C40.6543 69.256 45.7391 65.7352 50.9717 66.9811C52.7491 67.4043 54.3905 67.8631 55.6048 68.3332C56.9022 68.8454 57.9283 69.8869 58.4286 71.2015C59.8278 74.8806 61.1083 82.3585 61.6595 85.8413L62.7789 85.8413C63.3301 82.3585 64.6106 74.8806 66.0098 71.2015C66.5016 69.8954 67.5362 68.8454 68.8336 68.3332C72.4715 66.9247 79.9424 65.6187 83.4192 65.0638L83.4192 63.937C79.9424 63.3821 72.4715 62.0761 68.8336 60.6676C67.5362 60.1554 66.5101 59.1139 66.0098 57.7993C64.6106 54.1202 63.3301 46.6423 62.7789 43.1594L61.6595 43.1594C61.1083 46.6423 59.8278 54.1202 58.4286 57.7993C57.9368 59.1054 56.9022 60.1554 55.6048 60.6676C54.3905 61.1377 52.7491 61.5965 50.9717 62.0197C45.7391 63.2656 40.6543 59.7448 39.4874 54.494L35.061 34.5751C33.9794 29.7079 39.0516 25.7787 43.494 28.0423L104.732 59.2468Z"
                  fill="url(#paint0_radial_1614_35244)"/>
        </g>
    </g>
    <defs>
        <filter id="filter0_b_1614_35244" x="30.0471" y="22.5189" width="82.771" height="83.9632"
                filterUnits="userSpaceOnUse" color-interpolation-filters="sRGB">
            <feFlood flood-opacity="0" result="BackgroundImageFix"/>
            <feGaussianBlur in="BackgroundImageFix" stdDeviation="2.43319"/>
            <feComposite in2="SourceAlpha" operator="in" result="effect1_backgroundBlur_1614_35244"/>
            <feBlend mode="normal" in="SourceGraphic" in2="effect1_backgroundBlur_1614_35244" result="shape"/>
        </filter>
        <radialGradient id="paint0_radial_1614_35244" cx="0" cy="0" r="1" gradientUnits="userSpaceOnUse"
                        gradientTransform="translate(15.5743 -14.16) rotate(61.9894) scale(129.268 136.149)">
            <stop offset="0.0533191" stop-color="#D7D3E9"/>
            <stop offset="0.1933" stop-color="#837DD1"/>
            <stop offset="0.3834" stop-color="#8D69D9"/>
            <stop offset="0.54" stop-color="#3A5AE7"/>
            <stop offset="0.7735" stop-color="#225FE7"/>
            <stop offset="1" stop-color="#0883D1"/>
        </radialGradient>
    </defs>
</svg>
