
<svg width="width" height="height" viewBox="0 0 39 39" fill="none" xmlns="http://www.w3.org/2000/svg">
<g id="Frame 156368">
<g clip-path="url(#clip0_1422_35137)">
<g id="Ellipse 819" filter="url(#filter0_d_1422_35137)">
<circle cx="19.5002" cy="19.4998" r="19.116" fill="url(#paint0_linear_1422_35137)"/>
<circle cx="19.5002" cy="19.4998" r="19.116" fill="url(#paint1_linear_1422_35137)"/>
</g>
<g id="Icon" filter="url(#filter1_d_1422_35137)">
<path d="M19.5004 11.6483C22.1933 11.6483 24.3763 10.3781 24.3763 8.81121C24.3763 7.24433 22.1933 5.97412 19.5004 5.97412C16.8075 5.97412 14.6245 7.24433 14.6245 8.81121C14.6245 10.3781 16.8075 11.6483 19.5004 11.6483Z" fill="url(#paint2_linear_1422_35137)"/>
<path d="M19.5004 33.0253C22.1933 33.0253 24.3763 31.7551 24.3763 30.1882C24.3763 28.6213 22.1933 27.3511 19.5004 27.3511C16.8075 27.3511 14.6245 28.6213 14.6245 30.1882C14.6245 31.7551 16.8075 33.0253 19.5004 33.0253Z" fill="url(#paint3_linear_1422_35137)"/>
<path d="M12.7054 15.5755C14.0519 13.2424 14.0431 10.7155 12.6859 9.93156C11.3286 9.14759 9.13687 10.4034 7.79041 12.7365C6.44395 15.0696 6.45269 17.5965 7.80993 18.3805C9.16717 19.1644 11.3589 17.9086 12.7054 15.5755Z" fill="url(#paint4_linear_1422_35137)"/>
<path d="M31.2082 26.2627C32.5546 23.9296 32.5466 21.4032 31.1903 20.6197C29.834 19.8363 27.643 21.0925 26.2965 23.4256C24.9501 25.7587 24.9581 28.2852 26.3144 29.0686C27.6707 29.8521 29.8617 28.5958 31.2082 26.2627Z" fill="url(#paint5_linear_1422_35137)"/>
<path d="M12.6866 29.068C14.0438 28.284 14.0526 25.7571 12.7061 23.424C11.3596 21.0909 9.16785 19.8351 7.81062 20.6191C6.45338 21.4031 6.44464 23.9299 7.7911 26.263C9.13756 28.5961 11.3293 29.852 12.6866 29.068Z" fill="url(#paint6_linear_1422_35137)"/>
<path d="M31.1915 18.3811C32.5478 17.5976 32.5558 15.0712 31.2094 12.7381C29.8629 10.405 27.6719 9.14874 26.3155 9.93219C24.9592 10.7156 24.9512 13.2421 26.2977 15.5752C27.6441 17.9083 29.8352 19.1645 31.1915 18.3811Z" fill="url(#paint7_linear_1422_35137)"/>
<path d="M19.5004 11.6483C22.1933 11.6483 24.3763 10.3781 24.3763 8.81121C24.3763 7.24433 22.1933 5.97412 19.5004 5.97412C16.8075 5.97412 14.6245 7.24433 14.6245 8.81121C14.6245 10.3781 16.8075 11.6483 19.5004 11.6483Z" stroke="url(#paint8_linear_1422_35137)" stroke-width="0.492946"/>
<path d="M19.5004 33.0253C22.1933 33.0253 24.3763 31.7551 24.3763 30.1882C24.3763 28.6213 22.1933 27.3511 19.5004 27.3511C16.8075 27.3511 14.6245 28.6213 14.6245 30.1882C14.6245 31.7551 16.8075 33.0253 19.5004 33.0253Z" stroke="url(#paint9_linear_1422_35137)" stroke-width="0.492946"/>
<path d="M12.7054 15.5755C14.0519 13.2424 14.0431 10.7155 12.6859 9.93156C11.3286 9.14759 9.13687 10.4034 7.79041 12.7365C6.44395 15.0696 6.45269 17.5965 7.80993 18.3805C9.16717 19.1644 11.3589 17.9086 12.7054 15.5755Z" stroke="url(#paint10_linear_1422_35137)" stroke-width="0.492946"/>
<path d="M31.2082 26.2627C32.5546 23.9296 32.5466 21.4032 31.1903 20.6197C29.834 19.8363 27.643 21.0925 26.2965 23.4256C24.9501 25.7587 24.9581 28.2852 26.3144 29.0686C27.6707 29.8521 29.8617 28.5958 31.2082 26.2627Z" stroke="url(#paint11_linear_1422_35137)" stroke-width="0.492946"/>
<path d="M12.6866 29.068C14.0438 28.284 14.0526 25.7571 12.7061 23.424C11.3596 21.0909 9.16785 19.8351 7.81062 20.6191C6.45338 21.4031 6.44464 23.9299 7.7911 26.263C9.13756 28.5961 11.3293 29.852 12.6866 29.068Z" stroke="url(#paint12_linear_1422_35137)" stroke-width="0.492946"/>
<path d="M31.1915 18.3811C32.5478 17.5976 32.5558 15.0712 31.2094 12.7381C29.8629 10.405 27.6719 9.14874 26.3155 9.93219C24.9592 10.7156 24.9512 13.2421 26.2977 15.5752C27.6441 17.9083 29.8352 19.1645 31.1915 18.3811Z" stroke="url(#paint13_linear_1422_35137)" stroke-width="0.492946"/>
</g>
</g>
</g>
<defs>
<filter id="filter0_d_1422_35137" x="-1.58751" y="0.383789" width="42.1755" height="42.1755" filterUnits="userSpaceOnUse" color-interpolation-filters="sRGB">
<feFlood flood-opacity="0" result="BackgroundImageFix"/>
<feColorMatrix in="SourceAlpha" type="matrix" values="0 0 0 0 0 0 0 0 0 0 0 0 0 0 0 0 0 0 127 0" result="hardAlpha"/>
<feOffset dy="1.97178"/>
<feGaussianBlur stdDeviation="0.985891"/>
<feComposite in2="hardAlpha" operator="out"/>
<feColorMatrix type="matrix" values="0 0 0 0 0 0 0 0 0 0 0 0 0 0 0 0 0 0 0.25 0"/>
<feBlend mode="normal" in2="BackgroundImageFix" result="effect1_dropShadow_1422_35137"/>
<feBlend mode="normal" in="SourceGraphic" in2="effect1_dropShadow_1422_35137" result="shape"/>
</filter>
<filter id="filter1_d_1422_35137" x="4.56801" y="5.72754" width="29.8642" height="31.488" filterUnits="userSpaceOnUse" color-interpolation-filters="sRGB">
<feFlood flood-opacity="0" result="BackgroundImageFix"/>
<feColorMatrix in="SourceAlpha" type="matrix" values="0 0 0 0 0 0 0 0 0 0 0 0 0 0 0 0 0 0 127 0" result="hardAlpha"/>
<feOffset dy="1.97178"/>
<feGaussianBlur stdDeviation="0.985891"/>
<feComposite in2="hardAlpha" operator="out"/>
<feColorMatrix type="matrix" values="0 0 0 0 0 0 0 0 0 0 0 0 0 0 0 0 0 0 0.25 0"/>
<feBlend mode="normal" in2="BackgroundImageFix" result="effect1_dropShadow_1422_35137"/>
<feBlend mode="normal" in="SourceGraphic" in2="effect1_dropShadow_1422_35137" result="shape"/>
</filter>
<linearGradient id="paint0_linear_1422_35137" x1="28.6752" y1="36.0012" x2="10.2283" y2="2.44803" gradientUnits="userSpaceOnUse">
<stop stop-color="#FF007A"/>
<stop offset="1" stop-color="#FF9BCB"/>
</linearGradient>
<linearGradient id="paint1_linear_1422_35137" x1="28.0161" y1="35.7636" x2="15.5233" y2="9.14437" gradientUnits="userSpaceOnUse">
<stop stop-color="#B30559"/>
<stop offset="1" stop-color="#FF007A" stop-opacity="0"/>
</linearGradient>
<linearGradient id="paint2_linear_1422_35137" x1="13.1071" y1="9.04282" x2="17.0191" y2="32.8849" gradientUnits="userSpaceOnUse">
<stop stop-color="#FFF4F8"/>
<stop offset="1" stop-color="#CEDBF6"/>
</linearGradient>
<linearGradient id="paint3_linear_1422_35137" x1="13.1071" y1="9.04282" x2="17.0191" y2="32.8849" gradientUnits="userSpaceOnUse">
<stop stop-color="#FFF4F8"/>
<stop offset="1" stop-color="#CEDBF6"/>
</linearGradient>
<linearGradient id="paint4_linear_1422_35137" x1="13.1071" y1="9.04282" x2="17.0191" y2="32.8849" gradientUnits="userSpaceOnUse">
<stop stop-color="#FFF4F8"/>
<stop offset="1" stop-color="#CEDBF6"/>
</linearGradient>
<linearGradient id="paint5_linear_1422_35137" x1="13.1071" y1="9.04282" x2="17.0191" y2="32.8849" gradientUnits="userSpaceOnUse">
<stop stop-color="#FFF4F8"/>
<stop offset="1" stop-color="#CEDBF6"/>
</linearGradient>
<linearGradient id="paint6_linear_1422_35137" x1="13.1071" y1="9.04282" x2="17.0191" y2="32.8849" gradientUnits="userSpaceOnUse">
<stop stop-color="#FFF4F8"/>
<stop offset="1" stop-color="#CEDBF6"/>
</linearGradient>
<linearGradient id="paint7_linear_1422_35137" x1="13.1071" y1="9.04282" x2="17.0191" y2="32.8849" gradientUnits="userSpaceOnUse">
<stop stop-color="#FFF4F8"/>
<stop offset="1" stop-color="#CEDBF6"/>
</linearGradient>
<linearGradient id="paint8_linear_1422_35137" x1="19.5001" y1="19.4997" x2="25.2208" y2="28.3839" gradientUnits="userSpaceOnUse">
<stop stop-color="white"/>
<stop offset="1" stop-color="#AAAAAA"/>
</linearGradient>
<linearGradient id="paint9_linear_1422_35137" x1="19.5001" y1="19.4997" x2="25.2208" y2="28.3839" gradientUnits="userSpaceOnUse">
<stop stop-color="white"/>
<stop offset="1" stop-color="#AAAAAA"/>
</linearGradient>
<linearGradient id="paint10_linear_1422_35137" x1="19.5001" y1="19.4997" x2="25.2208" y2="28.3839" gradientUnits="userSpaceOnUse">
<stop stop-color="white"/>
<stop offset="1" stop-color="#AAAAAA"/>
</linearGradient>
<linearGradient id="paint11_linear_1422_35137" x1="19.5001" y1="19.4997" x2="25.2208" y2="28.3839" gradientUnits="userSpaceOnUse">
<stop stop-color="white"/>
<stop offset="1" stop-color="#AAAAAA"/>
</linearGradient>
<linearGradient id="paint12_linear_1422_35137" x1="19.5001" y1="19.4997" x2="25.2208" y2="28.3839" gradientUnits="userSpaceOnUse">
<stop stop-color="white"/>
<stop offset="1" stop-color="#AAAAAA"/>
</linearGradient>
<linearGradient id="paint13_linear_1422_35137" x1="19.5001" y1="19.4997" x2="25.2208" y2="28.3839" gradientUnits="userSpaceOnUse">
<stop stop-color="white"/>
<stop offset="1" stop-color="#AAAAAA"/>
</linearGradient>
<clipPath id="clip0_1422_35137">
<rect x="0.384277" y="0.383789" width="38.2319" height="38.2319" rx="19.116" fill="white"/>
</clipPath>
</defs>
</svg>
