<svg width="49" height="49" viewBox="0 0 49 49" fill="none" xmlns="http://www.w3.org/2000/svg">
<rect x="0.5" y="0.5" width="48" height="48" rx="24" fill="white"/>
<g clip-path="url(#clip0_1614_35264)">
<g clip-path="url(#clip1_1614_35264)">
<g filter="url(#filter0_d_1614_35264)">
<circle cx="24.5002" cy="24.4998" r="19.116" fill="url(#paint0_linear_1614_35264)"/>
</g>
<g filter="url(#filter1_d_1614_35264)">
<path d="M24.5004 16.6483C27.1933 16.6483 29.3763 15.3781 29.3763 13.8112C29.3763 12.2443 27.1933 10.9741 24.5004 10.9741C21.8075 10.9741 19.6245 12.2443 19.6245 13.8112C19.6245 15.3781 21.8075 16.6483 24.5004 16.6483Z" fill="#FFE4F1"/>
<path d="M24.5004 38.0253C27.1933 38.0253 29.3763 36.7551 29.3763 35.1882C29.3763 33.6213 27.1933 32.3511 24.5004 32.3511C21.8075 32.3511 19.6245 33.6213 19.6245 35.1882C19.6245 36.7551 21.8075 38.0253 24.5004 38.0253Z" fill="#FFE4F1"/>
<path d="M17.7054 20.5755C19.0519 18.2424 19.0431 15.7155 17.6859 14.9316C16.3286 14.1476 14.1369 15.4034 12.7904 17.7365C11.444 20.0696 11.4527 22.5965 12.8099 23.3805C14.1672 24.1644 16.3589 22.9086 17.7054 20.5755Z" fill="#FFE4F1"/>
<path d="M36.2082 31.2627C37.5546 28.9296 37.5466 26.4032 36.1903 25.6197C34.834 24.8363 32.643 26.0925 31.2965 28.4256C29.9501 30.7587 29.9581 33.2852 31.3144 34.0686C32.6707 34.8521 34.8617 33.5958 36.2082 31.2627Z" fill="#FFE4F1"/>
<path d="M17.6866 34.068C19.0438 33.284 19.0526 30.7571 17.7061 28.424C16.3596 26.0909 14.1679 24.8351 12.8106 25.6191C11.4534 26.4031 11.4446 28.9299 12.7911 31.263C14.1376 33.5961 16.3293 34.852 17.6866 34.068Z" fill="#FFE4F1"/>
<path d="M36.1915 23.3811C37.5478 22.5976 37.5558 20.0712 36.2094 17.7381C34.8629 15.405 32.6719 14.1487 31.3155 14.9322C29.9592 15.7156 29.9512 18.2421 31.2977 20.5752C32.6441 22.9083 34.8352 24.1645 36.1915 23.3811Z" fill="#FFE4F1"/>
<path d="M24.5004 16.6483C27.1933 16.6483 29.3763 15.3781 29.3763 13.8112C29.3763 12.2443 27.1933 10.9741 24.5004 10.9741C21.8075 10.9741 19.6245 12.2443 19.6245 13.8112C19.6245 15.3781 21.8075 16.6483 24.5004 16.6483Z" stroke="white" stroke-width="0.2"/>
<path d="M24.5004 38.0253C27.1933 38.0253 29.3763 36.7551 29.3763 35.1882C29.3763 33.6213 27.1933 32.3511 24.5004 32.3511C21.8075 32.3511 19.6245 33.6213 19.6245 35.1882C19.6245 36.7551 21.8075 38.0253 24.5004 38.0253Z" stroke="white" stroke-width="0.2"/>
<path d="M17.7054 20.5755C19.0519 18.2424 19.0431 15.7155 17.6859 14.9316C16.3286 14.1476 14.1369 15.4034 12.7904 17.7365C11.444 20.0696 11.4527 22.5965 12.8099 23.3805C14.1672 24.1644 16.3589 22.9086 17.7054 20.5755Z" stroke="white" stroke-width="0.2"/>
<path d="M36.2082 31.2627C37.5546 28.9296 37.5466 26.4032 36.1903 25.6197C34.834 24.8363 32.643 26.0925 31.2965 28.4256C29.9501 30.7587 29.9581 33.2852 31.3144 34.0686C32.6707 34.8521 34.8617 33.5958 36.2082 31.2627Z" stroke="white" stroke-width="0.2"/>
<path d="M17.6866 34.068C19.0438 33.284 19.0526 30.7571 17.7061 28.424C16.3596 26.0909 14.1679 24.8351 12.8106 25.6191C11.4534 26.4031 11.4446 28.9299 12.7911 31.263C14.1376 33.5961 16.3293 34.852 17.6866 34.068Z" stroke="white" stroke-width="0.2"/>
<path d="M36.1915 23.3811C37.5478 22.5976 37.5558 20.0712 36.2094 17.7381C34.8629 15.405 32.6719 14.1487 31.3155 14.9322C29.9592 15.7156 29.9512 18.2421 31.2977 20.5752C32.6441 22.9083 34.8352 24.1645 36.1915 23.3811Z" stroke="white" stroke-width="0.2"/>
</g>
</g>
</g>
<defs>
<filter id="filter0_d_1614_35264" x="3.41249" y="5.38379" width="42.1755" height="42.1755" filterUnits="userSpaceOnUse" color-interpolation-filters="sRGB">
<feFlood flood-opacity="0" result="BackgroundImageFix"/>
<feColorMatrix in="SourceAlpha" type="matrix" values="0 0 0 0 0 0 0 0 0 0 0 0 0 0 0 0 0 0 127 0" result="hardAlpha"/>
<feOffset dy="1.97178"/>
<feGaussianBlur stdDeviation="0.985891"/>
<feComposite in2="hardAlpha" operator="out"/>
<feColorMatrix type="matrix" values="0 0 0 0 0 0 0 0 0 0 0 0 0 0 0 0 0 0 0.25 0"/>
<feBlend mode="normal" in2="BackgroundImageFix" result="effect1_dropShadow_1614_35264"/>
<feBlend mode="normal" in="SourceGraphic" in2="effect1_dropShadow_1614_35264" result="shape"/>
</filter>
<filter id="filter1_d_1614_35264" x="10.4863" y="10.674" width="28.0277" height="29.6515" filterUnits="userSpaceOnUse" color-interpolation-filters="sRGB">
<feFlood flood-opacity="0" result="BackgroundImageFix"/>
<feColorMatrix in="SourceAlpha" type="matrix" values="0 0 0 0 0 0 0 0 0 0 0 0 0 0 0 0 0 0 127 0" result="hardAlpha"/>
<feOffset dy="1"/>
<feGaussianBlur stdDeviation="0.6"/>
<feComposite in2="hardAlpha" operator="out"/>
<feColorMatrix type="matrix" values="0 0 0 0 0 0 0 0 0 0 0 0 0 0 0 0 0 0 0.25 0"/>
<feBlend mode="normal" in2="BackgroundImageFix" result="effect1_dropShadow_1614_35264"/>
<feBlend mode="normal" in="SourceGraphic" in2="effect1_dropShadow_1614_35264" result="shape"/>
</filter>
<linearGradient id="paint0_linear_1614_35264" x1="33.6752" y1="41.0012" x2="15.2283" y2="7.44803" gradientUnits="userSpaceOnUse">
<stop stop-color="#FF007A"/>
<stop offset="1" stop-color="#FF027B"/>
</linearGradient>
<clipPath id="clip0_1614_35264">
<rect x="5.06445" y="5.06445" width="38.8711" height="38.8711" rx="19.4355" fill="white"/>
</clipPath>
<clipPath id="clip1_1614_35264">
<rect x="5.38428" y="5.38379" width="38.2319" height="38.2319" rx="19.116" fill="white"/>
</clipPath>
</defs>
</svg>
