

<svg width="49" height="49" viewBox="0 0 49 49" fill="none" xmlns="http://www.w3.org/2000/svg">
<rect x="0.5" y="0.5" width="48" height="48" rx="24" fill="white"/>
<g clip-path="url(#clip0_1260_10604)">
<g filter="url(#filter0_d_1260_10604)">
<path fill-rule="evenodd" clip-rule="evenodd" d="M15.1528 32.6636C11.6142 32.6634 8.74573 29.7949 8.74573 26.2563C8.74573 23.0617 11.0837 20.4131 14.1419 19.9283C14.8218 15.1129 18.9598 11.4087 23.9629 11.4087C28.0153 11.4087 31.5001 13.8388 33.0395 17.3213C33.3557 17.2817 33.6779 17.2613 34.0049 17.2613C38.2581 17.2613 41.7059 20.7092 41.7059 24.9624C41.7059 29.1503 38.3631 32.5574 34.2001 32.661V32.6636H15.1528V32.6636Z" fill="url(#paint0_linear_1260_10604)" fill-opacity="0.52"/>
<path fill-rule="evenodd" clip-rule="evenodd" d="M15.1528 32.6636C11.6142 32.6634 8.74573 29.7949 8.74573 26.2563C8.74573 23.0617 11.0837 20.4131 14.1419 19.9283C14.8218 15.1129 18.9598 11.4087 23.9629 11.4087C28.0153 11.4087 31.5001 13.8388 33.0395 17.3213C33.3557 17.2817 33.6779 17.2613 34.0049 17.2613C38.2581 17.2613 41.7059 20.7092 41.7059 24.9624C41.7059 29.1503 38.3631 32.5574 34.2001 32.661V32.6636H15.1528V32.6636Z" fill="#06C30E"/>
<path fill-rule="evenodd" clip-rule="evenodd" d="M15.1528 32.6636C11.6142 32.6634 8.74573 29.7949 8.74573 26.2563C8.74573 23.0617 11.0837 20.4131 14.1419 19.9283C14.8218 15.1129 18.9598 11.4087 23.9629 11.4087C28.0153 11.4087 31.5001 13.8388 33.0395 17.3213C33.3557 17.2817 33.6779 17.2613 34.0049 17.2613C38.2581 17.2613 41.7059 20.7092 41.7059 24.9624C41.7059 29.1503 38.3631 32.5574 34.2001 32.661V32.6636H15.1528V32.6636Z" fill="url(#paint1_linear_1260_10604)" fill-opacity="0.58"/>
<path fill-rule="evenodd" clip-rule="evenodd" d="M15.1528 32.6636C11.6142 32.6634 8.74573 29.7949 8.74573 26.2563C8.74573 23.0617 11.0837 20.4131 14.1419 19.9283C14.8218 15.1129 18.9598 11.4087 23.9629 11.4087C28.0153 11.4087 31.5001 13.8388 33.0395 17.3213C33.3557 17.2817 33.6779 17.2613 34.0049 17.2613C38.2581 17.2613 41.7059 20.7092 41.7059 24.9624C41.7059 29.1503 38.3631 32.5574 34.2001 32.661V32.6636H15.1528V32.6636Z" fill="url(#paint2_linear_1260_10604)"/>
<path d="M15.1528 32.6636H15.6601V32.1563L15.1528 32.1562L15.1528 32.6636ZM14.1419 19.9283L14.2213 20.4294L14.5918 20.3707L14.6442 19.9993L14.1419 19.9283ZM33.0395 17.3213L32.5755 17.5264L32.728 17.8715L33.1024 17.8247L33.0395 17.3213ZM34.2001 32.661L34.1875 32.1538L33.6927 32.1661V32.661H34.2001ZM34.2001 32.6636V33.1709H34.7074V32.6636H34.2001ZM15.1528 32.6636H14.6454V33.1709H15.1528V32.6636ZM15.1528 32.1562C11.8944 32.1561 9.25306 29.5147 9.25306 26.2563H8.2384C8.2384 30.075 11.334 33.1708 15.1527 33.1709L15.1528 32.1562ZM9.25306 26.2563C9.25306 23.3151 11.4057 20.8758 14.2213 20.4294L14.0625 19.4273C10.7617 19.9505 8.2384 22.8083 8.2384 26.2563H9.25306ZM14.6442 19.9993C15.2893 15.4306 19.2161 11.916 23.9629 11.916V10.9014C18.7035 10.9014 14.3543 14.7951 13.6396 19.8574L14.6442 19.9993ZM23.9629 11.916C27.8072 11.916 31.1143 14.221 32.5755 17.5264L33.5035 17.1161C31.8858 13.4567 28.2233 10.9014 23.9629 10.9014V11.916ZM33.1024 17.8247C33.3979 17.7877 33.699 17.7687 34.0049 17.7687V16.754C33.6568 16.754 33.3136 16.7757 32.9765 16.8179L33.1024 17.8247ZM34.0049 17.7687C37.9779 17.7687 41.1986 20.9894 41.1986 24.9624H42.2133C42.2133 20.429 38.5383 16.754 34.0049 16.754V17.7687ZM41.1986 24.9624C41.1986 28.8743 38.0759 32.0571 34.1875 32.1538L34.2127 33.1681C38.6502 33.0578 42.2133 29.4262 42.2133 24.9624H41.1986ZM33.6927 32.661V32.6636H34.7074V32.661H33.6927ZM34.2001 32.1563H15.1528V33.1709H34.2001V32.1563ZM15.6601 32.6636V32.6636H14.6454V32.6636H15.6601Z" fill="url(#paint3_linear_1260_10604)"/>
</g>
<g filter="url(#filter1_d_1260_10604)">
<path fill-rule="evenodd" clip-rule="evenodd" d="M30.6658 19.4922C31.1236 19.9674 31.1094 20.7237 30.6342 21.1814L23.4186 28.132C22.7987 28.729 21.8158 28.7227 21.2037 28.1176L17.4527 24.4094C16.9835 23.9456 16.9792 23.1892 17.443 22.72L17.5469 22.6149C18.0108 22.1457 18.7672 22.1414 19.2364 22.6052L21.9126 25.2509C22.1432 25.4788 22.5134 25.4812 22.7469 25.2563L28.8741 19.3542C29.3493 18.8964 30.1056 18.9106 30.5633 19.3858L30.6658 19.4922Z" fill="url(#paint4_linear_1260_10604)"/>
<path fill-rule="evenodd" clip-rule="evenodd" d="M30.6658 19.4922C31.1236 19.9674 31.1094 20.7237 30.6342 21.1814L23.4186 28.132C22.7987 28.729 21.8158 28.7227 21.2037 28.1176L17.4527 24.4094C16.9835 23.9456 16.9792 23.1892 17.443 22.72L17.5469 22.6149C18.0108 22.1457 18.7672 22.1414 19.2364 22.6052L21.9126 25.2509C22.1432 25.4788 22.5134 25.4812 22.7469 25.2563L28.8741 19.3542C29.3493 18.8964 30.1056 18.9106 30.5633 19.3858L30.6658 19.4922Z" stroke="url(#paint5_linear_1260_10604)" stroke-width="0.597317"/>
</g>
</g>
<defs>
<filter id="filter0_d_1260_10604" x="6.20908" y="10.9014" width="38.0335" height="26.3282" filterUnits="userSpaceOnUse" color-interpolation-filters="sRGB">
<feFlood flood-opacity="0" result="BackgroundImageFix"/>
<feColorMatrix in="SourceAlpha" type="matrix" values="0 0 0 0 0 0 0 0 0 0 0 0 0 0 0 0 0 0 127 0" result="hardAlpha"/>
<feOffset dy="2.02932"/>
<feGaussianBlur stdDeviation="1.01466"/>
<feComposite in2="hardAlpha" operator="out"/>
<feColorMatrix type="matrix" values="0 0 0 0 0 0 0 0 0 0 0 0 0 0 0 0 0 0 0.25 0"/>
<feBlend mode="normal" in2="BackgroundImageFix" result="effect1_dropShadow_1260_10604"/>
<feBlend mode="normal" in="SourceGraphic" in2="effect1_dropShadow_1260_10604" result="shape"/>
</filter>
<filter id="filter1_d_1260_10604" x="14.4101" y="18.7212" width="19.2779" height="14.9319" filterUnits="userSpaceOnUse" color-interpolation-filters="sRGB">
<feFlood flood-opacity="0" result="BackgroundImageFix"/>
<feColorMatrix in="SourceAlpha" type="matrix" values="0 0 0 0 0 0 0 0 0 0 0 0 0 0 0 0 0 0 127 0" result="hardAlpha"/>
<feOffset dy="2.38927"/>
<feGaussianBlur stdDeviation="1.19463"/>
<feComposite in2="hardAlpha" operator="out"/>
<feColorMatrix type="matrix" values="0 0 0 0 0 0 0 0 0 0 0 0 0 0 0 0 0 0 0.25 0"/>
<feBlend mode="normal" in2="BackgroundImageFix" result="effect1_dropShadow_1260_10604"/>
<feBlend mode="normal" in="SourceGraphic" in2="effect1_dropShadow_1260_10604" result="shape"/>
</filter>
<linearGradient id="paint0_linear_1260_10604" x1="25.2259" y1="32.6628" x2="22.4365" y2="18.1939" gradientUnits="userSpaceOnUse">
<stop stop-color="#136729"/>
<stop offset="1" stop-color="#1ED900" stop-opacity="0.95"/>
</linearGradient>
<linearGradient id="paint1_linear_1260_10604" x1="28.4267" y1="32.6628" x2="32.1891" y2="17.0372" gradientUnits="userSpaceOnUse">
<stop stop-color="#0E7A04" stop-opacity="0.64"/>
<stop offset="1" stop-color="#83F994"/>
</linearGradient>
<linearGradient id="paint2_linear_1260_10604" x1="15.307" y1="13.349" x2="17.7969" y2="19.4304" gradientUnits="userSpaceOnUse">
<stop stop-color="#FBFFCB"/>
<stop offset="1" stop-color="white" stop-opacity="0"/>
</linearGradient>
<linearGradient id="paint3_linear_1260_10604" x1="28.3913" y1="33.9883" x2="23.1036" y2="12.0081" gradientUnits="userSpaceOnUse">
<stop stop-color="#006503"/>
<stop offset="0.22" stop-color="#14830A"/>
<stop offset="1" stop-color="#70E374"/>
</linearGradient>
<linearGradient id="paint4_linear_1260_10604" x1="30.3093" y1="19.7333" x2="24.0489" y2="28.5756" gradientUnits="userSpaceOnUse">
<stop stop-color="#F5E4EA"/>
<stop offset="1" stop-color="#D7E3E6"/>
</linearGradient>
<linearGradient id="paint5_linear_1260_10604" x1="24.0489" y1="23.5505" x2="25.6835" y2="27.5521" gradientUnits="userSpaceOnUse">
<stop stop-color="white"/>
<stop offset="1" stop-color="#AAAAAA"/>
</linearGradient>
<clipPath id="clip0_1260_10604">
<rect x="5.06445" y="5.06445" width="38.8711" height="38.8711" rx="19.4355" fill="white"/>
</clipPath>
</defs>
</svg>
