<svg width="width" height="height" viewBox="0 0 128 129" fill="none" xmlns="http://www.w3.org/2000/svg">
<g id="Frame 156359">
<g id="Group 2321">
<g id="Group 2319">
<g id="Vector 150">
<path d="M25.3361 66.1969V67.7485V96.8182L102.914 96.7854V69.9686V66.1596C102.914 65.8446 102.765 65.5479 102.513 65.3591L66.2217 38.1913C65.1623 37.3982 63.7084 37.393 62.6433 38.1785L25.7425 65.392C25.4869 65.5806 25.3361 65.8793 25.3361 66.1969Z" fill="#666AFF"/>
<path d="M25.3361 66.1969V67.7485V96.8182L102.914 96.7854V69.9686V66.1596C102.914 65.8446 102.765 65.5479 102.513 65.3591L66.2217 38.1913C65.1623 37.3982 63.7084 37.393 62.6433 38.1785L25.7425 65.392C25.4869 65.5806 25.3361 65.8793 25.3361 66.1969Z" fill="url(#paint0_linear_1422_35279)" fill-opacity="0.36"/>
</g>
<g id="Rectangle 3625">
<path d="M32.6169 44.4971L95.6345 44.4971V92.7778H32.6169V44.4971Z" fill="white"/>
<path d="M32.6169 44.4971L95.6345 44.4971V92.7778H32.6169V44.4971Z" fill="url(#paint1_linear_1422_35279)" fill-opacity="0.2"/>
<path d="M32.6169 44.4971L95.6345 44.4971V92.7778H32.6169V44.4971Z" stroke="#E2E7EA" stroke-width="2"/>
</g>
<path id="Union" fill-rule="evenodd" clip-rule="evenodd" d="M68.7016 73.9287C68.0632 73.9287 67.4828 73.774 66.9605 73.4644C66.2003 72.9967 65.5617 72.2417 65.0446 71.2747C64.6891 71.8704 64.32 72.4189 63.9188 72.8647C63.2223 73.6579 62.3905 74.1802 61.2877 74.1802C60.7461 74.1802 60.2818 74.0641 59.8562 73.8126C59.0436 73.3483 58.4246 72.5358 57.999 71.5105L57.9847 71.4718C57.2594 71.91 56.4521 72.1291 55.6705 72.1291C54.3163 72.1291 53.1169 71.6068 52.2463 70.7942C52.1579 70.7118 52.0731 70.6261 51.9921 70.5374C51.3892 70.937 50.5943 71.0845 49.8687 71.0845C48.1082 71.0845 47.3344 69.769 46.8894 68.26C46.823 68.0433 46.7598 67.8128 46.696 67.5804C46.407 66.5265 46.1077 65.4356 45.4579 65.4356C45.0516 65.4356 44.3938 65.9192 44.0456 66.5963C43.562 67.4862 43.2911 68.8404 43.2911 69.5562C43.2911 69.6453 43.3167 69.851 43.3483 70.1046C43.3991 70.5123 43.4652 71.0437 43.4652 71.4134C43.4652 72.0325 42.9042 72.3227 42.2465 72.3227C41.6467 72.3227 41.4533 72.1099 41.3565 71.5875C41.2211 70.8911 41.2018 70.2333 41.2018 69.4982C41.2018 69.3515 41.2155 69.15 41.2314 68.9166C41.2344 68.8729 41.2374 68.8281 41.2405 68.7824L41.4726 66.1127L41.6274 63.8879C41.7241 62.1661 41.8402 59.9607 41.9176 57.0975C41.9369 56.5171 42.2465 56.343 42.7301 56.343C43.8135 56.343 43.9489 56.788 43.9489 57.8327C43.9489 59.2836 43.9102 60.4443 43.8328 61.431C43.8282 61.4914 43.8233 61.5549 43.8182 61.6207C43.7598 62.3771 43.6765 63.4554 43.6587 64.0427C43.7068 64.0128 43.7543 63.983 43.8015 63.9533C44.3046 63.6373 44.7681 63.3462 45.4579 63.3462C46.0963 63.3462 46.6186 63.4816 47.0055 63.7525C47.7987 64.3135 48.2437 65.2034 48.4951 66.1707C48.6112 66.6543 48.7273 67.0993 48.8434 67.5249C49.0562 68.3761 49.3077 68.9952 49.8687 68.9952C50.3043 68.9952 50.6457 68.7665 50.9266 68.5783C50.9364 68.5717 50.9462 68.5652 50.9559 68.5587C50.8886 68.2564 50.8534 67.9429 50.8534 67.6215C50.8534 65.8998 51.8013 64.0232 53.9874 64.0232C55.6318 64.0232 56.483 65.1646 56.483 66.4995C56.483 67.7183 55.6318 69.0338 54.6065 69.7689C54.9934 70.0204 55.2255 70.0398 55.6705 70.0398C56.3237 70.0398 56.8964 69.8142 57.3591 69.2895C57.1719 68.3712 57.0598 67.4612 57.0123 66.6547C56.9156 65.3585 56.8576 64.0237 56.8576 62.7855C56.8576 61.3346 56.9736 60.0191 57.3799 59.0711C57.7862 58.1038 58.4633 57.5235 59.5853 57.5235C61.7714 57.5235 62.0616 60.0771 62.0616 62.2245C62.0616 62.9596 62.0616 63.5981 62.0229 64.1591C61.9842 65.2618 61.8681 66.0937 61.6747 66.7901C61.5779 67.1383 61.4619 67.4672 61.3071 67.7961C61.0051 68.4567 60.5742 69.1173 60.0145 69.9755L59.9722 70.0402C60.185 71.1236 60.3785 72.0715 61.2877 72.0715C62.255 72.0715 63.2997 70.2724 63.9768 68.9182C64.0128 68.8378 64.0532 68.7669 64.0968 68.7045C64.0353 68.4523 63.9783 68.1948 63.9232 67.9315C63.6523 66.6354 63.5169 65.2425 63.5169 63.8883C63.5169 63.482 63.5363 63.0951 63.5556 62.7083L63.5556 62.7082C63.6523 60.7155 63.9425 58.9938 64.4842 57.7943C65.0259 56.5949 65.7804 55.8984 66.8637 55.8984C68.6822 55.8984 69.2626 58.1812 69.1465 60.406C68.9724 63.8496 68.6436 66.4999 66.8831 69.5179C67.0572 70.7754 67.773 71.8394 68.7596 71.8394C70.0469 71.8394 70.6403 71.0514 71.3208 70.1479C71.6527 69.7072 72.0054 69.2389 72.4695 68.8212C72.6835 67.0596 73.7874 65.4548 75.5791 65.4548C77.7071 65.4548 78.7131 67.3313 79.0613 68.6081C79.5643 68.8403 80.2027 69.0144 80.8024 69.0144C81.3635 69.0144 81.8858 68.8596 82.2147 68.4921C82.3469 68.3434 82.5637 68.3499 82.7326 68.355C82.7615 68.3558 82.789 68.3567 82.8144 68.3567C83.3367 68.3953 83.8204 68.8596 83.8204 69.4207C83.8204 69.7109 83.685 69.9237 83.4141 70.1752C82.6209 70.8523 81.8665 71.1231 80.9959 71.1231C80.4349 71.1231 79.8158 71.007 79.1 70.8136C78.6357 72.4386 77.9199 74.2184 75.8886 74.2184C74.5731 74.2184 73.6445 73.6574 73.0835 72.7095C72.93 72.4559 72.8018 72.1723 72.6997 71.8628C72.5725 71.9903 72.4391 72.1184 72.2999 72.2456C71.971 72.5552 71.6228 72.826 71.2359 73.0775C70.4814 73.5805 69.6108 73.9287 68.7016 73.9287ZM65.6836 63.4626C65.6836 63.5785 65.6878 63.6944 65.6941 63.8728V63.8729C65.7015 64.0816 65.7119 64.3758 65.7223 64.8555C65.7223 65.2425 65.7417 65.5907 65.761 65.9389C65.7997 66.5967 65.8578 67.1577 65.9158 67.5059C66.3535 66.7035 66.6365 64.4224 66.8133 62.9967L66.8444 62.7469C66.9024 62.3019 66.9798 61.412 67.0379 60.5414C67.0379 60.5151 67.0401 60.4708 67.0431 60.4123V60.4123V60.4123C67.0488 60.2991 67.0572 60.133 67.0572 59.9417C67.0572 59.1872 66.9992 57.9878 66.7477 57.9878C66.0319 57.9878 65.8384 60.2319 65.761 61.5861C65.7458 61.9203 65.7333 62.1882 65.7231 62.4068L65.723 62.4086L65.7229 62.4108L65.7229 62.4109L65.7229 62.4112L65.7228 62.4113C65.6941 63.0247 65.6836 63.2489 65.6836 63.4626ZM84.096 67.9697C84.096 68.879 84.7924 69.3046 85.5082 69.3046C85.5082 69.2852 85.5276 69.2852 85.5276 69.2852C86.4338 69.0587 86.4872 67.5733 86.5371 66.1878C86.5468 65.9169 86.5564 65.6498 86.5723 65.3967C86.5916 64.7583 86.7077 63.5976 86.7851 62.8624C86.8624 61.9145 86.9398 60.8698 86.9398 59.6317C86.9398 58.9739 86.9205 58.3742 86.8238 57.8325C86.727 57.3489 86.4368 57.078 85.721 57.078C85.2181 57.078 84.9666 57.3489 84.9472 57.6971C84.9248 58.19 84.8894 58.3456 84.8411 58.5582L84.8411 58.5583C84.8059 58.7129 84.7639 58.8977 84.7151 59.2641C84.657 59.6704 84.5796 60.3475 84.4829 61.5856L84.4415 62.2351C84.3662 63.4136 84.264 65.0146 84.1347 67.1959L84.096 67.9697ZM85.2374 70.3686C84.3862 70.3686 83.5543 70.9103 83.5543 71.8582C83.5543 72.8255 84.2895 72.9223 84.9859 72.9223H85.0052C86.3788 72.9223 86.669 72.4773 86.669 71.5487C86.669 70.8136 86.0886 70.3686 85.2374 70.3686ZM75.7145 72.1484C74.8826 72.1484 74.4764 70.9683 74.4764 69.8656C74.4764 69.3239 74.5731 68.7823 74.7666 68.4147C74.7279 68.5114 74.7279 68.5888 74.7279 68.6855C74.7279 69.4787 75.908 70.1945 76.9333 70.3686C76.8172 71.3746 76.3142 72.1484 75.7145 72.1484ZM59.2564 67.2157C59.0436 66.6353 58.9856 64.4106 58.9856 63.2111C58.9856 62.4373 59.0243 59.6128 59.5853 59.6128C59.8948 59.6128 59.9529 61.4507 59.9529 62.2052C59.9529 64.101 59.7788 66.4612 59.2564 67.2157ZM52.9621 67.6215C52.9621 67.8537 53.0008 68.0858 53.0588 68.318C53.6198 67.9891 54.3937 67.0605 54.3937 66.4995C54.3937 66.3641 54.3743 66.1126 53.9874 66.1126C53.2136 66.1126 52.9621 66.867 52.9621 67.6215Z" fill="url(#paint2_linear_1422_35279)"/>
<g id="Vector 151">
<path d="M27.2913 107.357L102.914 68.6377V106.302C102.914 107.406 102.019 108.302 100.914 108.302H27.5192C26.9942 108.302 26.824 107.596 27.2913 107.357Z" fill="#666AFF"/>
<path d="M27.2913 107.357L102.914 68.6377V106.302C102.914 107.406 102.019 108.302 100.914 108.302H27.5192C26.9942 108.302 26.824 107.596 27.2913 107.357Z" fill="url(#paint3_linear_1422_35279)" fill-opacity="0.2"/>
<path d="M27.2913 107.357L102.914 68.6377V106.302C102.914 107.406 102.019 108.302 100.914 108.302H27.5192C26.9942 108.302 26.824 107.596 27.2913 107.357Z" fill="url(#paint4_linear_1422_35279)" fill-opacity="0.2"/>
</g>
<g id="Vector 152">
<path d="M80.6551 96.9609L25.3362 68.6377V106.302C25.3362 107.406 26.2316 108.302 27.3362 108.302H77.9207C84.221 108.302 86.2632 99.8322 80.6551 96.9609Z" fill="#666AFF"/>
<path d="M80.6551 96.9609L25.3362 68.6377V106.302C25.3362 107.406 26.2316 108.302 27.3362 108.302H77.9207C84.221 108.302 86.2632 99.8322 80.6551 96.9609Z" fill="url(#paint5_linear_1422_35279)" fill-opacity="0.2"/>
<path d="M80.6551 96.9609L25.3362 68.6377V106.302C25.3362 107.406 26.2316 108.302 27.3362 108.302H77.9207C84.221 108.302 86.2632 99.8322 80.6551 96.9609Z" fill="url(#paint6_linear_1422_35279)" fill-opacity="0.2"/>
</g>
<g id="Vector 153">
<path d="M63.5078 81.9806L29.2703 108.277H99.247L64.7229 81.9781C64.3638 81.7046 63.8659 81.7056 63.5078 81.9806Z" fill="#666AFF"/>
<path d="M63.5078 81.9806L29.2703 108.277H99.247L64.7229 81.9781C64.3638 81.7046 63.8659 81.7056 63.5078 81.9806Z" fill="url(#paint7_linear_1422_35279)" fill-opacity="0.2"/>
<path d="M63.5078 81.9806L29.2703 108.277H99.247L64.7229 81.9781C64.3638 81.7046 63.8659 81.7056 63.5078 81.9806Z" fill="url(#paint8_linear_1422_35279)" fill-opacity="0.1"/>
</g>
</g>
<g id="Group 156350">
<path id="Vector" d="M52.4555 28.7775V28.9908C51.1372 29.2008 48.3065 29.6887 46.9138 30.2219C46.4162 30.4126 46.022 30.8035 45.8281 31.2979C45.2949 32.6842 44.8005 35.531 44.5905 36.8558H44.164C43.9539 35.531 43.4595 32.6842 42.9264 31.2979C42.7325 30.8035 42.3351 30.4093 41.8407 30.2219C40.448 29.6887 37.6173 29.2008 36.299 28.9908V28.5642C37.6173 28.3542 40.448 27.8663 41.8407 27.3331C42.3383 27.1425 42.7325 26.7515 42.9264 26.2571C43.4595 24.8708 43.9539 22.0241 44.164 20.6992H44.5905C44.8005 22.0241 45.2949 24.8708 45.8281 26.2571C46.022 26.7515 46.4194 27.1457 46.9138 27.3331C48.3065 27.8663 51.1372 28.3542 52.4555 28.5642V28.7775Z" fill="#F27927"/>
</g>
<g id="Group 156349">
<path id="Vector_2" d="M86.9396 30.1103V30.2575C86.0299 30.4024 84.0767 30.7391 83.1157 31.107C82.7723 31.2385 82.5003 31.5083 82.3665 31.8494C81.9987 32.806 81.6575 34.7703 81.5126 35.6845H81.2183C81.0733 34.7703 80.7322 32.806 80.3643 31.8494C80.2305 31.5083 79.9563 31.2363 79.6151 31.107C78.6542 30.7391 76.701 30.4024 75.7913 30.2575V29.9631C76.701 29.8182 78.6542 29.4815 79.6151 29.1136C79.9585 28.9821 80.2305 28.7123 80.3643 28.3712C80.7322 27.4146 81.0733 25.4503 81.2183 24.5361H81.5126C81.6575 25.4503 81.9987 27.4146 82.3665 28.3712C82.5003 28.7123 82.7746 28.9843 83.1157 29.1136C84.0767 29.4815 86.0299 29.8182 86.9396 29.9631V30.1103Z" fill="#7794FC"/>
</g>
<g id="Group 156347">
<path id="Vector_3" d="M115.404 51.5754V51.7886C114.085 51.9987 111.255 52.4866 109.862 53.0198C109.364 53.2104 108.97 53.6014 108.776 54.0958C108.243 55.482 107.749 58.3288 107.539 59.6537H107.112C106.902 58.3288 106.408 55.482 105.875 54.0958C105.681 53.6014 105.283 53.2072 104.789 53.0198C103.396 52.4866 100.565 51.9987 99.2471 51.7886V51.3621C100.565 51.1521 103.396 50.6641 104.789 50.131C105.286 49.9403 105.681 49.5493 105.875 49.0549C106.408 47.6687 106.902 44.8219 107.112 43.4971H107.539C107.749 44.8219 108.243 47.6687 108.776 49.0549C108.97 49.5493 109.368 49.9435 109.862 50.131C111.255 50.6641 114.085 51.1521 115.404 51.3621V51.5754Z" fill="#FDCD09"/>
</g>
</g>
<g id="Group 156348">
<path id="Vector_4" d="M23.8694 54.0216V54.1475C23.0911 54.2715 21.4202 54.5595 20.5981 54.8742C20.3043 54.9868 20.0716 55.2176 19.9571 55.5094C19.6424 56.3277 19.3506 58.0082 19.2266 58.7903H18.9748C18.8508 58.0082 18.559 56.3277 18.2442 55.5094C18.1298 55.2176 17.8952 54.9849 17.6033 54.8742C16.7812 54.5595 15.1103 54.2715 14.332 54.1475V53.8957C15.1103 53.7717 16.7812 53.4837 17.6033 53.169C17.8971 53.0564 18.1298 52.8256 18.2442 52.5338C18.559 51.7155 18.8508 50.035 18.9748 49.2529H19.2266C19.3506 50.035 19.6424 51.7155 19.9571 52.5338C20.0716 52.8256 20.3062 53.0583 20.5981 53.169C21.4202 53.4837 23.0911 53.7717 23.8694 53.8957V54.0216Z" fill="#FDCD09"/>
</g>
</g>
<defs>
<linearGradient id="paint0_linear_1422_35279" x1="64.125" y1="73.7548" x2="64.125" y2="58.1613" gradientUnits="userSpaceOnUse">
<stop/>
<stop offset="1" stop-opacity="0"/>
</linearGradient>
<linearGradient id="paint1_linear_1422_35279" x1="64.1257" y1="85.6861" x2="64.1257" y2="59.7183" gradientUnits="userSpaceOnUse">
<stop stop-color="#1602FF"/>
<stop offset="1" stop-color="#0094FF" stop-opacity="0"/>
</linearGradient>
<linearGradient id="paint2_linear_1422_35279" x1="55.4954" y1="50.9246" x2="86.992" y2="64.9772" gradientUnits="userSpaceOnUse">
<stop stop-color="#81D000"/>
<stop offset="0.17" stop-color="#FF9900"/>
<stop offset="0.405" stop-color="#FF5C00"/>
<stop offset="0.6" stop-color="#F648A6"/>
<stop offset="0.825" stop-color="#9934FF"/>
<stop offset="1" stop-color="#00B3FF"/>
</linearGradient>
<linearGradient id="paint3_linear_1422_35279" x1="76.6319" y1="110.078" x2="108.414" y2="88.0339" gradientUnits="userSpaceOnUse">
<stop stop-color="#00FFFF" stop-opacity="0"/>
<stop offset="1" stop-color="#68FFFF"/>
</linearGradient>
<linearGradient id="paint4_linear_1422_35279" x1="81.1921" y1="96.9188" x2="94.2261" y2="88.9355" gradientUnits="userSpaceOnUse">
<stop/>
<stop offset="1" stop-opacity="0"/>
</linearGradient>
<linearGradient id="paint5_linear_1422_35279" x1="51.6186" y1="110.078" x2="19.8365" y2="88.0339" gradientUnits="userSpaceOnUse">
<stop stop-color="#00FFFF" stop-opacity="0"/>
<stop offset="1" stop-color="#68FFFF"/>
</linearGradient>
<linearGradient id="paint6_linear_1422_35279" x1="47.0584" y1="96.9188" x2="34.0244" y2="88.9355" gradientUnits="userSpaceOnUse">
<stop/>
<stop offset="1" stop-opacity="0"/>
</linearGradient>
<linearGradient id="paint7_linear_1422_35279" x1="71.0541" y1="108.276" x2="73.9671" y2="87.8769" gradientUnits="userSpaceOnUse">
<stop stop-color="#00FFFF" stop-opacity="0"/>
<stop offset="1" stop-color="#68FFFF"/>
</linearGradient>
<linearGradient id="paint8_linear_1422_35279" x1="64.2587" y1="108.276" x2="71.2046" y2="88.9924" gradientUnits="userSpaceOnUse">
<stop/>
<stop offset="1" stop-opacity="0"/>
</linearGradient>
</defs>
</svg>
