<svg width="49" height="49" viewBox="0 0 49 49" fill="none" xmlns="http://www.w3.org/2000/svg">
<g filter="url(#filter0_di_528_7100)">
<circle cx="24.0762" cy="20.5" r="19.5" fill="#9225FF" stroke="#A346FF"/>
<path d="M13.352 17.2559C13.4827 14.2019 15.9999 11.7661 19.0861 11.7661H29.0676C32.1537 11.7661 34.671 14.2019 34.8016 17.2559H13.352Z" fill="white"/>
<path fill-rule="evenodd" clip-rule="evenodd" d="M34.8069 18.7532V23.4944C34.8069 26.6642 32.2373 29.2338 29.0676 29.2338H19.0861C15.9163 29.2338 13.3467 26.6642 13.3467 23.4944V18.7532H34.8069ZM18.0879 23.2449C17.6745 23.2449 17.3393 23.58 17.3393 23.9935C17.3393 24.4069 17.6745 24.7421 18.0879 24.7421H23.0787C23.4921 24.7421 23.8273 24.4069 23.8273 23.9935C23.8273 23.58 23.4921 23.2449 23.0787 23.2449H18.0879Z" fill="white"/>
</g>
<defs>
<filter id="filter0_di_528_7100" x="0.0761719" y="0.5" width="48" height="48" filterUnits="userSpaceOnUse" color-interpolation-filters="sRGB">
<feFlood flood-opacity="0" result="BackgroundImageFix"/>
<feColorMatrix in="SourceAlpha" type="matrix" values="0 0 0 0 0 0 0 0 0 0 0 0 0 0 0 0 0 0 127 0" result="hardAlpha"/>
<feOffset dy="4"/>
<feGaussianBlur stdDeviation="2"/>
<feComposite in2="hardAlpha" operator="out"/>
<feColorMatrix type="matrix" values="0 0 0 0 0.572549 0 0 0 0 0.145098 0 0 0 0 1 0 0 0 0.2 0"/>
<feBlend mode="normal" in2="BackgroundImageFix" result="effect1_dropShadow_528_7100"/>
<feBlend mode="normal" in="SourceGraphic" in2="effect1_dropShadow_528_7100" result="shape"/>
<feColorMatrix in="SourceAlpha" type="matrix" values="0 0 0 0 0 0 0 0 0 0 0 0 0 0 0 0 0 0 127 0" result="hardAlpha"/>
<feOffset dy="2"/>
<feGaussianBlur stdDeviation="1"/>
<feComposite in2="hardAlpha" operator="arithmetic" k2="-1" k3="1"/>
<feColorMatrix type="matrix" values="0 0 0 0 0.639216 0 0 0 0 0.27451 0 0 0 0 1 0 0 0 1 0"/>
<feBlend mode="normal" in2="shape" result="effect2_innerShadow_528_7100"/>
</filter>
</defs>
</svg>
