<svg width="41" height="40" viewBox="0 0 41 40" fill="none" xmlns="http://www.w3.org/2000/svg">
<circle cx="20.5762" cy="20" r="19.5" fill="#9225FF" stroke="#A346FF"/>
<path d="M9.85201 16.7559C9.98265 13.7019 12.4999 11.2661 15.5861 11.2661H25.5676C28.6537 11.2661 31.171 13.7019 31.3016 16.7559H9.85201Z" fill="white"/>
<path fill-rule="evenodd" clip-rule="evenodd" d="M31.3069 18.2532V22.9944C31.3069 26.1642 28.7373 28.7338 25.5676 28.7338H15.5861C12.4163 28.7338 9.84668 26.1642 9.84668 22.9944V18.2532H31.3069ZM14.5879 22.7449C14.1745 22.7449 13.8393 23.08 13.8393 23.4935C13.8393 23.9069 14.1745 24.2421 14.5879 24.2421H19.5787C19.9921 24.2421 20.3273 23.9069 20.3273 23.4935C20.3273 23.08 19.9921 22.7449 19.5787 22.7449H14.5879Z" fill="white"/>
</svg>
