<svg width="24" height="25" viewBox="0 0 24 25" fill="none" xmlns="http://www.w3.org/2000/svg">
<rect y="0.736328" width="24" height="24" rx="6" fill="#7E8399"/>
<path fill-rule="evenodd" clip-rule="evenodd" d="M13.1594 5.90293C13.1594 5.25863 12.6371 4.73633 11.9928 4.73633C11.3485 4.73633 10.8262 5.25863 10.8262 5.90293V6.73383H10.5533C8.75032 6.73383 7.375 8.25008 7.375 10.0055C7.375 10.805 7.55017 11.5168 8.00067 12.0915C8.44036 12.6523 9.02687 12.9315 9.52069 13.1065L13.703 14.5594C14.0258 14.6742 14.1231 14.7628 14.1629 14.8135C14.192 14.8507 14.2917 14.9944 14.2917 15.46C14.2917 16.0274 13.8626 16.3985 13.4465 16.3985H10.8437C10.2653 16.3985 9.70821 15.8965 9.70821 15.1489C9.70821 14.5046 9.1859 13.9823 8.5416 13.9823C7.89731 13.9823 7.375 14.5046 7.375 15.1489C7.375 17.0729 8.86505 18.725 10.8317 18.7317V19.5697C10.8317 20.214 11.354 20.7363 11.9983 20.7363C12.6426 20.7363 13.1649 20.214 13.1649 19.5697V18.7317H13.4465C15.2496 18.7317 16.6249 17.2155 16.6249 15.46C16.6249 14.6605 16.4497 13.9488 15.9992 13.3741C15.5595 12.8132 14.973 12.5341 14.4792 12.3591L10.2969 10.9062C9.9741 10.7914 9.87673 10.7028 9.83694 10.652C9.80784 10.6149 9.70821 10.4711 9.70821 10.0055C9.70821 9.4381 10.1372 9.06704 10.5533 9.06704H13.1562C13.7345 9.06704 14.2917 9.56907 14.2917 10.3166C14.2917 10.9609 14.814 11.4832 15.4583 11.4832C16.1026 11.4832 16.6249 10.9609 16.6249 10.3166C16.6249 8.38978 15.1304 6.73565 13.1594 6.73383V5.90293Z" fill="white"/>
</svg>
