<svg width="100" height="122" viewBox="0 0 100 122" fill="none" xmlns="http://www.w3.org/2000/svg">
<g clip-path="url(#clip0_1318_23180)">
<rect x="8.83301" y="0.297852" width="69.4035" height="121.404" rx="7.85431" fill="url(#paint0_linear_1318_23180)"/>
<path d="M10.376 17.2327C10.376 12.8949 13.8925 9.37842 18.2303 9.37842H68.8395C73.1773 9.37842 76.6938 12.8949 76.6938 17.2327V121.702H10.376V17.2327Z" fill="url(#paint1_linear_1318_23180)"/>
<rect x="34.3564" y="12.0923" width="18.3581" height="2.63965" rx="1.31983" fill="#718CB5"/>
<rect x="12.6475" y="24.4316" width="61.7754" height="33.2444" rx="2.24409" fill="url(#paint2_linear_1318_23180)"/>
<rect x="12.6475" y="71.6606" width="61.7754" height="52.747" rx="2.24409" fill="url(#paint3_linear_1318_23180)"/>
<rect x="65.4502" y="14.375" width="7.47682" height="2.63965" rx="1.31983" fill="#718CB5"/>
<rect x="15.459" y="14.375" width="7.47682" height="2.63965" rx="1.31983" fill="#718CB5"/>
<rect x="15.3594" y="77.6543" width="11.3997" height="11.3936" rx="5.69678" fill="#718CB5" fill-opacity="0.33"/>
<rect x="15.3594" y="91.6143" width="11.3997" height="11.3936" rx="5.69678" fill="#718CB5" fill-opacity="0.33"/>
<rect x="15.3594" y="105.574" width="11.3997" height="11.3936" rx="5.69678" fill="#718CB5" fill-opacity="0.33"/>
<rect x="34.3564" y="12.0923" width="18.3581" height="2.63965" rx="1.31983" fill="#718CB5"/>
<rect x="29.2539" y="79.6509" width="18.3581" height="4.31669" rx="2.15835" fill="#718CB5" fill-opacity="0.33"/>
<rect x="15.998" y="32.2617" width="36.7163" height="8.79227" rx="4.39613" fill="#718CB5" fill-opacity="0.51"/>
<rect x="29.2539" y="92.6123" width="18.3581" height="4.31669" rx="2.15835" fill="#718CB5" fill-opacity="0.33"/>
<rect x="29.2539" y="106.572" width="18.3581" height="4.31669" rx="2.15835" fill="#718CB5" fill-opacity="0.33"/>
<rect x="29.2539" y="84.7305" width="11.785" height="4.31669" rx="2.15835" fill="#718CB5" fill-opacity="0.33"/>
<rect x="29.2539" y="97.6924" width="11.785" height="4.31669" rx="2.15835" fill="#718CB5" fill-opacity="0.33"/>
<rect x="29.2539" y="111.652" width="11.785" height="4.31669" rx="2.15835" fill="#718CB5" fill-opacity="0.33"/>
<rect x="36.9658" y="15.6953" width="13.1396" height="2.63965" rx="1.31983" fill="#718CB5"/>
</g>
<circle cx="63.2779" cy="61.0006" r="26.7301" fill="#E82F45"/>
<circle cx="63.2779" cy="61.0006" r="26.7301" fill="url(#paint4_linear_1318_23180)" fill-opacity="0.38"/>
<circle cx="63.2779" cy="61.0006" r="26.7301" fill="url(#paint5_linear_1318_23180)" fill-opacity="0.33"/>
<path d="M78.2363 51.3574L69.7861 59.8076" stroke="white" stroke-width="3.3226" stroke-linecap="round"/>
<path d="M78.2363 59.8071L69.7861 51.3569" stroke="white" stroke-width="3.3226" stroke-linecap="round"/>
<path d="M56.7676 51.3574L48.3174 59.8076" stroke="white" stroke-width="3.3226" stroke-linecap="round"/>
<path d="M56.7676 59.8071L48.3174 51.3569" stroke="white" stroke-width="3.3226" stroke-linecap="round"/>
<path d="M71.5947 74.043C67.0012 69.4494 59.5535 69.4494 54.96 74.043" stroke="white" stroke-width="3.3226" stroke-linecap="round"/>
<defs>
<linearGradient id="paint0_linear_1318_23180" x1="50.2745" y1="121.698" x2="93.506" y2="55.5095" gradientUnits="userSpaceOnUse">
<stop stop-color="#CDD4DF"/>
<stop offset="1" stop-color="white"/>
</linearGradient>
<linearGradient id="paint1_linear_1318_23180" x1="43.5349" y1="121.702" x2="87.181" y2="62.3695" gradientUnits="userSpaceOnUse">
<stop stop-color="white"/>
<stop offset="1" stop-color="#A0B0C9"/>
</linearGradient>
<linearGradient id="paint2_linear_1318_23180" x1="43.5352" y1="24.4316" x2="43.5352" y2="57.676" gradientUnits="userSpaceOnUse">
<stop stop-color="white"/>
<stop offset="1" stop-color="white" stop-opacity="0.28"/>
</linearGradient>
<linearGradient id="paint3_linear_1318_23180" x1="43.5352" y1="2.64158" x2="43.5352" y2="124.408" gradientUnits="userSpaceOnUse">
<stop stop-color="white"/>
<stop offset="1" stop-color="white" stop-opacity="0.28"/>
</linearGradient>
<linearGradient id="paint4_linear_1318_23180" x1="68.4694" y1="87.7287" x2="82.0954" y2="51.2365" gradientUnits="userSpaceOnUse">
<stop stop-color="#C09048" stop-opacity="0"/>
<stop offset="1" stop-color="#FFE500"/>
</linearGradient>
<linearGradient id="paint5_linear_1318_23180" x1="63.2779" y1="87.7287" x2="80.8955" y2="69.0232" gradientUnits="userSpaceOnUse">
<stop stop-color="#460B0B"/>
<stop offset="1" stop-color="#700000" stop-opacity="0"/>
</linearGradient>
<clipPath id="clip0_1318_23180">
<path d="M8.83301 8.29785C8.83301 3.87957 12.4147 0.297852 16.833 0.297852H70.2365C74.6548 0.297852 78.2365 3.87957 78.2365 8.29785V121.702H8.83301V8.29785Z" fill="white"/>
</clipPath>
</defs>
</svg>
