<svg width="41" height="40" viewBox="0 0 41 40" fill="none" xmlns="http://www.w3.org/2000/svg">
<rect x="-0.5" y="-0.5" width="39" height="39" rx="19.5" transform="matrix(1.19249e-08 -1 -1 -1.19249e-08 39.5 39)" fill="#34C759" stroke="#57DD6F"/>
<path fill-rule="evenodd" clip-rule="evenodd" d="M21.9998 24.3791L25.4393 20.9395C26.0251 20.3537 26.9749 20.3537 27.5607 20.9395C28.1464 21.5253 28.1464 22.475 27.5607 23.0608L22.2678 28.3537C21.2915 29.33 19.7085 29.33 18.7322 28.3537L13.4393 23.0608C12.8536 22.475 12.8536 21.5253 13.4393 20.9395C14.0251 20.3537 14.9749 20.3537 15.5607 20.9395L18.9998 24.3786L18.9998 12.0001C18.9998 11.1717 19.6713 10.5001 20.4998 10.5001C21.3282 10.5001 21.9998 11.1717 21.9998 12.0001L21.9998 24.3791Z" fill="white"/>
</svg>
