<svg width="41" height="40" viewBox="0 0 41 40" fill="none" xmlns="http://www.w3.org/2000/svg">
<circle cx="20.7999" cy="20" r="19.5" fill="#008EFF" stroke="#279FFF"/>
<path fill-rule="evenodd" clip-rule="evenodd" d="M22.912 15.8432L18.0477 15.8432C17.2192 15.8432 16.5477 15.1716 16.5477 14.3432C16.5477 13.5147 17.2192 12.8432 18.0477 12.8432L25.5329 12.8432C26.9136 12.8432 28.0329 13.9625 28.0329 15.3432L28.0329 22.8284C28.0329 23.6569 27.3614 24.3284 26.5329 24.3284C25.7045 24.3284 25.0329 23.6569 25.0329 22.8284L25.0329 17.9648L16.28 26.7177C15.6942 27.3035 14.7445 27.3035 14.1587 26.7177C13.5729 26.132 13.5729 25.1822 14.1587 24.5964L22.912 15.8432Z" fill="white"/>
</svg>
