
<svg width="40" height="41" viewBox="0 0 40 41" fill="none" xmlns="http://www.w3.org/2000/svg">
<circle cx="20" cy="20.7197" r="20" fill="white"/>
<path fill-rule="evenodd" clip-rule="evenodd" d="M17.3552 10.2977C18.2021 10.0834 19.0883 9.96973 20 9.96973C20.9118 9.96973 21.7981 10.0834 22.645 10.2977C23.3362 10.4726 23.6931 11.0696 23.8079 11.5658C23.9439 12.1535 24.3128 12.683 24.8751 13.0077C25.3922 13.3062 25.9768 13.3764 26.5159 13.2492C27.0114 13.1324 27.7033 13.1881 28.1663 13.7284C29.0272 14.7331 29.7063 15.8991 30.1518 17.1754C30.4178 17.9374 30.0057 18.6235 29.5705 18.9821C29.0682 19.396 28.75 20.0204 28.75 20.7197C28.75 21.4191 29.0682 22.0435 29.5705 22.4574C30.0057 22.8159 30.4178 23.5021 30.1518 24.264C29.7063 25.5402 29.0273 26.7061 28.1666 27.7107C27.7035 28.2511 27.0116 28.3068 26.516 28.1899C25.9768 28.0627 25.3922 28.1328 24.8751 28.4314C24.3126 28.7561 23.9438 29.2857 23.8078 29.8736C23.693 30.3698 23.3361 30.9668 22.6449 31.1418C21.798 31.3561 20.9117 31.4697 20 31.4697C19.0884 31.4697 18.2022 31.3561 17.3553 31.1418C16.664 30.9669 16.3071 30.3698 16.1924 29.8736C16.0564 29.2857 15.6875 28.7561 15.1251 28.4314C14.6079 28.1328 14.0233 28.0627 13.4841 28.1899C12.9885 28.3068 12.2965 28.2512 11.8335 27.7107C10.9727 26.7061 10.2938 25.5402 9.84824 24.264C9.58222 23.5021 9.99438 22.8159 10.4295 22.4574C10.9319 22.0435 11.2501 21.4191 11.2501 20.7197C11.2501 20.0204 10.9319 19.3959 10.4295 18.9821C9.99438 18.6235 9.58222 17.9374 9.84824 17.1754C10.2938 15.8991 10.9729 14.7331 11.8338 13.7284C12.2968 13.188 12.9887 13.1324 13.4842 13.2492C14.0234 13.3764 14.608 13.3062 15.1251 13.0077C15.6874 12.683 16.0563 12.1535 16.1923 11.5657C16.3071 11.0695 16.664 10.4726 17.3552 10.2977ZM20 23.7197C18.3431 23.7197 17 22.3766 17 20.7197C17 19.0629 18.3431 17.7197 20 17.7197C21.6569 17.7197 23 19.0629 23 20.7197C23 22.3766 21.6569 23.7197 20 23.7197Z" fill="#7E8399"/>
</svg>
