<svg width="40" height="40" viewBox="0 0 45 45" fill="none" xmlns="http://www.w3.org/2000/svg">
<g id="Icon_Button" filter="url(#filter0_d_1307_8973)">
<rect x="4" y="1.71973" width="40" height="40" rx="20" fill="white" shape-rendering="crispEdges"/>
<circle id="Ellipse 811" cx="24" cy="21.7197" r="19.5" fill="white" stroke="#E0E4F5"/>
<path id="Vector" d="M32.3589 19.2926C32.1651 18.5833 31.8839 17.9105 31.5269 17.2857C31.3343 16.9484 31.3736 16.5267 31.6247 16.2293L32.1645 15.59C32.3444 15.3771 32.3311 15.0624 32.1338 14.8657L30.7158 13.4477C30.5191 13.251 30.2044 13.2377 29.9915 13.4171L29.3523 13.9568C29.0555 14.2073 28.6331 14.2473 28.2959 14.0546C27.6716 13.6976 26.9982 13.4159 26.2889 13.2227C25.9123 13.1197 25.6387 12.7946 25.6063 12.4052L25.5363 11.5721C25.5131 11.295 25.2812 11.0815 25.0029 11.0815H22.9971C22.7188 11.0815 22.4869 11.295 22.4637 11.5721L22.3937 12.4052C22.3607 12.7946 22.0877 13.1197 21.7111 13.2227C21.0018 13.4165 20.3289 13.6976 19.7041 14.0546C19.3669 14.2473 18.9451 14.2079 18.6477 13.9568L18.0085 13.4171C17.7956 13.2371 17.4809 13.2504 17.2842 13.4477L15.8662 14.8657C15.6695 15.0624 15.6562 15.3771 15.8355 15.59L16.3753 16.2293C16.6258 16.5261 16.6657 16.9484 16.4731 17.2857C16.1161 17.9099 15.8344 18.5833 15.6411 19.2926C15.5382 19.6692 15.213 19.9429 14.8237 19.9753L13.9906 20.0453C13.7135 20.0684 13.5 20.3004 13.5 20.5787V22.5844C13.5 22.8627 13.7135 23.0947 13.9906 23.1178L14.8237 23.1878C15.213 23.2208 15.5382 23.4939 15.6411 23.8705C15.8349 24.5798 16.1161 25.2526 16.4731 25.8774C16.6657 26.2147 16.6264 26.6364 16.3753 26.9338L15.8355 27.5731C15.6556 27.786 15.6689 28.1007 15.8662 28.2974L17.2842 29.7154C17.4809 29.9121 17.7956 29.9254 18.0085 29.746L18.6477 29.2063C18.9445 28.9558 19.3669 28.9158 19.7041 29.1085C20.3284 29.4654 21.0018 29.7472 21.7111 29.9404C22.0877 30.0434 22.3613 30.3685 22.3937 30.7579L22.4637 31.591C22.4869 31.8681 22.7188 32.0815 22.9971 32.0815H25.0029C25.2812 32.0815 25.5131 31.8681 25.5363 31.591L25.6063 30.7579C25.6393 30.3685 25.9123 30.0434 26.2889 29.9404C26.9982 29.7466 27.6711 29.4654 28.2959 29.1085C28.6331 28.9158 29.0549 28.9552 29.3523 29.2063L29.9915 29.746C30.2044 29.9259 30.5191 29.9126 30.7158 29.7154L32.1338 28.2974C32.3305 28.1007 32.3438 27.786 32.1645 27.5731L31.6247 26.9338C31.3742 26.637 31.3343 26.2147 31.5269 25.8774C31.8839 25.2532 32.1656 24.5798 32.3589 23.8705C32.4618 23.4939 32.787 23.2202 33.1763 23.1878L34.0094 23.1178C34.2865 23.0947 34.5 22.8627 34.5 22.5844V20.5787C34.5 20.3004 34.2865 20.0684 34.0094 20.0453L33.1763 19.9753C32.787 19.9423 32.4618 19.6692 32.3589 19.2926ZM23.9997 26.9679C21.0255 26.9679 18.6142 24.5566 18.6142 21.5824C18.6142 18.6082 21.0255 16.1969 23.9997 16.1969C26.9739 16.1969 29.3852 18.6082 29.3852 21.5824C29.3852 24.5566 26.9739 26.9679 23.9997 26.9679Z" fill="#6A6E81"/>
</g>
<defs>
<filter id="filter0_d_1307_8973" x="0.3" y="0.0197265" width="47.4" height="47.4" filterUnits="userSpaceOnUse" color-interpolation-filters="sRGB">
<feFlood flood-opacity="0" result="BackgroundImageFix"/>
<feColorMatrix in="SourceAlpha" type="matrix" values="0 0 0 0 0 0 0 0 0 0 0 0 0 0 0 0 0 0 127 0" result="hardAlpha"/>
<feOffset dy="2"/>
<feGaussianBlur stdDeviation="1.85"/>
<feComposite in2="hardAlpha" operator="out"/>
<feColorMatrix type="matrix" values="0 0 0 0 0.885858 0 0 0 0 0.895857 0 0 0 0 0.943359 0 0 0 1 0"/>
<feBlend mode="normal" in2="BackgroundImageFix" result="effect1_dropShadow_1307_8973"/>
<feBlend mode="normal" in="SourceGraphic" in2="effect1_dropShadow_1307_8973" result="shape"/>
</filter>
</defs>
</svg>
