<svg width="40" height="40" viewBox="0 0 40 41" fill="none" xmlns="http://www.w3.org/2000/svg">
<g id="Settings-40">
<circle id="Ellipse 811" cx="20" cy="20.5" r="20" fill="white"/>
<g id="Icon">
<path d="M17.0897 28.6082L17.7422 30.0541C17.9362 30.4845 18.2528 30.8502 18.6535 31.1069C19.0543 31.3635 19.522 31.5001 20 31.5C20.478 31.5001 20.9457 31.3635 21.3465 31.1069C21.7472 30.8502 22.0638 30.4845 22.2578 30.0541L22.9103 28.6082C23.1425 28.0952 23.5333 27.6674 24.0267 27.386C24.5233 27.1038 25.0978 26.9836 25.668 27.0426L27.2645 27.21C27.7398 27.2595 28.2194 27.1722 28.6452 26.9585C29.0711 26.7448 29.4249 26.414 29.6637 26.0061C29.9028 25.5985 30.0167 25.1313 29.9916 24.6612C29.9665 24.191 29.8035 23.7382 29.5223 23.3576L28.577 22.0779C28.2404 21.6188 28.0605 21.0663 28.0634 20.5C28.0633 19.9352 28.2448 19.385 28.5819 18.9282L29.5272 17.6486C29.8084 17.2679 29.9715 16.8151 29.9966 16.3449C30.0217 15.8748 29.9078 15.4076 29.6686 15C29.4298 14.5922 29.076 14.2613 28.6502 14.0477C28.2243 13.834 27.7447 13.7466 27.2695 13.7961L25.6729 13.9636C25.1028 14.0225 24.5283 13.9023 24.0317 13.6201C23.5372 13.3371 23.1464 12.9071 22.9152 12.3918L22.2578 10.9459C22.0638 10.5155 21.7472 10.1498 21.3465 9.89314C20.9457 9.63649 20.478 9.49992 20 9.5C19.522 9.49992 19.0543 9.63649 18.6535 9.89314C18.2528 10.1498 17.9362 10.5155 17.7422 10.9459L17.0897 12.3918C16.8585 12.9071 16.4677 13.3371 15.9733 13.6201C15.4767 13.9023 14.9022 14.0225 14.332 13.9636L12.7305 13.7961C12.2553 13.7466 11.7757 13.834 11.3498 14.0477C10.924 14.2613 10.5702 14.5922 10.3314 15C10.0922 15.4076 9.97831 15.8748 10.0034 16.3449C10.0285 16.8151 10.1916 17.2679 10.4728 17.6486L11.4181 18.9282C11.7552 19.385 11.9367 19.9352 11.9366 20.5C11.9367 21.0648 11.7552 21.615 11.4181 22.0718L10.4728 23.3514C10.1916 23.7321 10.0285 24.1849 10.0034 24.6551C9.97831 25.1252 10.0922 25.5924 10.3314 26C10.5704 26.4076 10.9242 26.7383 11.35 26.9519C11.7758 27.1656 12.2553 27.2531 12.7305 27.2039L14.3271 27.0364C14.8972 26.9775 15.4717 27.0977 15.9683 27.3799C16.4646 27.6621 16.8572 28.0922 17.0897 28.6082Z" stroke="#444651" stroke-width="2" stroke-linecap="round" stroke-linejoin="round"/>
<path d="M19.998 23.8C21.8478 23.8 23.3474 22.3225 23.3474 20.5C23.3474 18.6775 21.8478 17.2 19.998 17.2C18.1482 17.2 16.6486 18.6775 16.6486 20.5C16.6486 22.3225 18.1482 23.8 19.998 23.8Z" stroke="#444651" stroke-width="2" stroke-linecap="round" stroke-linejoin="round"/>
</g>
</g>
</svg>
