<svg width="128" height="129" viewBox="0 0 128 129" fill="none" xmlns="http://www.w3.org/2000/svg">
<g id="Frame 47838">
<g id="Group 2321">
<g id="Group 2319">
<g id="Vector 150">
<path d="M18.6733 57.0955V58.9938V92.963L109.326 92.9247V61.588V57.0528C109.326 56.7377 109.178 56.4411 108.926 56.2522L66.1492 24.2298C65.0898 23.4367 63.6358 23.4315 62.5708 24.217L19.0798 56.2907C18.8242 56.4792 18.6733 56.7779 18.6733 57.0955Z" fill="#4A4FCD"/>
<path d="M18.6733 57.0955V58.9938V92.963L109.326 92.9247V61.588V57.0528C109.326 56.7377 109.178 56.4411 108.926 56.2522L66.1492 24.2298C65.0898 23.4367 63.6358 23.4315 62.5708 24.217L19.0798 56.2907C18.8242 56.4792 18.6733 56.7779 18.6733 57.0955Z" fill="url(#paint0_linear_1259_10444)" fill-opacity="0.36"/>
</g>
<g id="Rectangle 3625">
<path d="M26.5127 31.6548C26.5127 31.3786 26.7366 31.1548 27.0127 31.1548H100.988C101.265 31.1548 101.488 31.3786 101.488 31.6548V88.91H26.5127V31.6548Z" fill="white"/>
<path d="M26.5127 31.6548C26.5127 31.3786 26.7366 31.1548 27.0127 31.1548H100.988C101.265 31.1548 101.488 31.3786 101.488 31.6548V88.91H26.5127V31.6548Z" fill="url(#paint1_linear_1259_10444)" fill-opacity="0.2"/>
<path d="M26.5127 31.6548C26.5127 31.3786 26.7366 31.1548 27.0127 31.1548H100.988C101.265 31.1548 101.488 31.3786 101.488 31.6548V88.91H26.5127V31.6548Z" stroke="#E2E7EA"/>
</g>
<path id="Union" fill-rule="evenodd" clip-rule="evenodd" d="M69.3475 66.2151C68.6015 66.2151 67.9233 66.0343 67.313 65.6726C66.4248 65.126 65.6785 64.2439 65.0743 63.114C64.6589 63.81 64.2276 64.4509 63.7589 64.9717C62.945 65.8986 61.973 66.5089 60.6844 66.5089C60.0514 66.5089 59.5089 66.3733 59.0115 66.0794C58.0621 65.5369 57.3387 64.5874 56.8413 63.3893L56.8246 63.3441C55.977 63.8562 55.0335 64.1123 54.1201 64.1123C52.5377 64.1123 51.1361 63.5019 50.1188 62.5525C50.0154 62.456 49.9163 62.3558 49.8215 62.2521C49.1171 62.719 48.1883 62.8913 47.3406 62.8913C45.2834 62.8913 44.3791 61.3541 43.8592 59.5908C43.7816 59.3375 43.7077 59.0681 43.6332 58.7965C43.2954 57.565 42.9457 56.2902 42.1863 56.2902C41.7116 56.2902 40.9429 56.8554 40.536 57.6466C39.9709 58.6865 39.6544 60.2689 39.6544 61.1054C39.6544 61.2094 39.6843 61.4498 39.7212 61.7462C39.7805 62.2226 39.8578 62.8436 39.8578 63.2756C39.8578 63.999 39.2023 64.3381 38.4336 64.3381C37.7328 64.3381 37.5068 64.0894 37.3937 63.4791C37.2355 62.6652 37.2129 61.8966 37.2129 61.0376C37.2129 60.8662 37.2289 60.6306 37.2475 60.358C37.251 60.3069 37.2545 60.2546 37.2581 60.2011L37.5294 57.0814L37.7102 54.4817C37.8233 52.4697 37.9589 49.8926 38.0493 46.5469C38.0719 45.8687 38.4336 45.6652 38.9988 45.6652C40.2648 45.6652 40.423 46.1852 40.423 47.4059C40.423 49.1014 40.3778 50.4578 40.2874 51.6107C40.2819 51.6813 40.2762 51.7555 40.2703 51.8325C40.202 52.7162 40.1047 53.9763 40.0839 54.6626C40.1401 54.6277 40.1956 54.5928 40.2508 54.5582C40.8387 54.1889 41.3802 53.8487 42.1863 53.8487C42.9323 53.8487 43.5427 54.007 43.9948 54.3235C44.9217 54.9791 45.4416 56.0189 45.7355 57.1493C45.8711 57.7144 46.0068 58.2344 46.1424 58.7317C46.3911 59.7264 46.685 60.4498 47.3406 60.4498C47.8495 60.4498 48.2485 60.1826 48.5767 59.9627C48.5882 59.955 48.5995 59.9474 48.6108 59.9399C48.5322 59.5867 48.4911 59.2204 48.4911 58.845C48.4911 56.8331 49.5988 54.6402 52.1533 54.6402C54.0749 54.6402 55.0696 55.974 55.0696 57.5339C55.0696 58.9581 54.0749 60.4953 52.8767 61.3543C53.3289 61.6482 53.6002 61.6708 54.1201 61.6708C54.8836 61.6708 55.5529 61.4071 56.0936 60.7938C55.8748 59.7208 55.7438 58.6575 55.6884 57.7151C55.5754 56.2004 55.5075 54.6406 55.5075 53.1938C55.5075 51.4983 55.6432 49.9611 56.1179 48.8534C56.5926 47.723 57.3839 47.0448 58.695 47.0448C61.2496 47.0448 61.5887 50.0289 61.5887 52.5382V52.5383C61.5887 53.3973 61.5887 54.1433 61.5434 54.7988C61.4982 56.0874 61.3626 57.0595 61.1365 57.8733C61.0235 58.2802 60.8879 58.6645 60.707 59.0488C60.3541 59.8208 59.8506 60.5927 59.1965 61.5955L59.1472 61.6712C59.3958 62.9371 59.6219 64.0448 60.6844 64.0448C61.8147 64.0448 63.0355 61.9425 63.8267 60.36C63.8687 60.2662 63.9159 60.1835 63.9667 60.1107C63.8948 59.8158 63.8282 59.5149 63.7638 59.2072C63.4473 57.6925 63.289 56.0649 63.289 54.4824C63.289 54.0077 63.3116 53.5556 63.3342 53.1034C63.4473 50.775 63.7864 48.763 64.4193 47.3614C65.0523 45.9598 65.934 45.146 67.1999 45.146C69.3249 45.146 70.0031 47.8135 69.8675 50.4133C69.664 54.4372 69.2797 57.5343 67.2225 61.0609C67.426 62.5303 68.2624 63.7737 69.4154 63.7737C70.9195 63.7737 71.613 62.8529 72.4082 61.7971C72.7962 61.282 73.2083 60.7347 73.7507 60.2466C74.0009 58.1881 75.2908 56.3128 77.3844 56.3128C79.8711 56.3128 81.0467 58.5056 81.4536 59.9976C82.0413 60.2689 82.7874 60.4724 83.4882 60.4724C84.1437 60.4724 84.7541 60.2915 85.1384 59.862C85.2929 59.6882 85.5462 59.6958 85.7437 59.7018L85.7437 59.7018C85.7774 59.7028 85.8095 59.7037 85.8392 59.7037C86.4496 59.749 87.0148 60.2915 87.0148 60.9471C87.0148 61.2862 86.8565 61.5349 86.54 61.8287C85.6132 62.62 84.7315 62.9365 83.7142 62.9365C83.0586 62.9365 82.3352 62.8008 81.4988 62.5748C80.9562 64.4737 80.1198 66.5535 77.7461 66.5535C76.2089 66.5535 75.1238 65.8979 74.4682 64.7902C74.2888 64.4938 74.1391 64.1625 74.0198 63.8008C73.8711 63.9499 73.715 64.0996 73.5523 64.2484C73.168 64.6101 72.7611 64.9266 72.309 65.2205C71.4273 65.8082 70.41 66.2151 69.3475 66.2151ZM65.8331 54.4643L65.8331 54.4644C65.8418 54.7083 65.854 55.0521 65.8662 55.6128C65.8662 56.0649 65.8888 56.4718 65.9114 56.8787C65.9566 57.6473 66.0244 58.3029 66.0922 58.7098C66.6037 57.7721 66.9344 55.1066 67.141 53.4406L67.1773 53.1487C67.2451 52.6287 67.3356 51.5888 67.4034 50.5715C67.4034 50.5407 67.406 50.489 67.4095 50.4207C67.4162 50.2885 67.426 50.0944 67.426 49.8707C67.426 48.9891 67.3582 47.5875 67.0643 47.5875C66.2279 47.5875 66.0018 50.2098 65.9114 51.7923C65.8938 52.1795 65.8792 52.4905 65.8673 52.7449L65.8671 52.7502L65.8669 52.7542L65.8668 52.7561C65.8332 53.4732 65.8209 53.7353 65.8209 53.9851C65.8209 54.1204 65.8257 54.2557 65.8331 54.4638L65.8331 54.4643ZM87.3366 59.2519C87.3366 60.3144 88.1504 60.8117 88.9868 60.8117C88.9868 60.7891 89.0094 60.7891 89.0094 60.7891C90.0683 60.5244 90.1308 58.7887 90.1891 57.1696C90.2005 56.8531 90.2117 56.541 90.2302 56.2452C90.2528 55.4992 90.3884 54.1428 90.4788 53.2838C90.5693 52.1761 90.6597 50.9553 90.6597 49.5085C90.6597 48.7399 90.6371 48.0391 90.524 47.4061C90.411 46.841 90.0719 46.5245 89.2355 46.5245C88.6477 46.5245 88.3538 46.841 88.3312 47.2479C88.305 47.8238 88.2637 48.0056 88.2072 48.2541C88.1661 48.4348 88.1171 48.6507 88.06 49.079C87.9921 49.5537 87.9017 50.3449 87.7887 51.7918L87.7403 52.5506C87.6523 53.9278 87.5328 55.7986 87.3818 58.3476L87.3366 59.2519ZM88.6703 62.0551C87.6756 62.0551 86.7036 62.688 86.7036 63.7957C86.7036 64.9261 87.5626 65.0391 88.3764 65.0391H88.399C90.0041 65.0391 90.3432 64.5192 90.3432 63.434C90.3432 62.575 89.665 62.0551 88.6703 62.0551ZM77.5427 64.1346C76.5706 64.1346 76.0959 62.7556 76.0959 61.467C76.0959 60.8341 76.2089 60.2011 76.435 59.7716C76.3898 59.8846 76.3898 59.975 76.3898 60.0881C76.3898 61.0149 77.7687 61.8514 78.9669 62.0548C78.8312 63.2303 78.2435 64.1346 77.5427 64.1346ZM58.3107 58.3706C58.0621 57.6925 57.9942 55.0927 57.9942 53.6911C57.9942 52.7869 58.0395 49.4863 58.695 49.4863C59.0567 49.4863 59.1246 51.6339 59.1246 52.5156C59.1246 54.731 58.9211 57.489 58.3107 58.3706ZM50.9552 58.845C50.9552 59.1163 51.0004 59.3876 51.0682 59.6589C51.7238 59.2745 52.6281 58.1894 52.6281 57.5339C52.6281 57.3756 52.6055 57.0817 52.1533 57.0817C51.2491 57.0817 50.9552 57.9634 50.9552 58.845Z" fill="url(#paint2_linear_1259_10444)"/>
<g id="Vector 151">
<path d="M20.6469 105.436L109.327 60.0322V104.381C109.327 105.486 108.431 106.381 107.327 106.381H20.8748C20.3498 106.381 20.1796 105.675 20.6469 105.436Z" fill="#666CFF"/>
<path d="M20.6469 105.436L109.327 60.0322V104.381C109.327 105.486 108.431 106.381 107.327 106.381H20.8748C20.3498 106.381 20.1796 105.675 20.6469 105.436Z" fill="url(#paint3_linear_1259_10444)" fill-opacity="0.2"/>
<path d="M20.6469 105.436L109.327 60.0322V104.381C109.327 105.486 108.431 106.381 107.327 106.381H20.8748C20.3498 106.381 20.1796 105.675 20.6469 105.436Z" fill="url(#paint4_linear_1259_10444)" fill-opacity="0.2"/>
</g>
<g id="Vector 152">
<path d="M87.049 95.0404L18.6733 60.0322V104.381C18.6733 105.486 19.5688 106.381 20.6733 106.381H84.3146C90.615 106.381 92.657 97.9117 87.049 95.0404Z" fill="#666CFF"/>
<path d="M87.049 95.0404L18.6733 60.0322V104.381C18.6733 105.486 19.5688 106.381 20.6733 106.381H84.3146C90.615 106.381 92.657 97.9117 87.049 95.0404Z" fill="url(#paint5_linear_1259_10444)" fill-opacity="0.2"/>
<path d="M87.049 95.0404L18.6733 60.0322V104.381C18.6733 105.486 19.5688 106.381 20.6733 106.381H84.3146C90.615 106.381 92.657 97.9117 87.049 95.0404Z" fill="url(#paint6_linear_1259_10444)" fill-opacity="0.2"/>
</g>
<g id="Vector 153">
<path d="M63.3808 75.5455L23.2705 106.352H105.041L64.5959 75.5431C64.2367 75.2695 63.7388 75.2705 63.3808 75.5455Z" fill="#666CFF"/>
<path d="M63.3808 75.5455L23.2705 106.352H105.041L64.5959 75.5431C64.2367 75.2695 63.7388 75.2705 63.3808 75.5455Z" fill="url(#paint7_linear_1259_10444)" fill-opacity="0.2"/>
<path d="M63.3808 75.5455L23.2705 106.352H105.041L64.5959 75.5431C64.2367 75.2695 63.7388 75.2705 63.3808 75.5455Z" fill="url(#paint8_linear_1259_10444)" fill-opacity="0.1"/>
</g>
</g>
</g>
</g>
<defs>
<linearGradient id="paint0_linear_1259_10444" x1="63.9999" y1="66.0125" x2="63.9999" y2="47.7908" gradientUnits="userSpaceOnUse">
<stop/>
<stop offset="1" stop-opacity="0"/>
</linearGradient>
<linearGradient id="paint1_linear_1259_10444" x1="64.0006" y1="79.9544" x2="64.0006" y2="49.61" gradientUnits="userSpaceOnUse">
<stop stop-color="#1602FF"/>
<stop offset="1" stop-color="#0094FF" stop-opacity="0"/>
</linearGradient>
<linearGradient id="paint2_linear_1259_10444" x1="53.9156" y1="39.3338" x2="90.7207" y2="55.7549" gradientUnits="userSpaceOnUse">
<stop stop-color="#81D000"/>
<stop offset="0.17" stop-color="#FF9900"/>
<stop offset="0.405" stop-color="#FF5C00"/>
<stop offset="0.6" stop-color="#F648A6"/>
<stop offset="0.825" stop-color="#9934FF"/>
<stop offset="1" stop-color="#00B3FF"/>
</linearGradient>
<linearGradient id="paint3_linear_1259_10444" x1="78.6145" y1="108.457" x2="115.753" y2="82.6975" gradientUnits="userSpaceOnUse">
<stop stop-color="#00FFFF" stop-opacity="0"/>
<stop offset="1" stop-color="#68FFFF"/>
</linearGradient>
<linearGradient id="paint4_linear_1259_10444" x1="83.9433" y1="93.0799" x2="99.1742" y2="83.7511" gradientUnits="userSpaceOnUse">
<stop/>
<stop offset="1" stop-opacity="0"/>
</linearGradient>
<linearGradient id="paint5_linear_1259_10444" x1="49.3855" y1="108.457" x2="12.2468" y2="82.6975" gradientUnits="userSpaceOnUse">
<stop stop-color="#00FFFF" stop-opacity="0"/>
<stop offset="1" stop-color="#68FFFF"/>
</linearGradient>
<linearGradient id="paint6_linear_1259_10444" x1="44.0567" y1="93.0799" x2="28.8258" y2="83.7511" gradientUnits="userSpaceOnUse">
<stop/>
<stop offset="1" stop-opacity="0"/>
</linearGradient>
<linearGradient id="paint7_linear_1259_10444" x1="72.0967" y1="106.351" x2="75.5007" y2="82.5141" gradientUnits="userSpaceOnUse">
<stop stop-color="#00FFFF" stop-opacity="0"/>
<stop offset="1" stop-color="#68FFFF"/>
</linearGradient>
<linearGradient id="paint8_linear_1259_10444" x1="64.1559" y1="106.351" x2="72.2725" y2="83.8177" gradientUnits="userSpaceOnUse">
<stop/>
<stop offset="1" stop-opacity="0"/>
</linearGradient>
</defs>
</svg>
