<svg width="24" height="25" viewBox="0 0 24 25" fill="none" xmlns="http://www.w3.org/2000/svg">
<g id="YouTube">
<rect y="0.208984" width="24" height="24" rx="6" fill="#FF3B30"/>
<path id="Vector" d="M19.9165 8.97948C19.9165 8.97948 19.7587 7.86567 19.2728 7.3766C18.6575 6.73293 17.9697 6.72977 17.6541 6.69191C15.395 6.52783 12.003 6.52783 12.003 6.52783H11.9967C11.9967 6.52783 8.6048 6.52783 6.34562 6.69191C6.03009 6.72977 5.34224 6.73293 4.72696 7.3766C4.24105 7.86567 4.08644 8.97948 4.08644 8.97948C4.08644 8.97948 3.92236 10.2889 3.92236 11.5952V12.8195C3.92236 14.1257 4.08328 15.4352 4.08328 15.4352C4.08328 15.4352 4.24105 16.549 4.7238 17.0381C5.33908 17.6817 6.14684 17.6597 6.50654 17.7291C7.8002 17.8521 11.9999 17.89 11.9999 17.89C11.9999 17.89 15.395 17.8837 17.6541 17.7228C17.9697 17.6849 18.6575 17.6817 19.2728 17.0381C19.7587 16.549 19.9165 15.4352 19.9165 15.4352C19.9165 15.4352 20.0774 14.1289 20.0774 12.8195V11.5952C20.0774 10.2889 19.9165 8.97948 19.9165 8.97948ZM10.3307 14.3056V9.76515L14.6945 12.0433L10.3307 14.3056Z" fill="white"/>
</g>
</svg>
