<svg width="width" height="height" viewBox="0 0 41 40" fill="none" xmlns="http://www.w3.org/2000/svg">
<g clip-path="url(#clip0_69_822)">
<circle cx="20.7999" cy="20" r="20" fill="#FF007A"/>
<path d="M20.798 13.4692C23.0377 13.4692 24.8533 12.4128 24.8533 11.1096C24.8533 9.80643 23.0377 8.75 20.798 8.75C18.5583 8.75 16.7426 9.80643 16.7426 11.1096C16.7426 12.4128 18.5583 13.4692 20.798 13.4692Z" fill="white"/>
<path d="M20.798 31.2484C23.0377 31.2484 24.8533 30.192 24.8533 28.8888C24.8533 27.5856 23.0377 26.5292 20.798 26.5292C18.5583 26.5292 16.7426 27.5856 16.7426 28.8888C16.7426 30.192 18.5583 31.2484 20.798 31.2484Z" fill="white"/>
<path d="M15.1466 16.7355C16.2664 14.795 16.2592 12.6934 15.1303 12.0414C14.0015 11.3894 12.1786 12.4338 11.0588 14.3743C9.93894 16.3147 9.94621 18.4163 11.075 19.0683C12.2038 19.7203 14.0267 18.6759 15.1466 16.7355Z" fill="white"/>
<path d="M30.5353 25.624C31.6551 23.6836 31.6485 21.5823 30.5205 20.9307C29.3924 20.2791 27.5701 21.324 26.4503 23.2644C25.3305 25.2048 25.3371 27.3061 26.4651 27.9576C27.5932 28.6092 29.4155 27.5644 30.5353 25.624Z" fill="white"/>
<path d="M15.1309 27.9571C16.2597 27.3051 16.267 25.2035 15.1471 23.2631C14.0273 21.3226 12.2044 20.2782 11.0756 20.9302C9.94678 21.5822 9.93951 23.6838 11.0594 25.6243C12.1792 27.5647 14.0021 28.6091 15.1309 27.9571Z" fill="white"/>
<path d="M30.5214 19.0688C31.6495 18.4173 31.6561 16.316 30.5363 14.3756C29.4164 12.4351 27.5942 11.3903 26.4661 12.0419C25.3381 12.6935 25.3314 14.7948 26.4513 16.7352C27.5711 18.6756 29.3934 19.7204 30.5214 19.0688Z" fill="white"/>
</g>
<defs>
<clipPath id="clip0_69_822">
<rect x="0.799927" width="40" height="40" rx="20" fill="white"/>
</clipPath>
</defs>
</svg>
