<svg width="width" height="height" viewBox="0 0 33 33" fill="none" xmlns="http://www.w3.org/2000/svg">
<g id="Blind 2">
<g id="Subtract">
<path fill-rule="evenodd" clip-rule="evenodd" d="M26.4542 21.2403L26.4536 22.7019C26.6473 22.5081 26.7567 22.2448 26.7567 21.9708C26.7567 21.6969 26.6479 21.4341 26.4542 21.2403C26.2604 21.0467 25.9976 20.9378 25.7236 20.9378C25.4496 20.9378 25.1869 21.0466 24.9931 21.2403L23.057 23.1764L21.1228 21.2423C20.9281 21.0551 20.6678 20.9516 20.3977 20.9539C20.1268 20.9563 19.8676 21.065 19.676 21.2565C19.4844 21.4481 19.3757 21.7073 19.3734 21.9782C19.371 22.2484 19.4746 22.5087 19.6617 22.7034L21.5959 24.6375L19.6561 26.5773C19.5574 26.6726 19.4786 26.7866 19.4245 26.9127C19.3703 27.0388 19.3418 27.1744 19.3406 27.3116C19.3394 27.4488 19.3656 27.5848 19.4175 27.7118C19.4695 27.8388 19.5462 27.9542 19.6432 28.0512C19.7402 28.1483 19.8556 28.225 19.9826 28.2769C20.1096 28.3289 20.2457 28.355 20.3829 28.3538C20.5201 28.3527 20.6557 28.3242 20.7817 28.27C20.9078 28.2158 21.0218 28.1371 21.1172 28.0384L21.1208 28.0347L23.057 26.0986L24.9911 28.0327C25.1858 28.2199 25.4461 28.3234 25.7162 28.3211C25.9872 28.3187 26.2463 28.2101 26.4379 28.0185C26.6295 27.8269 26.7382 27.5677 26.7405 27.2968C26.7429 27.0266 26.6393 26.7663 26.4522 26.5716L24.518 24.6375L25.621 23.5346L24.9931 21.2403L26.4542 21.2403ZM25.621 23.5346L26.4536 22.7019L26.4542 21.2403L24.9931 21.2403L25.621 23.5346Z" fill="#0080FF"/>
<path d="M16.3903 4.9375C22.0103 4.9375 27.1133 8.84343 29.3594 14.9465C29.445 15.1766 29.4453 15.4308 29.3597 15.661L29.3593 15.6621C28.9808 16.6929 28.5068 17.6861 27.9436 18.6287C27.8026 18.8636 27.574 19.0329 27.3082 19.0993C27.0424 19.1658 26.761 19.1239 26.526 18.9829C26.291 18.8419 26.1216 18.6133 26.0551 18.3475C25.9887 18.0816 26.0307 17.7999 26.1717 17.5649C26.5831 16.8776 26.94 16.1592 27.2392 15.4162L27.2844 15.304L27.2391 15.1918C25.2344 10.2281 21.0368 7.00417 16.3903 7.00417C11.7438 7.00417 7.54621 10.2281 5.54145 15.1918L5.49853 15.2981L5.53739 15.4059C6.21806 17.2941 7.3359 18.9944 8.79954 20.3679C10.2632 21.7413 12.0311 22.7489 13.9587 23.3083L13.9655 23.3103L13.9724 23.3119C14.1049 23.3437 14.2298 23.4013 14.3399 23.4815C14.45 23.5617 14.5432 23.6629 14.6141 23.7792C14.685 23.8956 14.7321 24.0248 14.7529 24.1594C14.7736 24.2941 14.7675 24.4315 14.735 24.5638C14.7024 24.6961 14.644 24.8206 14.5632 24.9302C14.4823 25.0399 14.3805 25.1324 14.2637 25.2026C14.147 25.2727 14.0175 25.3191 13.8827 25.339C13.7493 25.3587 13.6133 25.3522 13.4825 25.3197C11.1467 24.6543 9.00903 23.4278 7.25591 21.7468C5.50167 20.0648 4.18598 17.9789 3.42332 15.6713L3.41948 15.661C3.33392 15.4308 3.33424 15.1767 3.4198 14.9465C5.66727 8.84343 10.7703 4.9375 16.3903 4.9375Z" fill="#0080FF"/>
<path fill-rule="evenodd" clip-rule="evenodd" d="M16.3903 20.3375C15.3948 20.3375 14.4216 20.0423 13.5939 19.4892C12.7662 18.9362 12.1211 18.1501 11.7401 17.2303C11.3591 16.3106 11.2595 15.2986 11.4537 14.3222C11.6479 13.3458 12.1273 12.449 12.8312 11.7451C13.5351 11.0411 14.432 10.5618 15.4083 10.3675C16.3847 10.1733 17.3967 10.273 18.3165 10.654C19.2362 11.0349 20.0223 11.6801 20.5753 12.5078C21.1284 13.3355 21.4236 14.3087 21.4236 15.3042C21.4236 16.6391 20.8933 17.9193 19.9494 18.8633C19.0055 19.8072 17.7252 20.3375 16.3903 20.3375ZM19.3569 15.3042C19.3569 14.7174 19.183 14.1438 18.857 13.656C18.531 13.1681 18.0677 12.7879 17.5256 12.5633C16.9835 12.3388 16.387 12.28 15.8115 12.3945C15.236 12.509 14.7074 12.7915 14.2925 13.2064C13.8776 13.6213 13.5951 14.1499 13.4806 14.7254C13.3662 15.3009 13.4249 15.8974 13.6494 16.4395C13.874 16.9816 14.2542 17.4449 14.7421 17.7709C15.23 18.0968 15.8035 18.2708 16.3903 18.2708C17.1771 18.2708 17.9317 17.9583 18.488 17.4019C19.0444 16.8456 19.3569 16.091 19.3569 15.3042Z" fill="#0080FF"/>
</g>
</g>
</svg>
