<svg width="width" height="height" viewBox="0 0 40 41" fill="none" xmlns="http://www.w3.org/2000/svg">
<rect width="40" height="40" rx="20" transform="matrix(1.19249e-08 -1 -1 -1.19249e-08 40 40.5)" fill="currentColor"/>
<path fill-rule="evenodd" clip-rule="evenodd" d="M19.8283 31.7501C19.3227 31.7501 18.9483 31.3756 18.9483 30.8514V29.522C16.1584 29.2973 14.0989 27.8369 13.5371 25.7773C13.4623 25.5339 13.4248 25.3092 13.4248 25.0845C13.4248 24.2981 13.9678 23.7551 14.7729 23.7551C15.4469 23.7551 15.8963 24.1109 16.1772 24.8037C16.4767 25.9458 17.3942 26.7884 18.9483 27.013V21.9202L18.6112 21.8453C15.3721 21.0964 13.6869 19.5985 13.6869 17.0708C13.6869 14.3372 15.8776 12.4648 18.9483 12.184V10.8733C18.9483 10.3304 19.3227 9.97461 19.8283 9.97461C20.3338 9.97461 20.727 10.3491 20.727 10.8733V12.184C23.3483 12.4461 25.2955 13.8878 25.8198 15.8913C25.876 16.1159 25.9321 16.3406 25.9321 16.5653C25.9321 17.3142 25.3892 17.8572 24.6028 17.8572C23.91 17.8572 23.4606 17.464 23.1798 16.8274C22.8053 15.6853 21.9627 14.9551 20.727 14.7304V19.5423L21.1576 19.636C24.5466 20.2726 26.2504 21.8266 26.2504 24.4854C26.2504 27.4437 23.8913 29.2599 20.727 29.5407V30.8514C20.727 31.3756 20.3338 31.7501 19.8283 31.7501ZM18.9473 19.0942V14.7129C17.4682 14.9563 16.5694 15.8363 16.5694 16.8849C16.5694 17.9334 17.2622 18.6074 18.8163 19.0568L18.9473 19.0942ZM20.7261 22.3521V27.0143C22.5048 26.8083 23.3848 25.9096 23.3848 24.6926C23.3848 23.6066 22.7669 22.8951 21.0818 22.4457L20.7261 22.3521Z" fill="white"/>
</svg>
