
<svg width="width" height="height"  viewBox="0 0 29 29" fill="none" xmlns="http://www.w3.org/2000/svg">
<g id="exclamationmark.bubble.fill" clip-path="url(#clip0_1671_9907)">
<path id="exclamationmark.bubble.fill_2" d="M5.76465 24.0049C6.13379 24.0049 6.40625 23.8291 6.8457 23.4336L10.0889 20.5068L15.8369 20.5156C18.4824 20.5156 19.9678 18.9863 19.9678 16.376V9.54688C19.9678 6.93652 18.4824 5.40723 15.8369 5.40723H4.63086C1.99414 5.40723 0.5 6.93652 0.5 9.54688V16.376C0.5 18.9951 2.03809 20.5068 4.56934 20.5068H4.9209V23.0557C4.9209 23.6357 5.22852 24.0049 5.76465 24.0049ZM10.2471 14.46C9.72852 14.46 9.42969 14.1699 9.41211 13.6426L9.28906 9.25684C9.27148 8.71191 9.6582 8.33398 10.2383 8.33398C10.8008 8.33398 11.2139 8.7207 11.1963 9.26562L11.0557 13.6426C11.0381 14.1787 10.748 14.46 10.2471 14.46ZM10.2471 17.501C9.64941 17.501 9.15723 17.0703 9.15723 16.4902C9.15723 15.9102 9.64941 15.4795 10.2471 15.4795C10.8447 15.4795 11.3281 15.9014 11.3281 16.4902C11.3281 17.0791 10.8359 17.501 10.2471 17.501Z" fill="#FF3B30"/>
</g>
<defs>
<clipPath id="clip0_1671_9907">
<rect width="28" height="28" fill="white" transform="translate(0.5 0.489258)"/>
</clipPath>
</defs>
</svg>
