<svg width="208" height="209" viewBox="0 0 208 209" fill="none" xmlns="http://www.w3.org/2000/svg">
<g id="Frame 47784">
<g id="Group 156361">
<path id="Vector" d="M44.627 173.354L95.0218 149.047L105.976 156.476L57.3784 179.533L55.5378 174.274L44.627 173.354Z" fill="#FDCD09" stroke="#F27927" stroke-width="1.97153" stroke-miterlimit="10" stroke-linecap="round" stroke-linejoin="round"/>
<path id="Vector_2" d="M107.21 144.783L158.013 120.236L159.584 125.738L171.35 126.573L119.961 150.962L107.21 144.783Z" fill="#FDCD09" stroke="#F27927" stroke-width="1.97153" stroke-miterlimit="10" stroke-linecap="round" stroke-linejoin="round"/>
<path id="Vector_3" d="M167.162 173.354L116.767 149.047L105.813 156.476L154.411 179.533L153.85 173.652L167.162 173.354Z" fill="#FDCD09" stroke="#F27927" stroke-width="1.97153" stroke-miterlimit="10" stroke-linecap="round" stroke-linejoin="round"/>
<g id="BOX">
<g id="Group">
<path id="Vector_4" d="M55.6104 94.7456V151.413L105.977 175.804V115.884L55.6104 94.7456Z" fill="#7794FC" stroke="#4340CC" stroke-width="1.97153" stroke-miterlimit="10" stroke-linecap="round" stroke-linejoin="round"/>
<path id="Vector_5" d="M105.977 74.3784L156.018 94.5007L105.977 115.883L55.6104 94.6226L105.977 74.3784Z" fill="#666AFF" stroke="#4340CC" stroke-width="1.97153" stroke-miterlimit="10" stroke-linecap="round" stroke-linejoin="round"/>
<g id="Subtract">
<path fill-rule="evenodd" clip-rule="evenodd" d="M105.948 115.872L105.976 115.883L156.017 94.5008L105.976 74.3786L105.948 74.3897V115.872Z" fill="#4747DD"/>
<path d="M105.976 115.883L105.593 116.791C105.839 116.895 106.117 116.895 106.363 116.79L105.976 115.883ZM105.948 115.872H104.963C104.963 116.268 105.2 116.626 105.565 116.78L105.948 115.872ZM156.017 94.5008L156.405 95.4073C156.771 95.2507 157.007 94.8888 157.003 94.4902C156.999 94.0917 156.755 93.7349 156.385 93.5862L156.017 94.5008ZM105.976 74.3786L106.344 73.464C106.108 73.3691 105.844 73.3691 105.608 73.4639L105.976 74.3786ZM105.948 74.3897L105.581 73.4751C105.207 73.6252 104.963 73.9872 104.963 74.3897H105.948ZM106.359 114.975L106.332 114.963L105.565 116.78L105.593 116.791L106.359 114.975ZM155.63 93.5944L105.589 114.977L106.363 116.79L156.405 95.4073L155.63 93.5944ZM105.608 75.2932L155.65 95.4154L156.385 93.5862L106.344 73.464L105.608 75.2932ZM106.316 75.3044L106.344 75.2932L105.608 73.4639L105.581 73.4751L106.316 75.3044ZM104.963 74.3897V115.872H106.934V74.3897H104.963Z" fill="#4340CC"/>
</g>
<g id="Group 156360">
<path id="Vector_6" d="M112.086 48.852C112.093 49.2826 112.313 49.6842 112.676 49.9191C112.766 49.9785 114.486 51.0616 117.214 51.5114C116.728 52.2603 116.408 52.9885 116.301 53.6485C116.145 54.6192 116.442 55.2808 116.72 55.6654C117.485 56.7213 118.941 56.9874 120.797 56.5038C120.361 59.2289 120.868 61.2021 120.889 61.2845C120.998 61.7026 121.31 62.0374 121.717 62.1818C122.123 62.3263 122.577 62.257 122.922 61.9964C127.585 58.5241 129.566 54.5171 128.776 50.7699C129.303 49.9853 129.68 49.2294 129.791 48.5386C129.947 47.5704 129.648 46.9084 129.37 46.5238C128.907 45.8828 127.749 45.0035 125.17 45.7237C122.998 44.4362 118.851 43.4101 112.638 47.7658C112.347 47.9693 112.157 48.2812 112.102 48.6227C112.09 48.6972 112.083 48.7725 112.086 48.852ZM118.869 54.062C118.943 53.6075 119.383 52.7378 120.379 51.6889C120.535 51.6825 120.69 51.6415 120.844 51.6295C121.309 51.591 121.772 51.5312 122.236 51.4478C122.363 51.4236 122.492 51.4259 122.62 51.3991C122.555 51.5098 122.518 51.6276 122.455 51.7387C122.226 52.1628 122.02 52.5907 121.836 53.0275C121.777 53.1655 121.696 53.2947 121.642 53.4361C119.979 54.2197 118.975 54.2055 118.862 54.2083C118.862 54.2083 118.853 54.1622 118.869 54.062ZM123.225 58.3596C123.258 57.3241 123.475 56.005 123.913 54.7898C124.125 54.1759 124.411 53.5816 124.729 52.9953C124.812 52.8401 124.902 52.6886 124.993 52.5372C125.305 52.021 125.653 51.5132 126.045 51.0231C126.085 50.9742 126.116 50.924 126.156 50.875L126.158 50.8806C126.867 53.2658 125.857 55.8747 123.225 58.3596ZM116.189 48.6195C120.416 46.3546 122.985 47.3188 124.221 48.2002L124.226 48.2036C124.169 48.2261 124.112 48.2406 124.053 48.2601C123.459 48.4806 122.868 48.6515 122.274 48.7852C122.107 48.8268 121.941 48.8632 121.772 48.894C121.11 49.014 120.449 49.0972 119.791 49.1046C118.366 49.136 117.137 48.9012 116.189 48.6195Z" fill="#E0E4F5"/>
<path id="Vector_7" d="M116.464 55.7728C116.047 55.1892 115.233 55.0556 114.65 55.4727C114.614 55.4986 113.744 56.1226 112.536 57.2637C112.318 57.4684 112.187 57.7292 112.143 58.0014C112.081 58.3866 112.191 58.7969 112.479 59.1015C112.972 59.6235 113.796 59.648 114.318 59.1551C115.373 58.1606 116.126 57.6125 116.161 57.5867C116.747 57.1699 116.881 56.3589 116.464 55.7728Z" fill="#E0E4F5"/>
<path id="Vector_8" d="M104.789 71.3888C104.786 71.4042 104.784 71.4196 104.781 71.435C104.549 73.2708 104.593 75.1405 104.909 76.9883C105.03 77.6953 105.704 78.1727 106.411 78.052C107.121 77.9318 107.591 77.254 107.475 76.5504C107.202 74.9547 107.164 73.3441 107.363 71.7612C107.454 71.0487 106.948 70.3981 106.235 70.3096C105.536 70.2181 104.9 70.7006 104.789 71.3888Z" fill="#E0E4F5"/>
<path id="Vector_9" d="M126.193 99.7558C124.845 98.2243 123.34 96.8753 122.314 96.012C121.764 95.5494 120.944 95.6227 120.481 96.1701C120.325 96.3582 120.229 96.5747 120.193 96.7981C120.123 97.2347 120.278 97.6969 120.639 98.0028C121.598 98.8079 122.998 100.063 124.241 101.473C124.715 102.013 125.536 102.066 126.077 101.589C126.617 101.112 126.668 100.291 126.193 99.7558Z" fill="#E0E4F5"/>
<path id="Vector_10" d="M106.449 81.5063C106.41 81.7502 106.44 82.0079 106.548 82.2494C107.258 83.8127 108.179 85.3941 109.283 86.9445C109.7 87.5307 110.513 87.6669 111.097 87.2497C111.683 86.833 111.819 86.0197 111.402 85.4362C110.394 84.0199 109.558 82.5864 108.919 81.1741C108.621 80.5202 107.851 80.2302 107.197 80.5255C106.785 80.7146 106.516 81.0903 106.449 81.5063Z" fill="#E0E4F5"/>
<path id="Vector_11" d="M118.416 94.5931C118.888 94.0474 118.82 93.225 118.276 92.7581C116.929 91.6032 115.692 90.4345 114.599 89.2838C114.103 88.764 113.282 88.7424 112.76 89.2353C112.545 89.4405 112.414 89.6986 112.37 89.9708C112.308 90.3586 112.421 90.7694 112.712 91.0744C113.867 92.2906 115.169 93.5197 116.581 94.7323C117.129 95.2027 117.948 95.1396 118.416 94.5931Z" fill="#E0E4F5"/>
<path id="Vector_12" d="M106.929 67.8008C107.592 68.0816 108.356 67.775 108.633 67.1137C109.248 65.6688 110.063 64.2378 111.059 62.8622C111.483 62.2744 111.353 61.4656 110.769 61.0477C110.187 60.6245 109.375 60.7573 108.955 61.3377C107.844 62.8713 106.933 64.4714 106.242 66.0963C106.199 66.1974 106.17 66.2981 106.153 66.4008C106.06 66.976 106.366 67.5628 106.929 67.8008Z" fill="#E0E4F5"/>
<path id="Vector_13" d="M129.532 107.868C129.762 106.843 129.671 105.762 129.266 104.595C129.033 103.915 128.29 103.555 127.611 103.791C127.143 103.953 126.825 104.358 126.751 104.815C126.718 105.02 126.733 105.236 126.808 105.446C127.05 106.146 127.101 106.768 126.995 107.291C126.84 108.011 127.274 108.687 127.975 108.848C128.676 109.008 129.374 108.57 129.532 107.868Z" fill="#E0E4F5"/>
</g>
<path id="Vector_14" d="M156.18 94.7456V151.413L105.976 175.804V115.884L156.18 94.7456Z" fill="#666AFF" stroke="#4340CC" stroke-width="1.97153" stroke-miterlimit="10" stroke-linecap="round" stroke-linejoin="round"/>
</g>
</g>
<path id="Vector_15" d="M151.887 104.265V148.882" stroke="#7794FC" stroke-width="2.36584" stroke-miterlimit="10" stroke-linecap="round"/>
<path id="Vector_16" d="M101.606 121.767V166.384" stroke="#B2D5F1" stroke-width="2.36584" stroke-miterlimit="10" stroke-linecap="round"/>
<g id="Group 156363">
<g id="Cover_1_">
<g id="Group_2">
<g id="Group_3">
<path id="Vector_17" d="M95.3386 70.2569L90.2668 128.098L61.9127 112.813L87.1862 65.8752L95.3386 70.2569Z" fill="#666AFF" stroke="#4340CC" stroke-width="1.96015" stroke-miterlimit="10" stroke-linecap="round" stroke-linejoin="round"/>
<path id="Vector_18" d="M61.8943 112.848L36.2812 159.649L44.5761 164.107C67.2741 146.207 55.1112 155.775 90.232 128.079L61.8943 112.848Z" fill="#7794FC" stroke="#4340CC" stroke-width="1.96015" stroke-miterlimit="10" stroke-linecap="round" stroke-linejoin="round"/>
<path id="Vector_19" d="M45.1623 103.856L86.9569 65.706L81.4744 123.372L36.2813 159.649L45.1623 103.856Z" fill="#7794FC" stroke="#4340CC" stroke-width="1.96015" stroke-miterlimit="10" stroke-linecap="round" stroke-linejoin="round"/>
<path id="Vector_20" d="M41.9495 148.334L77.6719 119.861C78.3941 119.285 79.4621 119.859 79.3616 120.815C79.2392 121.896 78.687 122.838 77.8718 123.501L41.5585 152.391C40.8554 152.931 39.8612 152.305 40.0495 151.443C40.3031 150.203 40.9866 149.102 41.9495 148.334Z" fill="#B2D5F1"/>
</g>
</g>
</g>
<g id="Ribbons_1_">
<g id="Group_4">
<path id="Vector_21" d="M41.6325 123.57L39.3473 140.83L60.818 119.291C61.3021 115.146 61.7888 110.911 62.0402 106.687L41.6325 123.57Z" fill="#FDCD09" stroke="#F27927" stroke-width="1.96015" stroke-miterlimit="10" stroke-linecap="round" stroke-linejoin="round"/>
<g id="Group_5">
<path id="Vector_22" d="M84.5792 88.0582L62.0405 106.687C61.7892 110.911 61.3024 115.146 60.8184 119.29L83.6009 100.976L84.5792 88.0582Z" fill="#FDCD09" stroke="#F27927" stroke-width="1.96015" stroke-miterlimit="10" stroke-linecap="round" stroke-linejoin="round"/>
<path id="Vector_23" d="M84.6185 87.9868L93.4148 92.89L92.2206 105.738L83.3145 100.913L84.6185 87.9868Z" fill="#F99B05" stroke="#F27927" stroke-width="1.96015" stroke-miterlimit="10" stroke-linecap="round" stroke-linejoin="round"/>
</g>
<path id="Vector_24" d="M59.9251 90.133L56.7319 116.819C60.064 114.205 63.2398 111.369 66.5145 108.862L69.3432 81.6592L59.9251 90.133Z" fill="#FDCD09" stroke="#F27927" stroke-width="1.96015" stroke-miterlimit="10" stroke-linecap="round" stroke-linejoin="round"/>
<g id="Group_6">
<path id="Vector_25" d="M53.1933 146.027L63.4249 138.174L66.4792 108.844C63.2045 111.351 60.0642 114.206 56.6966 116.801L53.1933 146.027Z" fill="#FDCD09" stroke="#F27927" stroke-width="1.96015" stroke-miterlimit="10" stroke-linecap="round" stroke-linejoin="round"/>
<path id="Vector_26" d="M53.1211 145.99L61.737 150.637L71.8385 142.606L63.3554 138.046L53.1211 145.99Z" fill="#FDCD09" stroke="#F27927" stroke-width="1.96015" stroke-miterlimit="10" stroke-linecap="round" stroke-linejoin="round"/>
</g>
</g>
<path id="Vector_27" d="M57.1843 136.379L60.519 133.675C61.2412 133.1 62.3093 133.674 62.2087 134.629C62.0864 135.711 61.5341 136.653 60.7189 137.316L56.7768 140.382C56.0737 140.922 55.0795 140.296 55.2678 139.433C55.532 137.832 56.2022 137.182 57.1843 136.379Z" fill="#FCEDB0"/>
<path id="Vector_28" d="M41.8545 158.928L44.4177 160.306" stroke="#B2D5F1" stroke-width="2.35218" stroke-miterlimit="10" stroke-linecap="round"/>
<path id="Vector_29" d="M89.2881 70.6758L91.8513 72.0534" stroke="#7794FC" stroke-width="2.35218" stroke-miterlimit="10" stroke-linecap="round"/>
<path id="Vector_30" d="M57.9453 145.002L61.6421 146.989" stroke="#FCEDB0" stroke-width="2.35218" stroke-miterlimit="10" stroke-linecap="round"/>
<path id="Vector_31" d="M86.6121 92.0132L90.8293 94.2795" stroke="#FDCD09" stroke-width="2.35218" stroke-miterlimit="10" stroke-linecap="round"/>
</g>
<g id="Bow_1_">
<g id="Group_7">
<g id="Group_8">
<path id="Vector_32" d="M62.8072 116.186C53.1069 128.087 34.4703 141.333 25.6771 136.607C22.2239 134.751 18.7461 129.441 21.0422 121.498C26.8518 133.568 46.455 120.657 58.7086 108.018C59.5532 110.032 62.3341 113.224 62.8072 116.186Z" fill="#F99B05" stroke="#F27927" stroke-width="1.96015" stroke-miterlimit="10" stroke-linecap="round" stroke-linejoin="round"/>
<path id="Vector_33" d="M61.298 117.714C49.0784 117.57 19.63 120.968 21.2388 130.78C19.6212 127.387 19.8903 121.337 20.9689 117.879C24.1664 107.576 53.1784 106.1 58.9883 107.755C59.8975 111.868 61.043 113.493 61.298 117.714Z" fill="#FDCD09" stroke="#F27927" stroke-width="1.96015" stroke-miterlimit="10" stroke-linecap="round" stroke-linejoin="round"/>
</g>
<g id="Group_9">
<path id="Vector_34" d="M60.5409 108.541C74.7668 97.6957 77.6234 81.795 72.973 75.166C78.9712 79.6287 80.5653 84.4315 80.3296 91.1875C79.9244 101.844 68.3365 115.209 60.9581 117.07C62.0327 115.583 62.1617 112.44 60.5409 108.541Z" fill="#F99B05" stroke="#F27927" stroke-width="1.96015" stroke-miterlimit="10" stroke-linecap="round" stroke-linejoin="round"/>
<path id="Vector_35" d="M53.4403 87.5197C52.5366 94.2378 54.6844 103.56 61.7752 115.722C57.7238 108.405 58.0205 102.645 58.5954 99.1002C61.1756 83.3722 78.5695 80.9746 79.4238 95.5202C85.2371 69.5083 56.1374 67.2203 53.4403 87.5197Z" fill="#FDCD09" stroke="#F27927" stroke-width="1.96015" stroke-miterlimit="10" stroke-linecap="round" stroke-linejoin="round"/>
</g>
</g>
<g id="Vector_36">
<path d="M24.9602 116.262C24.9602 116.262 23.2813 118.617 23.0518 122.715Z" fill="#FCEDB0"/>
<path d="M24.9602 116.262C24.9602 116.262 23.2813 118.617 23.0518 122.715" stroke="#FCEDB0" stroke-width="1.56812" stroke-miterlimit="10" stroke-linecap="round"/>
</g>
<g id="Vector_37">
<path d="M55.8062 88.7452C55.8062 88.7452 55.2335 91.6034 56.7666 95.4099Z" fill="#FCEDB0"/>
<path d="M55.8062 88.7452C55.8062 88.7452 55.2335 91.6034 56.7666 95.4099" stroke="#FCEDB0" stroke-width="1.56812" stroke-miterlimit="10" stroke-linecap="round"/>
</g>
</g>
</g>
</g>
</g>
</svg>
