<svg width="248" height="248" viewBox="0 0 248 248" fill="none" xmlns="http://www.w3.org/2000/svg">
<g id="Frame 47784">
<g id="Group 156361">
<path id="Vector" d="M53.21 206.096L113.296 177.114L126.357 185.972L68.4136 213.463L66.219 207.192L53.21 206.096Z" fill="#FDCD09" stroke="#F27927" stroke-width="1.97153" stroke-miterlimit="10" stroke-linecap="round" stroke-linejoin="round"/>
<path id="Vector_2" d="M127.828 172.03L188.401 142.763L190.274 149.322L204.303 150.318L143.032 179.397L127.828 172.03Z" fill="#FDCD09" stroke="#F27927" stroke-width="1.97153" stroke-miterlimit="10" stroke-linecap="round" stroke-linejoin="round"/>
<path id="Vector_3" d="M199.309 206.096L139.222 177.114L126.161 185.972L184.105 213.463L183.437 206.45L199.309 206.096Z" fill="#FDCD09" stroke="#F27927" stroke-width="1.97153" stroke-miterlimit="10" stroke-linecap="round" stroke-linejoin="round"/>
<g id="BOX">
<g id="Group">
<path id="Vector_4" d="M66.3047 112.37V179.935L126.357 209.016V137.573L66.3047 112.37Z" fill="#7794FC" stroke="#4340CC" stroke-width="1.97153" stroke-miterlimit="10" stroke-linecap="round" stroke-linejoin="round"/>
<path id="Vector_5" d="M126.357 88.0859L186.022 112.078L126.357 137.572L66.3047 112.223L126.357 88.0859Z" fill="#666AFF" stroke="#4340CC" stroke-width="1.97153" stroke-miterlimit="10" stroke-linecap="round" stroke-linejoin="round"/>
<g id="Subtract">
<path fill-rule="evenodd" clip-rule="evenodd" d="M85.5967 120.368L126.356 137.573L186.021 112.078L126.356 88.0864L105.948 96.289V120.368H85.5967Z" fill="#4747DD"/>
<path d="M126.356 137.573L125.973 138.481C126.219 138.585 126.497 138.584 126.743 138.479L126.356 137.573ZM85.5967 120.368V119.382C85.1276 119.382 84.7236 119.712 84.6305 120.172C84.5375 120.632 84.7812 121.093 85.2133 121.276L85.5967 120.368ZM186.021 112.078L186.408 112.985C186.774 112.828 187.011 112.466 187.006 112.068C187.002 111.669 186.758 111.312 186.388 111.164L186.021 112.078ZM126.356 88.0864L126.724 87.1718C126.488 87.077 126.224 87.0769 125.988 87.1718L126.356 88.0864ZM105.948 96.289L105.581 95.3743C105.207 95.5244 104.963 95.8865 104.963 96.289H105.948ZM105.948 120.368V121.353C106.493 121.353 106.934 120.912 106.934 120.368H105.948ZM126.739 136.665L85.98 119.46L85.2133 121.276L125.973 138.481L126.739 136.665ZM185.633 111.172L125.969 136.666L126.743 138.479L186.408 112.985L185.633 111.172ZM125.988 89.001L185.653 112.993L186.388 111.164L126.724 87.1718L125.988 89.001ZM106.316 97.2036L126.724 89.0011L125.988 87.1718L105.581 95.3743L106.316 97.2036ZM104.963 96.289V120.368H106.934V96.289H104.963ZM105.948 119.382H85.5967V121.353H105.948V119.382Z" fill="#4340CC"/>
</g>
<g id="Group 156360">
<path id="Vector_6" d="M133.641 57.6507C133.649 58.1641 133.911 58.6429 134.344 58.923C134.452 58.9938 136.502 60.2852 139.755 60.8215C139.175 61.7144 138.793 62.5827 138.666 63.3696C138.48 64.527 138.833 65.3158 139.165 65.7744C140.077 67.0333 141.814 67.3506 144.027 66.774C143.507 70.0231 144.111 72.3758 144.136 72.4741C144.266 72.9725 144.639 73.3717 145.123 73.5439C145.607 73.7161 146.148 73.6336 146.56 73.3229C152.12 69.1828 154.482 64.4052 153.54 59.9374C154.168 59.0019 154.618 58.1006 154.75 57.277C154.936 56.1226 154.579 55.3333 154.248 54.8747C153.696 54.1104 152.316 53.0621 149.241 53.9208C146.651 52.3856 141.706 51.1622 134.298 56.3556C133.952 56.5982 133.725 56.9701 133.66 57.3773C133.645 57.4661 133.637 57.5559 133.641 57.6507ZM141.728 63.8626C141.815 63.3206 142.34 62.2838 143.528 61.0332C143.715 61.0255 143.898 60.9766 144.083 60.9623C144.637 60.9164 145.189 60.8451 145.742 60.7457C145.894 60.7168 146.048 60.7195 146.2 60.6876C146.123 60.8195 146.078 60.96 146.003 61.0925C145.73 61.5982 145.485 62.1084 145.266 62.6291C145.195 62.7937 145.098 62.9477 145.033 63.1163C143.052 64.0506 141.854 64.0337 141.719 64.037C141.719 64.037 141.709 63.982 141.728 63.8626ZM146.922 68.9866C146.96 67.752 147.22 66.1792 147.742 64.7304C147.995 63.9984 148.335 63.2898 148.715 62.5908C148.814 62.4057 148.921 62.2251 149.029 62.0445C149.401 61.4291 149.816 60.8237 150.284 60.2393C150.331 60.181 150.369 60.1211 150.416 60.0627L150.418 60.0693C151.264 62.9132 150.059 66.0239 146.922 68.9866ZM138.532 57.3734C143.572 54.673 146.635 55.8227 148.109 56.8735L148.114 56.8776C148.047 56.9045 147.978 56.9217 147.909 56.945C147.2 57.2079 146.495 57.4116 145.788 57.571C145.589 57.6206 145.39 57.664 145.189 57.7008C144.4 57.8438 143.611 57.943 142.827 57.9519C141.128 57.9893 139.662 57.7093 138.532 57.3734Z" fill="#E0E4F5"/>
<path id="Vector_7" d="M138.86 65.9026C138.363 65.2068 137.393 65.0475 136.697 65.5449C136.654 65.5757 135.617 66.3197 134.176 67.6802C133.917 67.9244 133.76 68.2352 133.708 68.5598C133.634 69.0191 133.766 69.5083 134.109 69.8715C134.697 70.4938 135.679 70.5231 136.301 69.9354C137.56 68.7496 138.457 68.0962 138.5 68.0653C139.198 67.5685 139.357 66.6014 138.86 65.9026Z" fill="#E0E4F5"/>
<path id="Vector_8" d="M124.94 84.5213C124.937 84.5397 124.934 84.558 124.931 84.5764C124.654 86.7652 124.707 88.9945 125.084 91.1976C125.228 92.0406 126.032 92.6098 126.875 92.4659C127.721 92.3226 128.281 91.5144 128.143 90.6755C127.818 88.773 127.772 86.8526 128.01 84.9653C128.119 84.1158 127.515 83.3401 126.665 83.2346C125.831 83.1255 125.072 83.7007 124.94 84.5213Z" fill="#E0E4F5"/>
<path id="Vector_9" d="M150.46 118.344C148.854 116.517 147.058 114.909 145.836 113.88C145.18 113.328 144.201 113.416 143.65 114.068C143.463 114.293 143.35 114.551 143.307 114.817C143.223 115.338 143.407 115.889 143.839 116.253C144.982 117.213 146.65 118.71 148.133 120.391C148.698 121.035 149.677 121.098 150.322 120.53C150.966 119.961 151.026 118.981 150.46 118.344Z" fill="#E0E4F5"/>
<path id="Vector_10" d="M126.919 96.5848C126.872 96.8757 126.908 97.1829 127.037 97.4708C127.884 99.3348 128.981 101.22 130.298 103.069C130.795 103.768 131.765 103.93 132.46 103.433C133.159 102.936 133.322 101.966 132.824 101.271C131.623 99.5818 130.626 97.8727 129.864 96.1888C129.508 95.4091 128.59 95.0634 127.811 95.4154C127.319 95.6409 126.999 96.0888 126.919 96.5848Z" fill="#E0E4F5"/>
<path id="Vector_11" d="M141.187 112.188C141.75 111.537 141.669 110.557 141.021 110C139.414 108.623 137.939 107.23 136.637 105.858C136.046 105.238 135.066 105.212 134.444 105.8C134.188 106.045 134.032 106.352 133.979 106.677C133.905 107.139 134.04 107.629 134.386 107.993C135.764 109.443 137.316 110.908 138.999 112.354C139.653 112.915 140.63 112.84 141.187 112.188Z" fill="#E0E4F5"/>
<path id="Vector_12" d="M127.493 80.2435C128.284 80.5782 129.194 80.2127 129.525 79.4241C130.258 77.7014 131.23 75.9951 132.417 74.355C132.923 73.6542 132.767 72.6899 132.072 72.1916C131.377 71.6871 130.409 71.8454 129.908 72.5374C128.583 74.3659 127.497 76.2737 126.673 78.2111C126.622 78.3317 126.587 78.4517 126.568 78.5742C126.457 79.26 126.822 79.9596 127.493 80.2435Z" fill="#E0E4F5"/>
<path id="Vector_13" d="M154.442 128.016C154.717 126.794 154.607 125.504 154.124 124.113C153.847 123.302 152.961 122.874 152.152 123.155C151.593 123.348 151.214 123.83 151.126 124.375C151.087 124.62 151.105 124.877 151.194 125.127C151.483 125.962 151.543 126.704 151.417 127.328C151.232 128.187 151.749 128.992 152.586 129.184C153.422 129.375 154.253 128.852 154.442 128.016Z" fill="#E0E4F5"/>
</g>
<path id="Vector_14" d="M186.215 112.37V179.935L126.356 209.016V137.573L186.215 112.37Z" fill="#666AFF" stroke="#4340CC" stroke-width="1.97153" stroke-miterlimit="10" stroke-linecap="round" stroke-linejoin="round"/>
</g>
</g>
<path id="Vector_15" d="M181.097 123.72V176.917" stroke="#7794FC" stroke-width="2.36584" stroke-miterlimit="10" stroke-linecap="round"/>
<path id="Vector_16" d="M121.146 144.588V197.785" stroke="#B2D5F1" stroke-width="2.36584" stroke-miterlimit="10" stroke-linecap="round"/>
<g id="Group 156363">
<g id="Cover_1_">
<g id="Group_2">
<g id="Group_3">
<path id="Vector_17" d="M113.675 83.1718L107.627 152.136L73.8207 133.912L103.955 77.9476L113.675 83.1718Z" fill="#666AFF" stroke="#4340CC" stroke-width="1.96015" stroke-miterlimit="10" stroke-linecap="round" stroke-linejoin="round"/>
<path id="Vector_18" d="M73.7982 133.954L43.2588 189.756L53.1485 195.071C80.2117 173.728 65.7097 185.136 107.585 152.113L73.7982 133.954Z" fill="#7794FC" stroke="#4340CC" stroke-width="1.96015" stroke-miterlimit="10" stroke-linecap="round" stroke-linejoin="round"/>
<path id="Vector_19" d="M53.8492 123.233L103.681 77.7458L97.1431 146.502L43.2591 189.756L53.8492 123.233Z" fill="#7794FC" stroke="#4340CC" stroke-width="1.96015" stroke-miterlimit="10" stroke-linecap="round" stroke-linejoin="round"/>
<path id="Vector_20" d="M50.0181 176.265L92.6102 142.314C93.4713 141.628 94.7446 142.313 94.6247 143.452C94.4788 144.741 93.8204 145.864 92.8484 146.655L49.5517 181.102C48.7134 181.746 47.5282 180.999 47.7526 179.971C48.055 178.492 48.87 177.18 50.0181 176.265Z" fill="#B2D5F1"/>
</g>
</g>
</g>
<g id="Ribbons_1_">
<g id="Group_4">
<path id="Vector_21" d="M49.6386 146.738L46.9139 167.316L72.5137 141.635C73.0908 136.693 73.6712 131.644 73.9709 126.608L49.6386 146.738Z" fill="#FDCD09" stroke="#F27927" stroke-width="1.96015" stroke-miterlimit="10" stroke-linecap="round" stroke-linejoin="round"/>
<g id="Group_5">
<path id="Vector_22" d="M100.844 104.396L73.9711 126.607C73.6714 131.643 73.0911 136.693 72.5139 141.634L99.6777 119.799L100.844 104.396Z" fill="#FDCD09" stroke="#F27927" stroke-width="1.96015" stroke-miterlimit="10" stroke-linecap="round" stroke-linejoin="round"/>
<path id="Vector_23" d="M100.891 104.311L111.379 110.157L109.955 125.476L99.3364 119.724L100.891 104.311Z" fill="#F99B05" stroke="#F27927" stroke-width="1.96015" stroke-miterlimit="10" stroke-linecap="round" stroke-linejoin="round"/>
</g>
<path id="Vector_24" d="M71.4498 106.87L67.6426 138.688C71.6154 135.571 75.4021 132.19 79.3065 129.201L82.6792 96.7664L71.4498 106.87Z" fill="#FDCD09" stroke="#F27927" stroke-width="1.96015" stroke-miterlimit="10" stroke-linecap="round" stroke-linejoin="round"/>
<g id="Group_6">
<path id="Vector_25" d="M63.4216 173.514L75.6208 164.151L79.2625 129.18C75.3581 132.169 71.6139 135.573 67.5986 138.667L63.4216 173.514Z" fill="#FDCD09" stroke="#F27927" stroke-width="1.96015" stroke-miterlimit="10" stroke-linecap="round" stroke-linejoin="round"/>
<path id="Vector_26" d="M63.3352 173.469L73.6081 179.01L85.6522 169.434L75.5377 163.998L63.3352 173.469Z" fill="#FDCD09" stroke="#F27927" stroke-width="1.96015" stroke-miterlimit="10" stroke-linecap="round" stroke-linejoin="round"/>
</g>
</g>
<path id="Vector_27" d="M68.1815 162.011L72.1575 158.786C73.0186 158.1 74.292 158.785 74.1721 159.924C74.0263 161.213 73.3678 162.336 72.3958 163.127L67.6956 166.783C66.8573 167.426 65.672 166.68 65.8964 165.651C66.2115 163.742 67.0105 162.968 68.1815 162.011Z" fill="#FCEDB0"/>
<path id="Vector_28" d="M49.9043 188.895L52.9604 190.538" stroke="#B2D5F1" stroke-width="2.35218" stroke-miterlimit="10" stroke-linecap="round"/>
<path id="Vector_29" d="M106.459 83.6714L109.515 85.314" stroke="#7794FC" stroke-width="2.35218" stroke-miterlimit="10" stroke-linecap="round"/>
<path id="Vector_30" d="M69.0889 172.292L73.4965 174.661" stroke="#FCEDB0" stroke-width="2.35218" stroke-miterlimit="10" stroke-linecap="round"/>
<path id="Vector_31" d="M103.269 109.112L108.298 111.814" stroke="#FDCD09" stroke-width="2.35218" stroke-miterlimit="10" stroke-linecap="round"/>
</g>
<g id="Bow_1_">
<g id="Group_7">
<g id="Group_8">
<path id="Vector_32" d="M74.8858 137.932C63.3198 152.122 41.0989 167.917 30.6151 162.283C26.4979 160.07 22.3517 153.738 25.0895 144.268C32.0158 158.659 55.3891 143.264 69.9995 128.194C71.0064 130.595 74.3219 134.401 74.8858 137.932Z" fill="#F99B05" stroke="#F27927" stroke-width="1.96015" stroke-miterlimit="10" stroke-linecap="round" stroke-linejoin="round"/>
<path id="Vector_33" d="M73.0851 139.754C58.5158 139.583 23.4045 143.636 25.3223 155.335C23.3937 151.289 23.7148 144.076 25.001 139.953C28.8138 127.668 63.4046 125.907 70.3317 127.88C71.4155 132.784 72.7812 134.722 73.0851 139.754Z" fill="#FDCD09" stroke="#F27927" stroke-width="1.96015" stroke-miterlimit="10" stroke-linecap="round" stroke-linejoin="round"/>
</g>
<g id="Group_9">
<path id="Vector_34" d="M72.1828 128.819C89.1444 115.888 92.5503 96.9291 87.0056 89.0253C94.1573 94.3463 96.058 100.073 95.7769 108.128C95.2938 120.834 81.4775 136.768 72.6802 138.988C73.9615 137.215 74.1152 133.468 72.1828 128.819Z" fill="#F99B05" stroke="#F27927" stroke-width="1.96015" stroke-miterlimit="10" stroke-linecap="round" stroke-linejoin="round"/>
<path id="Vector_35" d="M63.7162 103.754C62.6388 111.764 65.1995 122.879 73.654 137.38C68.8235 128.656 69.1772 121.789 69.8626 117.562C72.939 98.8093 93.678 95.9507 94.6965 113.293C101.628 82.2792 66.932 79.5512 63.7162 103.754Z" fill="#FDCD09" stroke="#F27927" stroke-width="1.96015" stroke-miterlimit="10" stroke-linecap="round" stroke-linejoin="round"/>
</g>
</g>
<g id="Vector_36">
<path d="M29.7597 138.024C29.7597 138.024 27.7579 140.832 27.4842 145.718L29.7597 138.024Z" fill="#FCEDB0"/>
<path d="M29.7597 138.024C29.7597 138.024 27.7579 140.832 27.4842 145.718" stroke="#FCEDB0" stroke-width="1.56812" stroke-miterlimit="10" stroke-linecap="round"/>
</g>
<g id="Vector_37">
<path d="M66.5375 105.216C66.5375 105.216 65.8547 108.623 67.6827 113.162L66.5375 105.216Z" fill="#FCEDB0"/>
<path d="M66.5375 105.216C66.5375 105.216 65.8547 108.623 67.6827 113.162" stroke="#FCEDB0" stroke-width="1.56812" stroke-miterlimit="10" stroke-linecap="round"/>
</g>
</g>
</g>
</g>
</g>
</svg>
