<svg width="width" height="height" viewBox="0 0 41 41" fill="none" xmlns="http://www.w3.org/2000/svg">
<g id="user-40">
<rect x="0.70874" y="0.719727" width="40" height="40" rx="20" fill="currentColor"/>
<path id="Union" fill-rule="evenodd" clip-rule="evenodd" d="M20.6188 11.6429C20.0226 10.9261 19.124 10.4697 18.1188 10.4697H17.6188C16.1 10.4697 14.8688 11.7009 14.8688 13.2197C14.8688 14.0077 15.2002 14.7183 15.7313 15.2197H13.1188C12.2903 15.2197 11.6188 15.8913 11.6188 16.7197V18.7197C11.6188 19.5482 12.2903 20.2197 13.1188 20.2197H16.1188H25.1188H28.1188C28.9472 20.2197 29.6188 19.5482 29.6188 18.7197V16.7197C29.6188 15.8913 28.9472 15.2197 28.1188 15.2197H25.5062C26.0373 14.7183 26.3688 14.0077 26.3688 13.2197C26.3688 11.7009 25.1376 10.4697 23.6188 10.4697H23.1188C22.1136 10.4697 21.2149 10.9261 20.6188 11.6429ZM19.8688 13.7197V14.4697H17.6188C16.9284 14.4697 16.3688 13.9101 16.3688 13.2197C16.3688 12.5294 16.9284 11.9697 17.6188 11.9697H18.1188C19.0853 11.9697 19.8688 12.7532 19.8688 13.7197ZM23.6188 14.4697H21.3688V13.7197C21.3688 12.7532 22.1523 11.9697 23.1188 11.9697H23.6188C24.3091 11.9697 24.8688 12.5294 24.8688 13.2197C24.8688 13.9101 24.3091 14.4697 23.6188 14.4697ZM12.6188 27.2197V21.7197H19.8188L19.8188 31.2197H16.6188C14.4096 31.2197 12.6188 29.4289 12.6188 27.2197ZM21.3188 31.2197L21.3188 21.7197H28.6188V27.2197C28.6188 29.4289 26.8279 31.2197 24.6188 31.2197H21.3188Z" fill="white"/>
</g>
</svg>
