<svg width="104" height="106" viewBox="0 0 104 106" fill="none" xmlns="http://www.w3.org/2000/svg">
<g id="Subtract" filter="url(#filter0_b_1292_57416)">
<path d="M99.0247 45.5811C105.086 48.6698 105.086 57.3303 99.0247 60.4191L12.5461 104.485C6.27272 107.681 -0.889996 102.133 0.637394 95.2596L6.88823 67.1308C8.536 59.7158 15.7165 54.7439 23.1058 56.5033C25.6158 57.1009 27.9337 57.7487 29.6486 58.4127C31.4808 59.136 32.9298 60.6066 33.6363 62.4631C35.6122 67.6587 37.4204 78.2186 38.1988 83.137L39.7795 83.137C40.5579 78.2186 42.3662 67.6587 44.3421 62.4631C45.0367 60.6187 46.4976 59.136 48.3298 58.4127C53.4672 56.4236 64.0173 54.5792 68.9271 53.7957L68.9271 52.2045C64.0173 51.4209 53.4672 49.5765 48.3298 47.5875C46.4976 46.8642 45.0486 45.3935 44.3421 43.5371C42.3662 38.3415 40.5579 27.7815 39.7796 22.8632L38.1988 22.8632C37.4204 27.7815 35.6122 38.3415 33.6363 43.5371C32.9417 45.3815 31.4808 46.8642 29.6486 47.5875C27.9337 48.2514 25.6158 48.8992 23.1058 49.4969C15.7165 51.2563 8.536 46.2843 6.88823 38.8693L0.637397 10.7406C-0.889992 3.86735 6.27272 -1.68134 12.5461 1.51532L99.0247 45.5811Z" fill="#B2B5C8"/>
</g>
<defs>
<filter id="filter0_b_1292_57416" x="-15.8336" y="-15.6753" width="135.667" height="137.351" filterUnits="userSpaceOnUse" color-interpolation-filters="sRGB">
<feFlood flood-opacity="0" result="BackgroundImageFix"/>
<feGaussianBlur in="BackgroundImageFix" stdDeviation="8.13135"/>
<feComposite in2="SourceAlpha" operator="in" result="effect1_backgroundBlur_1292_57416"/>
<feBlend mode="normal" in="SourceGraphic" in2="effect1_backgroundBlur_1292_57416" result="shape"/>
</filter>
</defs>
</svg>
