<svg width="width" height="height" viewBox="0 0 104 75" fill="none" xmlns="http://www.w3.org/2000/svg">
<g id="Frame" clip-path="url(#clip0_1422_35053)">
<g id="Group">
<path id="Vector" d="M2.82781 45.4775L8.57667 53.3916V45.4775H11.5316V58.2701H8.75807L2.95496 50.4101V58.2701H0V45.4775H2.82781Z" fill="#B2B5C8"/>
<path id="Vector_2" d="M19.7659 45.3149C20.7458 45.3149 21.6307 45.4687 22.4224 45.7761C23.2142 46.0835 23.8906 46.5227 24.4534 47.0954C25.0163 47.668 25.4469 48.3505 25.7504 49.1461C26.0521 49.9417 26.203 50.8269 26.203 51.8016C26.203 52.7763 26.0521 53.6513 25.7504 54.457C25.4486 55.2645 25.0163 55.9638 24.4534 56.5534C23.8906 57.1429 23.2108 57.6007 22.414 57.9267C21.6155 58.251 20.722 58.4081 19.7303 58.3963C18.7266 58.3963 17.8298 58.2375 17.0381 57.9183C16.2464 57.599 15.5716 57.1497 15.0155 56.572C14.4595 55.9942 14.0339 55.305 13.7373 54.5027C13.4406 53.702 13.2931 52.8202 13.2931 51.8556C13.2931 50.8911 13.4474 49.9924 13.7559 49.19C14.0645 48.3893 14.5002 47.7001 15.0613 47.1207C15.6242 46.543 16.304 46.0971 17.1008 45.7845C17.8993 45.472 18.7877 45.3149 19.7659 45.3149ZM16.3209 51.8371C16.3209 52.3303 16.3905 52.8067 16.5295 53.2644C16.6685 53.7222 16.8804 54.1293 17.1635 54.4841C17.4466 54.8388 17.8078 55.126 18.2418 55.3422C18.6775 55.5584 19.1962 55.6733 19.8015 55.6851C20.3813 55.6851 20.8831 55.577 21.3069 55.3591C21.7307 55.1429 22.08 54.8523 22.358 54.4908C22.6361 54.1293 22.8412 53.7205 22.9751 53.2628C23.1074 52.805 23.1752 52.3421 23.1752 51.8725C23.1752 51.4029 23.1124 50.9384 22.9853 50.4806C22.8581 50.0228 22.6547 49.614 22.3784 49.2525C22.1003 48.891 21.746 48.5954 21.3171 48.3674C20.8882 48.1393 20.3711 48.0245 19.7659 48.0245C19.1606 48.0245 18.6605 48.1326 18.2248 48.3505C17.7891 48.5667 17.4331 48.8539 17.1551 49.2086C16.877 49.5634 16.6685 49.9705 16.5295 50.4282C16.3905 50.886 16.3209 51.3556 16.3209 51.8371Z" fill="#B2B5C8"/>
<path id="Vector_3" d="M35.7579 45.4775H38.9671L33.9625 58.2701H30.9889L26.0029 45.4775H29.2478L32.5486 54.5842L35.7579 45.4775Z" fill="#B2B5C8"/>
<path id="Vector_4" d="M41.4966 56.1549L40.7167 58.2681H37.5261L42.585 45.4756H45.74L50.726 58.2681H47.5167L46.7555 56.1549H41.4966ZM42.4036 53.5163H45.8485C45.5705 52.7089 45.289 51.9048 45.0059 51.1041C44.7211 50.3034 44.4346 49.4993 44.1447 48.6919L42.4036 53.5163Z" fill="#B2B5C8"/>
<path id="Vector_5" d="M58.1651 49.3794C58.0922 48.9217 57.8667 48.572 57.4852 48.3321C57.1038 48.0906 56.6054 47.9706 55.9899 47.9706C55.7729 47.9706 55.5576 47.9926 55.3457 48.0331C55.1338 48.0754 54.9439 48.1412 54.7744 48.2325C54.6049 48.3237 54.4692 48.4402 54.3658 48.5855C54.2624 48.7308 54.2115 48.898 54.2115 49.0923C54.2115 49.2967 54.2573 49.4656 54.3472 49.5974C54.437 49.7308 54.571 49.844 54.7456 49.9403C54.9202 50.0366 55.1321 50.121 55.3796 50.1937C55.6271 50.2663 55.9086 50.344 56.2222 50.4285C56.8512 50.5974 57.4666 50.7477 58.0718 50.8795C58.677 51.0129 59.2162 51.2038 59.6942 51.4572C60.1723 51.7106 60.5589 52.0602 60.8538 52.5045C61.1505 52.9505 61.3099 53.5704 61.3336 54.366C61.3336 55.0772 61.1997 55.6887 60.9352 56.2005C60.6691 56.7124 60.3096 57.1313 59.857 57.4556C59.4043 57.7817 58.8737 58.0215 58.2702 58.1786C57.6649 58.3357 57.0309 58.4134 56.3663 58.4134C55.7017 58.4134 55.0541 58.3374 54.4269 58.1871C53.7979 58.0367 53.2299 57.7901 52.723 57.4455C52.2161 57.1026 51.7991 56.66 51.4719 56.1178C51.1447 55.5755 50.9514 54.9134 50.8921 54.1296H53.8843C53.9572 54.4302 54.0776 54.6802 54.2471 54.8796C54.4167 55.0789 54.6184 55.2377 54.8541 55.3593C55.0897 55.4792 55.3559 55.5671 55.6526 55.6211C55.9493 55.6752 56.2544 55.7022 56.5681 55.7022C56.7613 55.7022 56.9665 55.6836 57.1852 55.6482C57.4022 55.6127 57.5954 55.5485 57.765 55.459C57.9345 55.3694 58.0769 55.2478 58.1905 55.0975C58.3058 54.9471 58.3634 54.763 58.3634 54.5468C58.3634 54.2343 58.2515 53.9961 58.0277 53.8339C57.8039 53.6718 57.5225 53.5485 57.1852 53.464C56.3629 53.2833 55.5949 53.1025 54.8829 52.9218C54.1692 52.741 53.5436 52.5062 53.0062 52.2174C52.4687 51.9285 52.0449 51.5484 51.7364 51.0788C51.4278 50.6092 51.2735 49.9893 51.2735 49.2173C51.2735 48.4453 51.4312 47.8085 51.7448 47.3017C52.0585 46.7949 52.4603 46.3963 52.9502 46.1007C53.4402 45.805 53.9861 45.6006 54.5913 45.4858C55.1965 45.3709 55.7882 45.3135 56.368 45.3135C56.997 45.3371 57.5802 45.43 58.1176 45.5939C58.655 45.756 59.1297 46.0061 59.5417 46.3439C59.9519 46.6817 60.2876 47.1007 60.5487 47.599C60.8081 48.099 60.9742 48.6919 61.0471 49.3794H58.1634H58.1651Z" fill="#B2B5C8"/>
<path id="Vector_6" d="M65.5533 56.1549L64.7735 58.2681H61.5829L66.6417 45.4756H69.7968L74.7827 58.2681H71.5735L70.8123 56.1549H65.5533ZM66.4603 53.5163H69.9053C69.6272 52.7089 69.3458 51.9048 69.0627 51.1041C68.7779 50.3034 68.4914 49.4993 68.2015 48.6919L66.4603 53.5163Z" fill="#B2B5C8"/>
<path id="Vector_7" d="M79.3719 45.4775L82.8711 51.2952L86.3347 45.4775H89.744V58.2701H86.789V49.7969L83.434 55.3612H82.2015L78.8108 49.7969V58.2701H75.8558V45.4775H79.3736H79.3719Z" fill="#B2B5C8"/>
<path id="Vector_8" d="M94.7706 56.1549L93.9908 58.2681H90.8002L95.859 45.4756H99.014L104 58.2681H100.791L100.03 56.1549H94.7706ZM95.6776 53.5163H99.1225C98.8445 52.7089 98.5631 51.9048 98.28 51.1041C97.9951 50.3034 97.7086 49.4993 97.4187 48.6919L95.6776 53.5163Z" fill="#B2B5C8"/>
</g>
<g id="Group_2">
<path id="Vector_9" d="M23.6312 71.5809V65.5909H21.3984V64.5571H27.032V65.5909H24.7891V71.5809H23.6329H23.6312Z" fill="#B2B5C8"/>
<path id="Vector_10" d="M27.7559 69.3445C27.7694 69.537 27.8084 69.7161 27.8762 69.8817C27.9424 70.0472 28.0339 70.1908 28.1509 70.3141C28.2679 70.4374 28.4103 70.5337 28.5798 70.6063C28.7493 70.679 28.9477 70.7161 29.1732 70.7161C29.4122 70.7161 29.6326 70.6739 29.831 70.5878C30.031 70.5016 30.1768 70.3529 30.27 70.1401H31.4364C31.3703 70.4053 31.2618 70.6334 31.1126 70.8259C30.9634 71.0185 30.7871 71.1756 30.5837 71.2972C30.3802 71.4205 30.1581 71.5101 29.9157 71.5658C29.6733 71.6216 29.4156 71.6503 29.1426 71.6503C28.7239 71.6503 28.356 71.5878 28.0407 71.4611C27.7253 71.3361 27.4609 71.1536 27.2473 70.9155C27.0337 70.6773 26.876 70.3935 26.7743 70.0658C26.6709 69.7381 26.62 69.3681 26.62 68.9576C26.62 68.5472 26.6759 68.1975 26.7895 67.8698C26.9031 67.5421 27.0676 67.2583 27.2829 67.0201C27.4982 66.7819 27.7593 66.5944 28.0661 66.4593C28.3713 66.3241 28.7205 66.2549 29.1121 66.2549C29.5241 66.2549 29.8801 66.3225 30.1785 66.4593C30.4769 66.5944 30.7278 66.7785 30.9312 67.01C31.133 67.2414 31.2855 67.5134 31.3856 67.8242C31.4856 68.135 31.5348 68.4728 31.5348 68.8377C31.5348 69.01 31.5246 69.1789 31.5042 69.3445H27.7559ZM30.4277 68.4897C30.4141 68.0928 30.2887 67.7836 30.048 67.5657C29.8089 67.3461 29.5004 67.238 29.1206 67.238C28.9087 67.238 28.7222 67.2718 28.5628 67.3377C28.4035 67.4036 28.2696 67.4931 28.1594 67.6063C28.0492 67.7194 27.961 67.8512 27.8949 68.0032C27.8288 68.1553 27.7847 68.3174 27.766 68.4897H30.4277Z" fill="#B2B5C8"/>
<path id="Vector_11" d="M34.8119 71.6503C34.3864 71.6503 34.0185 71.5861 33.7049 71.456C33.3929 71.3276 33.1318 71.1452 32.9216 70.9104C32.7114 70.6756 32.5554 70.3935 32.4537 70.0658C32.3503 69.7381 32.2994 69.3749 32.2994 68.9779C32.2994 68.5809 32.3537 68.2161 32.4639 67.885C32.5741 67.5539 32.7385 67.2701 32.9572 67.0302C33.1759 66.7921 33.4421 66.6029 33.754 66.4643C34.066 66.3258 34.4288 66.2549 34.8407 66.2549C35.446 66.2549 35.9478 66.3917 36.3462 66.667C36.7446 66.9424 36.9972 67.3765 37.104 67.9728H35.9376C35.8783 67.7414 35.7477 67.5657 35.5494 67.4458C35.3493 67.3259 35.1069 67.2667 34.8221 67.2667C34.5695 67.2667 34.3542 67.3123 34.1745 67.4052C33.9948 67.4982 33.849 67.6232 33.7354 67.7836C33.6218 67.9424 33.5404 68.1265 33.4913 68.3343C33.4421 68.5438 33.4167 68.76 33.4167 68.9847C33.4167 69.2093 33.4438 69.4357 33.4963 69.6401C33.5489 69.8462 33.632 70.0219 33.7456 70.1722C33.8591 70.3225 34.0049 70.4408 34.1846 70.5303C34.3643 70.6198 34.5797 70.6638 34.8323 70.6638C35.1306 70.6638 35.3782 70.5979 35.5748 70.4644C35.7715 70.3327 35.8952 70.157 35.9495 69.9374H37.126C37.0735 70.2347 36.9752 70.4932 36.8311 70.7128C36.6886 70.9324 36.514 71.1097 36.3072 71.2499C36.1004 71.3884 35.8715 71.4898 35.6189 71.5523C35.3663 71.6148 35.0967 71.6469 34.8119 71.6469V71.6503Z" fill="#B2B5C8"/>
<path id="Vector_12" d="M38.0449 71.5809V64.5571H39.1808V67.0707C39.3673 66.792 39.608 66.5842 39.903 66.4457C40.198 66.3072 40.5099 66.2362 40.8354 66.2362C41.2067 66.2362 41.522 66.2987 41.778 66.4254C42.034 66.5521 42.2425 66.7227 42.4053 66.9373C42.568 67.1535 42.685 67.4085 42.7545 67.7075C42.824 68.0065 42.8596 68.3326 42.8596 68.6907V71.5809H41.7238V68.8697C41.7238 68.6451 41.7068 68.4339 41.6729 68.238C41.639 68.0437 41.5797 67.8697 41.4932 67.7211C41.4067 67.5724 41.2847 67.4542 41.1236 67.368C40.9626 67.2819 40.7608 67.2396 40.515 67.2396C40.3031 67.2396 40.103 67.2937 39.9166 67.4035C39.7301 67.5133 39.5826 67.6569 39.4724 67.8359C39.3622 68.015 39.2859 68.2059 39.2435 68.4069C39.2011 68.6096 39.1791 68.8055 39.1791 68.9981V71.5809H38.0432H38.0449Z" fill="#B2B5C8"/>
<path id="Vector_13" d="M44.0464 71.581V66.3461H45.1331L45.1924 67.0708C45.3857 66.7988 45.6264 66.5961 45.9146 66.4593C46.2028 66.3241 46.5114 66.2549 46.8369 66.2549C47.2082 66.2549 47.5235 66.3174 47.7795 66.4441C48.0355 66.5708 48.244 66.7414 48.4085 66.961C48.5712 67.1789 48.6882 67.4373 48.7577 67.7363C48.8272 68.0353 48.8628 68.3597 48.8628 68.7093V71.581H47.7269V68.8783C47.7269 68.6536 47.7117 68.4441 47.6812 68.2532C47.6507 68.0607 47.593 67.8901 47.5066 67.7414C47.4201 67.5927 47.298 67.4745 47.1421 67.3884C46.9861 67.3022 46.7843 67.26 46.5385 67.26C46.3063 67.26 46.0943 67.3157 45.9045 67.4289C45.7146 67.5421 45.5688 67.6873 45.4654 67.8664C45.362 68.0455 45.2891 68.2431 45.2467 68.4627C45.2026 68.6823 45.1823 68.8901 45.1823 69.0894V71.5827H44.0464V71.581Z" fill="#B2B5C8"/>
<path id="Vector_14" d="M52.3585 66.2568C52.7773 66.2568 53.1452 66.3227 53.4656 66.4562C53.7843 66.5896 54.0556 66.7721 54.2776 67.0069C54.4997 67.2417 54.6676 67.5254 54.7812 67.8565C54.8947 68.1876 54.9507 68.5559 54.9507 68.9596C54.9507 69.3633 54.8964 69.74 54.7862 70.0677C54.676 70.3954 54.5116 70.6792 54.2929 70.9174C54.0742 71.1556 53.803 71.338 53.4808 71.463C53.1587 71.5897 52.7841 71.6522 52.3602 71.6522C51.9364 71.6522 51.5719 71.588 51.2532 71.458C50.9345 71.3279 50.6666 71.1471 50.4513 70.9123C50.2343 70.6775 50.0715 70.3938 49.963 70.0627C49.8545 69.7316 49.7986 69.3633 49.7986 68.9596C49.7986 68.5559 49.8528 68.1876 49.963 67.8565C50.0732 67.5254 50.2377 67.2417 50.4564 67.0069C50.6768 66.7721 50.9446 66.5879 51.2634 66.4562C51.5821 66.3244 51.9483 66.2568 52.3602 66.2568H52.3585ZM52.3585 70.6674C52.6179 70.6674 52.8383 70.6218 53.0214 70.534C53.2045 70.4444 53.3537 70.3245 53.4707 70.1708C53.5876 70.0187 53.6724 69.8397 53.7301 69.6336C53.786 69.4275 53.8148 69.2062 53.8148 68.968C53.8148 68.7299 53.786 68.5069 53.7301 68.2974C53.6741 68.088 53.5876 67.9089 53.4707 67.7552C53.3537 67.6031 53.2045 67.4832 53.0214 67.3971C52.8383 67.3109 52.6179 67.2687 52.3585 67.2687C52.0991 67.2687 51.8906 67.3109 51.7109 67.3971C51.5312 67.4832 51.382 67.6015 51.2617 67.7552C51.143 67.9072 51.0548 68.088 50.9972 68.2974C50.9395 68.5069 50.9124 68.7299 50.9124 68.968C50.9124 69.2062 50.9412 69.4292 50.9972 69.6336C51.0531 69.838 51.1396 70.0171 51.2566 70.1708C51.3735 70.3228 51.5227 70.4444 51.7058 70.534C51.8889 70.6235 52.1059 70.6674 52.3585 70.6674Z" fill="#B2B5C8"/>
<path id="Vector_15" d="M55.9475 71.5809V64.5571H57.0834V71.5809H55.9475Z" fill="#B2B5C8"/>
<path id="Vector_16" d="M60.647 66.2568C61.0657 66.2568 61.4336 66.3227 61.754 66.4562C62.0728 66.5896 62.344 66.7721 62.5661 67.0069C62.7882 67.2417 62.956 67.5254 63.0696 67.8565C63.1832 68.1876 63.2391 68.5559 63.2391 68.9596C63.2391 69.3633 63.1849 69.74 63.0747 70.0677C62.9645 70.3954 62.8001 70.6792 62.5814 70.9174C62.3627 71.1556 62.0914 71.338 61.7693 71.463C61.4472 71.5897 61.0725 71.6522 60.6487 71.6522C60.2248 71.6522 59.8603 71.588 59.5416 71.458C59.2229 71.3296 58.955 71.1471 58.7397 70.9123C58.5227 70.6775 58.36 70.3938 58.2515 70.0627C58.1413 69.7316 58.087 69.3633 58.087 68.9596C58.087 68.5559 58.1413 68.1876 58.2515 67.8565C58.3617 67.5254 58.5261 67.2417 58.7448 67.0069C58.9652 66.7721 59.2331 66.5879 59.5518 66.4562C59.8705 66.3244 60.2367 66.2568 60.6487 66.2568H60.647ZM60.647 70.6674C60.9064 70.6674 61.1268 70.6218 61.3099 70.534C61.493 70.4444 61.6421 70.3245 61.7591 70.1708C61.8761 70.0187 61.9609 69.8397 62.0185 69.6336C62.0745 69.4275 62.1033 69.2062 62.1033 68.968C62.1033 68.7299 62.0745 68.5069 62.0185 68.2974C61.9626 68.088 61.8761 67.9089 61.7591 67.7552C61.6421 67.6031 61.493 67.4832 61.3099 67.3971C61.1268 67.3109 60.9064 67.2687 60.647 67.2687C60.3876 67.2687 60.1791 67.3109 59.9994 67.3971C59.8197 67.4832 59.6705 67.6015 59.5501 67.7552C59.4314 67.9072 59.3433 68.088 59.2856 68.2974C59.2297 68.5069 59.2009 68.7299 59.2009 68.968C59.2009 69.2062 59.2297 69.4292 59.2856 69.6336C59.3416 69.838 59.428 70.0171 59.545 70.1708C59.662 70.3228 59.8112 70.4444 59.9943 70.534C60.1774 70.6235 60.3944 70.6674 60.647 70.6674Z" fill="#B2B5C8"/>
<path id="Vector_17" d="M69.1931 70.6569C69.1796 70.9491 69.1728 71.2396 69.1728 71.5302C69.1728 71.8207 69.1321 72.1164 69.0541 72.4137C68.8947 72.9762 68.6048 73.3968 68.1861 73.6755C67.7673 73.9542 67.2452 74.0928 66.6213 74.0928C66.328 74.0928 66.0517 74.059 65.7889 73.9931C65.5261 73.9272 65.2905 73.8242 65.0803 73.6857C64.87 73.5471 64.6937 73.3698 64.5462 73.1535C64.4004 72.939 64.3038 72.6789 64.2563 72.3731H65.443C65.4956 72.6113 65.638 72.7904 65.8669 72.9103C66.0958 73.0285 66.35 73.0894 66.6298 73.0894C66.9485 73.0894 67.2028 73.0319 67.3927 72.9154C67.5826 72.7988 67.7267 72.64 67.8267 72.439C67.9267 72.2363 67.9894 72.0049 68.0166 71.743C68.0437 71.4812 68.0572 71.2059 68.0572 70.9136C67.8911 71.1721 67.6775 71.3613 67.4147 71.4795C67.1519 71.5995 66.8247 71.662 66.4331 71.6687C65.9805 71.662 65.6075 71.5876 65.3108 71.4457C65.0158 71.3038 64.77 71.1096 64.5784 70.8646C64.3852 70.6197 64.2428 70.3376 64.1495 70.02C64.0563 69.7024 64.0105 69.3646 64.0105 69.0065C64.0105 68.6095 64.0614 68.2446 64.1648 67.9136C64.2682 67.5825 64.4225 67.2936 64.6293 67.0487C64.8344 66.8037 65.0904 66.6112 65.3973 66.4726C65.7024 66.3341 66.0585 66.2632 66.4636 66.2632C66.8095 66.2632 67.1163 66.3206 67.3859 66.4372C67.6555 66.5537 67.8894 66.7294 68.0895 66.9693L68.1793 66.3426H69.1965V70.6535L69.1931 70.6569ZM66.5806 67.2885C66.328 67.2885 66.111 67.3325 65.9279 67.4186C65.7448 67.5048 65.5956 67.623 65.4787 67.7767C65.3617 67.9288 65.2752 68.1095 65.2193 68.319C65.1633 68.5284 65.1345 68.7514 65.1345 68.9896C65.1345 69.2278 65.1633 69.4474 65.2193 69.6501C65.2752 69.8528 65.3634 70.0285 65.4837 70.1822C65.6024 70.3342 65.755 70.4558 65.9364 70.5454C66.1178 70.6349 66.3365 70.6788 66.5891 70.6788C66.8417 70.6788 67.0689 70.6281 67.252 70.5302C67.4351 70.4305 67.5859 70.3004 67.7063 70.1383C67.825 69.9761 67.9148 69.792 67.9759 69.5876C68.0352 69.3832 68.0657 69.1703 68.0657 68.9524C68.0657 68.7345 68.0352 68.5115 67.9759 68.3072C67.9165 68.1028 67.825 67.9254 67.7012 67.775C67.5775 67.6264 67.4232 67.5081 67.2384 67.422C67.0519 67.3358 66.8332 67.2919 66.5806 67.2919V67.2885Z" fill="#B2B5C8"/>
<path id="Vector_18" d="M71.0276 64.1704C71.2344 64.1704 71.4039 64.2329 71.5413 64.3596C71.6769 64.4863 71.7464 64.6569 71.7464 64.8765C71.7464 65.0961 71.6786 65.2566 71.5413 65.3833C71.4056 65.51 71.2344 65.5725 71.0276 65.5725C70.8089 65.5725 70.6326 65.51 70.4986 65.3833C70.3647 65.2566 70.2986 65.0894 70.2986 64.8765C70.2986 64.6637 70.3647 64.4863 70.4986 64.3596C70.6309 64.2329 70.8072 64.1704 71.0276 64.1704ZM70.4495 71.5811V66.3461H71.5853V71.5811H70.4495Z" fill="#B2B5C8"/>
<path id="Vector_19" d="M73.7367 69.3445C73.7502 69.537 73.7892 69.7161 73.8554 69.8817C73.9215 70.0472 74.013 70.1908 74.13 70.3141C74.247 70.4374 74.3894 70.5337 74.5589 70.6063C74.7285 70.679 74.9251 70.7161 75.1523 70.7161C75.3913 70.7161 75.6117 70.6739 75.8101 70.5878C76.0101 70.5016 76.1559 70.3529 76.2492 70.1401H77.4156C77.3494 70.4053 77.2409 70.6334 77.0917 70.8259C76.9426 71.0185 76.7662 71.1756 76.5628 71.2972C76.3594 71.4205 76.1373 71.5101 75.8948 71.5658C75.6524 71.6216 75.3947 71.6503 75.1218 71.6503C74.703 71.6503 74.3351 71.5878 74.0198 71.4611C73.7045 71.3361 73.44 71.1536 73.2264 70.9155C73.0145 70.6773 72.8551 70.3935 72.7534 70.0658C72.65 69.7381 72.5991 69.3681 72.5991 68.9576C72.5991 68.5472 72.6551 68.1975 72.7687 67.8698C72.8822 67.5421 73.0467 67.2583 73.262 67.0201C73.4773 66.7819 73.7384 66.5944 74.0452 66.4593C74.3504 66.3241 74.6996 66.2549 75.0913 66.2549C75.5032 66.2549 75.8592 66.3225 76.1576 66.4593C76.456 66.5944 76.7069 66.7785 76.9103 67.01C77.1121 67.2414 77.2647 67.5134 77.3647 67.8242C77.4647 68.135 77.5139 68.4728 77.5139 68.8377C77.5139 69.01 77.5037 69.1789 77.4834 69.3445H73.735H73.7367ZM76.4085 68.4897C76.395 68.0928 76.2695 67.7836 76.0288 67.5657C75.7897 67.3461 75.4812 67.238 75.1014 67.238C74.8878 67.238 74.703 67.2718 74.5437 67.3377C74.3843 67.4036 74.2487 67.4931 74.1402 67.6063C74.03 67.7194 73.9418 67.8512 73.8757 68.0032C73.8096 68.1553 73.7655 68.3174 73.7469 68.4897H76.4085Z" fill="#B2B5C8"/>
<path id="Vector_20" d="M80.3993 67.199C80.2992 67.199 80.1941 67.2057 80.0856 67.2192C79.9754 67.2328 79.872 67.2615 79.7771 67.3037C79.6821 67.3459 79.6008 67.4084 79.538 67.4878C79.4753 67.5672 79.4431 67.6703 79.4431 67.7953C79.4431 67.9338 79.4906 68.0436 79.5872 68.123C79.6838 68.2024 79.7974 68.2666 79.9313 68.3172C80.0636 68.3679 80.206 68.4068 80.3552 68.4372C80.5044 68.4676 80.6332 68.4912 80.74 68.5115C81.0265 68.5706 81.2842 68.6348 81.5131 68.7007C81.742 68.7666 81.9369 68.8544 82.0963 68.9642C82.2556 69.074 82.3811 69.2142 82.4709 69.3865C82.5608 69.5588 82.6049 69.7835 82.6049 70.0622C82.6049 70.3595 82.5438 70.6112 82.4201 70.8173C82.2963 71.0234 82.137 71.1872 81.942 71.3089C81.7453 71.4322 81.5233 71.5183 81.274 71.5724C81.0248 71.6247 80.7671 71.6518 80.501 71.6518C80.2348 71.6518 79.972 71.6247 79.7126 71.5724C79.4533 71.52 79.2159 71.4305 79.0006 71.3038C78.7853 71.1771 78.6056 71.0116 78.4615 70.8021C78.3191 70.5926 78.2309 70.3409 78.197 70.0419H79.3431C79.3685 70.1737 79.4261 70.2835 79.5126 70.3697C79.5991 70.4558 79.7008 70.5251 79.8161 70.5791C79.933 70.6315 80.0534 70.6687 80.1806 70.6889C80.306 70.7092 80.423 70.7193 80.5298 70.7193C80.6095 70.7193 80.7078 70.7126 80.8231 70.6991C80.9401 70.6855 81.0469 70.6568 81.1469 70.6095C81.2469 70.5639 81.3317 70.5014 81.4012 70.4254C81.4707 70.3494 81.5063 70.2514 81.5063 70.1332C81.5063 70.02 81.4792 69.9271 81.4266 69.8494C81.3741 69.7734 81.3029 69.7092 81.213 69.6551C81.1232 69.6027 81.0147 69.5605 80.8892 69.5318C80.7621 69.5014 80.6298 69.471 80.4908 69.4372C80.2721 69.3967 80.0365 69.3477 79.7872 69.2885C79.538 69.2294 79.3058 69.1517 79.0888 69.0554C78.8735 68.9591 78.6954 68.8156 78.5547 68.623C78.4157 68.4304 78.3445 68.1855 78.3445 67.8882C78.3445 67.5706 78.4072 67.3088 78.5344 67.1044C78.6598 66.8983 78.8226 66.7311 79.0226 66.6027C79.2227 66.4726 79.4448 66.3831 79.6906 66.3341C79.9364 66.2851 80.1789 66.2598 80.4179 66.2598C80.996 66.2598 81.469 66.3915 81.8386 66.6567C82.2082 66.9219 82.4082 67.3054 82.4421 67.8088H81.3758C81.3419 67.5976 81.2351 67.4456 81.052 67.3561C80.8689 67.2665 80.6519 67.2159 80.3993 67.2024V67.199Z" fill="#B2B5C8"/>
</g>
<g id="Group_3">
<path id="Vector_21" d="M69.1694 7.95612C69.1694 7.61489 68.9253 7.19596 68.6286 7.02704L56.6206 0.189049C56.4646 0.0995197 56.2324 0.131615 56.1069 0.258307C55.266 0.9965 54.6659 1.59449 53.9267 2.43403C53.7894 2.57255 53.686 2.83438 53.6656 3.03371C53.4452 5.26011 53.1909 7.78888 53.864 9.95785C54.3845 11.6353 55.4339 13.1285 56.8308 14.1911C58.2905 15.2992 60.0943 15.9039 61.9253 15.9039H61.9388V18.0222C57.392 18.0357 53.6928 21.5916 53.4808 26.0798C53.469 26.3248 53.5809 26.5545 53.7945 26.6913L66.7637 34.0631C66.935 34.1493 67.1486 34.1239 67.2927 33.9973C67.8793 33.4567 68.4387 32.8891 68.9795 32.3013C69.083 32.1982 69.1677 31.9938 69.1677 31.8469V7.95612H69.1694Z" fill="#B2B5C8"/>
<path id="Vector_22" d="M34.8306 26.2503C34.8306 26.5915 35.0747 27.0105 35.3714 27.1794L47.3777 34.0174C47.5337 34.1069 47.7659 34.0748 47.8914 33.9481C48.7323 33.2099 49.3324 32.6119 50.0716 31.7724C50.2089 31.6339 50.3123 31.3721 50.3327 31.1727C50.5531 28.9463 50.8074 26.4176 50.1343 24.2486C49.6138 22.5712 48.5644 21.0779 47.1675 20.0154C45.7078 18.9072 43.904 18.3025 42.073 18.3025H42.0595V16.1842C46.6063 16.1707 50.3055 12.6149 50.5175 8.12659C50.5293 7.88165 50.4174 7.65192 50.2038 7.51509L37.2345 0.143302C37.0633 0.0571515 36.8497 0.08249 36.7056 0.209182C36.119 0.749735 35.5596 1.31732 35.0187 1.90517C34.9153 2.00821 34.8306 2.21261 34.8306 2.35957V26.2503Z" fill="#B2B5C8"/>
</g>
</g>
<defs>
<clipPath id="clip0_1422_35053">
<rect width="104" height="74" fill="white" transform="translate(0 0.0927734)"/>
</clipPath>
</defs>
</svg>
