<svg width="width" height="height" viewBox="0 0 24 25" fill="none" xmlns="http://www.w3.org/2000/svg">
<g id="nova wallet 24">
<rect y="0.472656" width="24" height="24" rx="6" fill="#008EFF"/>
<path id="Star" d="M20 12.4726V12.6824C18.6944 12.889 15.8912 13.369 14.512 13.8935C14.0192 14.0811 13.6288 14.4657 13.4368 14.9521C12.9088 16.3158 12.4192 19.1164 12.2112 20.4198H11.7888C11.5808 19.1164 11.0912 16.3158 10.5632 14.9521C10.3712 14.4657 9.9776 14.0779 9.488 13.8935C8.1088 13.369 5.3056 12.889 4 12.6824V12.2628C5.3056 12.0561 8.1088 11.5761 9.488 11.0516C9.9808 10.8641 10.3712 10.4794 10.5632 9.99305C11.0912 8.62931 11.5808 5.82873 11.7888 4.52539H12.2112C12.4192 5.82873 12.9088 8.62931 13.4368 9.99305C13.6288 10.4794 14.0224 10.8672 14.512 11.0516C15.8912 11.5761 18.6944 12.0561 20 12.2628V12.4726Z" fill="white"/>
</g>
</svg>
