<svg width="width" height="height" viewBox="0 0 33 33" fill="none" xmlns="http://www.w3.org/2000/svg">
<g id="Money check pen 1">
<path id="Vector" d="M9.72396 19.3042H17.0573M9.72396 13.9709H23.0573M13.724 25.9709H8.65729C7.16382 25.9709 6.41708 25.9709 5.84665 25.6802C5.34488 25.4246 4.93693 25.0166 4.68128 24.5149C4.39062 23.9445 4.39063 23.1977 4.39063 21.7042V11.5709C4.39063 10.0774 4.39062 9.33065 4.68128 8.76023C4.93693 8.25845 5.34488 7.85051 5.84665 7.59485C6.41708 7.3042 7.16382 7.3042 8.65729 7.3042H24.124C25.6174 7.3042 26.3642 7.3042 26.9346 7.59485C27.4364 7.85051 27.8444 8.25845 28.1 8.76023C28.3906 9.33065 28.3906 10.0774 28.3906 11.5709V11.9709M19.0573 27.3042L21.7573 26.7642C21.9926 26.7171 22.1104 26.6935 22.2201 26.6505C22.3176 26.6123 22.4102 26.5627 22.496 26.5029C22.5928 26.4354 22.6776 26.3506 22.8474 26.1807L28.3906 20.6375C29.127 19.9011 29.127 18.7073 28.3906 17.9709C27.6542 17.2345 26.4604 17.2345 25.724 17.9709L20.1808 23.5141C20.0109 23.6839 19.9261 23.7687 19.8586 23.8655C19.7988 23.9513 19.7492 24.0439 19.711 24.1414C19.668 24.2511 19.6444 24.3689 19.5973 24.6042L19.0573 27.3042Z" stroke="#0080FF" stroke-width="2" stroke-linecap="round" stroke-linejoin="round"/>
</g>
</svg>
