<svg width="width" height="height" viewBox="0 0 188 188" fill="none" xmlns="http://www.w3.org/2000/svg">
<g id="Group 156351">
<g id="BOX">
<g id="Group">
<path id="Vector" d="M29.1954 77.458V154.135L97.3465 187.138V106.061L29.1954 77.458Z" fill="#DDE0E9"/>
<path id="Vector_2" d="M165.277 77.458V154.135L97.3464 187.138V106.061L165.277 77.458Z" fill="#DDE0E9"/>
<path id="Vector_3" d="M97.3464 49.9009L165.057 77.1283L97.3464 106.061L29.1953 77.2933L97.3464 49.9009Z" fill="#DDE0E9"/>
</g>
</g>
<g id="Cover_1_">
<g id="Group_2">
<path id="Vector_4" opacity="0.35" d="M165.552 90.3865V97.8122L97.3459 127.075L29.5248 97.5922V90.1665L165.552 90.3865Z" fill="#DDE0E9"/>
<g id="Group_3">
<path id="Vector_5" d="M169.952 88.4592L97.3453 119.647L97.4003 75.8081L169.952 75.8631V88.4592Z" fill="#DDE0E9"/>
<path id="Vector_6" d="M97.3461 75.8093L24.7396 75.2593V88.0754C60.8229 103.752 41.5161 95.3361 97.3461 119.593V75.8093Z" fill="#DDE0E9"/>
<path id="Vector_7" d="M97.3461 49.9561L170.008 75.4783L97.3461 106.061L24.7396 75.2583L97.3461 49.9561Z" fill="#DDE0E9"/>
<path id="Vector_8" d="M41.956 74.7633L99.1061 99.2405C100.261 99.7356 100.261 101.386 99.0511 101.881C97.676 102.431 96.1909 102.376 94.8707 101.826L36.8406 76.9085C35.7405 76.4135 35.8505 74.8183 37.0056 74.4883C38.6557 73.9933 40.4159 74.1033 41.956 74.7633Z" fill="#DDE0E9"/>
</g>
</g>
</g>
<g id="Ribbons_1_">
<g id="Group_4">
<path id="Vector_9" d="M71.4397 58.4272L49.2766 66.8084L88.9313 78.6691C94.2117 76.5789 99.6022 74.4337 104.828 72.0135L71.4397 58.4272Z" fill="#DDE0E9"/>
<g id="Group_5">
<path id="Vector_10" d="M141.681 87.0295L104.828 72.0132C99.6021 74.4334 94.2116 76.5786 88.9312 78.6688L125.564 94.1802L141.681 87.0295Z" fill="#DDE0E9"/>
<path id="Vector_11" d="M141.791 87.0298L141.626 165.687L125.455 173.553V93.7954L141.791 87.0298Z" fill="#DDE0E9"/>
</g>
<path id="Vector_12" d="M123.31 58.8125L89.2615 72.1787C94.5419 74.4889 99.9874 76.4691 105.103 78.7793L139.536 64.643L123.31 58.8125Z" fill="#DDE0E9"/>
<g id="Group_6">
<path id="Vector_13" d="M51.9681 86.7544L67.9746 93.96L105.103 78.7236C99.9874 76.4134 94.542 74.4883 89.2615 72.123L51.9681 86.7544Z" fill="#DDE0E9"/>
<path id="Vector_14" d="M51.9683 86.645V165.247L68.0847 173.058V93.7957L51.9683 86.645Z" fill="#DDE0E9"/>
</g>
</g>
<path id="Vector_15" d="M66.1033 85.3233L71.4938 87.5785C72.6489 88.0735 72.6489 89.7237 71.4388 90.2187C70.0636 90.7688 68.5785 90.7138 67.2584 90.1637L61.0428 87.4135C59.9427 86.9184 60.0527 85.3233 61.2078 84.9933C63.298 84.2782 64.5081 84.6632 66.1033 85.3233Z" fill="#DDE0E9"/>
</g>
<g id="Bow_1_">
<g id="Group_7">
<g id="Group_8">
<path id="Vector_16" d="M93.9364 79.0543C73.4196 75.094 45.5321 61.2877 45.5321 47.7015C45.5321 42.3661 49.6575 34.7754 60.6585 32.4102C49.9325 47.1515 78.04 62.3328 101.087 68.8784C99.2169 71.1886 97.1817 76.5791 93.9364 79.0543Z" fill="#DDE0E9"/>
<path id="Vector_17" d="M91.1312 78.2283C83.4305 63.487 60.3834 30.3741 49.6575 38.6248C52.6827 34.4994 60.1084 30.9241 64.9488 29.989C79.3601 27.1838 99.822 61.0118 101.582 69.0425C97.2367 72.7829 96.0266 75.2031 91.1312 78.2283Z" fill="#DDE0E9"/>
</g>
<g id="Group_9">
<path id="Vector_18" d="M101.637 71.4087C123.804 81.4746 144.706 74.654 149.656 64.8081C148.171 74.874 143.44 79.8795 135.19 83.9498C122.154 90.3304 98.6664 85.0499 91.6808 77.4042C94.156 77.7343 98.0064 75.8641 101.637 71.4087Z" fill="#DDE0E9"/>
<path id="Vector_19" d="M122.264 49.3518C113.628 52.5971 103.837 61.1778 93.8262 77.5143C99.9867 67.9434 107.082 64.5881 111.703 62.993C132.22 55.9524 146.301 75.2591 129.414 85.655C164.342 75.8641 148.336 39.5059 122.264 49.3518Z" fill="#DDE0E9"/>
</g>
</g>
<path id="Vector_20" d="M69.459 33.7316C69.459 33.7316 65.5536 33.2365 60.4932 35.6017L69.459 33.7316Z" fill="#DDE0E9"/>
<path id="Vector_21" d="M122.319 52.9805C122.319 52.9805 118.524 54.1356 114.948 58.426L122.319 52.9805Z" fill="#DDE0E9"/>
</g>
<g id="Group 156350">
<path id="Vector_22" d="M59.0043 14.6558V15.02C56.7532 15.3786 51.9198 16.2118 49.5417 17.1222C48.692 17.4477 48.0188 18.1153 47.6878 18.9595C46.7774 21.3266 45.9332 26.1876 45.5745 28.4498H44.8462C44.4876 26.1876 43.6434 21.3266 42.733 18.9595C42.4019 18.1153 41.7232 17.4422 40.8791 17.1222C38.501 16.2118 33.6676 15.3786 31.4164 15.02V14.2916C33.6676 13.933 38.501 13.0998 40.8791 12.1894C41.7288 11.8639 42.4019 11.1963 42.733 10.3521C43.6434 7.98503 44.4876 3.12403 44.8462 0.861816H45.5745C45.9332 3.12403 46.7774 7.98503 47.6878 10.3521C48.0188 11.1963 48.6975 11.8694 49.5417 12.1894C51.9198 13.0998 56.7532 13.933 59.0043 14.2916V14.6558Z" fill="#DDE0E9"/>
</g>
<g id="Group 156349">
<path id="Vector_23" d="M122.806 18.9317V19.1829C121.253 19.4304 117.918 20.0053 116.277 20.6335C115.69 20.8581 115.226 21.3188 114.998 21.9013C114.369 23.5346 113.787 26.8888 113.539 28.4498H113.037C112.789 26.8888 112.207 23.5346 111.579 21.9013C111.35 21.3188 110.882 20.8543 110.299 20.6335C108.659 20.0053 105.323 19.4304 103.77 19.1829V18.6804C105.323 18.4329 108.659 17.858 110.299 17.2298C110.886 17.0052 111.35 16.5445 111.579 15.962C112.207 14.3287 112.789 10.9745 113.037 9.41357H113.539C113.787 10.9745 114.369 14.3287 114.998 15.962C115.226 16.5445 115.694 17.009 116.277 17.2298C117.918 17.858 121.253 18.4329 122.806 18.6804V18.9317Z" fill="#DDE0E9"/>
</g>
<g id="Group 156348">
<path id="Vector_24" d="M16.8107 66.1876V66.4026C15.4818 66.6143 12.6287 67.1061 11.2249 67.6435C10.7233 67.8357 10.3259 68.2298 10.1305 68.7281C9.59307 70.1254 9.09474 72.9949 8.88303 74.3303H8.4531C8.24139 72.9949 7.74305 70.1254 7.20564 68.7281C7.01021 68.2298 6.60959 67.8324 6.11126 67.6435C4.70747 67.1061 1.85427 66.6143 0.525391 66.4026V65.9726C1.85427 65.7609 4.70747 65.2691 6.11126 64.7317C6.61285 64.5395 7.01021 64.1454 7.20564 63.6471C7.74305 62.2498 8.24139 59.3803 8.4531 58.0449H8.88303C9.09474 59.3803 9.59307 62.2498 10.1305 63.6471C10.3259 64.1454 10.7265 64.5428 11.2249 64.7317C12.6287 65.2691 15.4818 65.7609 16.8107 65.9726V66.1876Z" fill="#DDE0E9"/>
</g>
<g id="Group 156347">
<path id="Vector_25" d="M187.475 29.8243V30.1884C185.224 30.5471 180.39 31.3802 178.012 32.2906C177.163 32.6162 176.489 33.2838 176.158 34.128C175.248 36.495 174.404 41.356 174.045 43.6182H173.317C172.958 41.356 172.114 36.495 171.204 34.128C170.872 33.2838 170.194 32.6106 169.35 32.2906C166.972 31.3802 162.138 30.5471 159.887 30.1884V29.4601C162.138 29.1015 166.972 28.2683 169.35 27.3579C170.199 27.0324 170.872 26.3647 171.204 25.5205C172.114 23.1535 172.958 18.2925 173.317 16.0303H174.045C174.404 18.2925 175.248 23.1535 176.158 25.5205C176.489 26.3647 177.168 27.0379 178.012 27.3579C180.39 28.2683 185.224 29.1015 187.475 29.4601V29.8243Z" fill="#DDE0E9"/>
</g>
</g>
</svg>
