<svg width="width" height="height" viewBox="0 0 57 59" fill="none" xmlns="http://www.w3.org/2000/svg">
<g id="Present_ 1" clip-path="url(#clip0_1422_38365)">
<g id="Group 156351">
<g id="BOX">
<g id="Group">
<path id="Vector" d="M10.1069 22.2397V44.0024L29.4498 53.3694V30.3578L10.1069 22.2397Z" fill="#7794FC" stroke="#4340CC" stroke-width="0.6279" stroke-miterlimit="10" stroke-linecap="round" stroke-linejoin="round"/>
<path id="Vector_2" d="M48.7301 22.2397V44.0024L29.4497 53.3694V30.3578L48.7301 22.2397Z" fill="#0080FF" stroke="#4340CC" stroke-width="0.6279" stroke-miterlimit="10" stroke-linecap="round" stroke-linejoin="round"/>
<path id="Vector_3" d="M29.4498 14.4185L48.6677 22.1462L29.4498 30.358L10.1069 22.1931L29.4498 14.4185Z" fill="#4747DD" stroke="#4340CC" stroke-width="0.6279" stroke-miterlimit="10" stroke-linecap="round" stroke-linejoin="round"/>
</g>
</g>
<g id="Cover_1_">
<g id="Group_2">
<path id="Vector_4" opacity="0.35" d="M48.8081 25.9091V28.0167L29.4496 36.3221L10.2004 27.9543V25.8467L48.8081 25.9091Z" fill="#4340CC"/>
<g id="Group_3">
<path id="Vector_5" d="M50.0569 25.3622L29.4495 34.214L29.4651 21.7715L50.0569 21.7871V25.3622Z" fill="#0080FF" stroke="#4340CC" stroke-width="0.6279" stroke-miterlimit="10" stroke-linecap="round" stroke-linejoin="round"/>
<path id="Vector_6" d="M29.4497 21.7718L8.84229 21.6157V25.2532C19.0835 29.7026 13.6038 27.314 29.4497 34.1987V21.7718Z" fill="#7794FC" stroke="#4340CC" stroke-width="0.6279" stroke-miterlimit="10" stroke-linecap="round" stroke-linejoin="round"/>
<path id="Vector_7" d="M29.4497 14.4341L50.0727 21.6779L29.4497 30.358L8.84229 21.6154L29.4497 14.4341Z" fill="#7794FC" stroke="#4340CC" stroke-width="0.6279" stroke-miterlimit="10" stroke-linecap="round" stroke-linejoin="round"/>
<path id="Vector_8" d="M13.7287 21.4749L29.9492 28.4221C30.2771 28.5626 30.2771 29.031 29.9336 29.1715C29.5433 29.3276 29.1218 29.312 28.7471 29.1559L12.2768 22.0838C11.9646 21.9433 11.9958 21.4906 12.3237 21.3969C12.792 21.2564 13.2916 21.2876 13.7287 21.4749Z" fill="#B2D5F1"/>
</g>
</g>
</g>
<g id="Ribbons_1_">
<g id="Group_4">
<path id="Vector_9" d="M22.0968 16.8384L15.8064 19.2171L27.0613 22.5835C28.56 21.9902 30.09 21.3814 31.5731 20.6945L22.0968 16.8384Z" fill="#FDCD09" stroke="#F27927" stroke-width="0.6279" stroke-miterlimit="10" stroke-linecap="round" stroke-linejoin="round"/>
<g id="Group_5">
<path id="Vector_10" d="M42.0329 24.9563L31.573 20.6943C30.0899 21.3812 28.56 21.9901 27.0613 22.5833L37.4586 26.9858L42.0329 24.9563Z" fill="#FDCD09" stroke="#F27927" stroke-width="0.6279" stroke-miterlimit="10" stroke-linecap="round" stroke-linejoin="round"/>
<path id="Vector_11" d="M42.0642 24.9565L42.0173 47.2812L37.4275 49.5137V26.8768L42.0642 24.9565Z" fill="#F99B05" stroke="#F27927" stroke-width="0.6279" stroke-miterlimit="10" stroke-linecap="round" stroke-linejoin="round"/>
</g>
<path id="Vector_12" d="M36.8186 16.9478L27.155 20.7414C28.6537 21.3971 30.1993 21.9591 31.6512 22.6148L41.4241 18.6026L36.8186 16.9478Z" fill="#FDCD09" stroke="#F27927" stroke-width="0.6279" stroke-miterlimit="10" stroke-linecap="round" stroke-linejoin="round"/>
<g id="Group_6">
<path id="Vector_13" d="M16.5703 24.8783L21.1133 26.9234L31.6512 22.599C30.1993 21.9433 28.6537 21.3969 27.155 20.7256L16.5703 24.8783Z" fill="#FDCD09" stroke="#F27927" stroke-width="0.6279" stroke-miterlimit="10" stroke-linecap="round" stroke-linejoin="round"/>
<path id="Vector_14" d="M16.5703 24.8472V47.1562L21.1445 49.3731V26.8767L16.5703 24.8472Z" fill="#FDCD09" stroke="#F27927" stroke-width="0.6279" stroke-miterlimit="10" stroke-linecap="round" stroke-linejoin="round"/>
</g>
</g>
<path id="Vector_15" d="M20.5822 24.4722L22.1122 25.1122C22.44 25.2527 22.44 25.7211 22.0966 25.8616C21.7063 26.0177 21.2848 26.0021 20.9101 25.846L19.146 25.0654C18.8337 24.9249 18.865 24.4722 19.1928 24.3785C19.786 24.1755 20.1295 24.2848 20.5822 24.4722Z" fill="#FCEDB0"/>
<path id="Vector_16" d="M10.1069 23.3799V24.5039" stroke="#B2D5F1" stroke-width="0.75348" stroke-miterlimit="10" stroke-linecap="round"/>
<path id="Vector_17" d="M48.8083 23.3799V24.5039" stroke="#7794FC" stroke-width="0.75348" stroke-miterlimit="10" stroke-linecap="round"/>
<path id="Vector_18" d="M11.4495 29.7964V42.9414" stroke="#B2D5F1" stroke-width="0.75348" stroke-miterlimit="10" stroke-linecap="round"/>
<path id="Vector_19" d="M47.2002 29.7495V42.8945" stroke="#7794FC" stroke-width="0.75348" stroke-miterlimit="10" stroke-linecap="round"/>
<path id="Vector_20" d="M17.7878 26.9395V46.1106" stroke="#FCEDB0" stroke-width="0.75348" stroke-miterlimit="10" stroke-linecap="round"/>
<path id="Vector_21" d="M40.6121 26.9858V46.157" stroke="#FDCD09" stroke-width="0.75348" stroke-miterlimit="10" stroke-linecap="round"/>
</g>
<g id="Bow_1_">
<g id="Group_7">
<g id="Group_8">
<path id="Vector_22" d="M28.4819 22.6928C22.6588 21.5688 14.7437 17.6502 14.7437 13.7941C14.7437 12.2798 15.9145 10.1254 19.0369 9.4541C15.9926 13.638 23.9701 17.9468 30.5114 19.8046C29.9806 20.4603 29.403 21.9903 28.4819 22.6928Z" fill="#F99B05" stroke="#F27927" stroke-width="0.6279" stroke-miterlimit="10" stroke-linecap="round" stroke-linejoin="round"/>
<path id="Vector_23" d="M27.6857 22.4584C25.5001 18.2745 18.9588 8.87627 15.9146 11.218C16.7732 10.0471 18.8808 9.03239 20.2546 8.76699C24.3449 7.97079 30.1524 17.572 30.652 19.8513C29.4186 20.9129 29.0752 21.5998 27.6857 22.4584Z" fill="#FDCD09" stroke="#F27927" stroke-width="0.6279" stroke-miterlimit="10" stroke-linecap="round" stroke-linejoin="round"/>
</g>
<g id="Group_9">
<path id="Vector_24" d="M30.6675 20.5228C36.959 23.3797 42.8914 21.4439 44.2965 18.6494C43.875 21.5063 42.5324 22.927 40.1906 24.0823C36.4907 25.8932 29.8245 24.3945 27.8418 22.2245C28.5443 22.3182 29.6371 21.7874 30.6675 20.5228Z" fill="#F99B05" stroke="#F27927" stroke-width="0.6279" stroke-miterlimit="10" stroke-linecap="round" stroke-linejoin="round"/>
<path id="Vector_25" d="M36.5219 14.2625C34.0709 15.1836 31.292 17.619 28.4507 22.2557C30.1992 19.5393 32.2131 18.5869 33.5245 18.1342C39.3476 16.1359 43.3442 21.6156 38.5514 24.5662C48.4648 21.7873 43.9218 11.468 36.5219 14.2625Z" fill="#FDCD09" stroke="#F27927" stroke-width="0.6279" stroke-miterlimit="10" stroke-linecap="round" stroke-linejoin="round"/>
</g>
</g>
<g id="Vector_26">
<path d="M21.5347 9.82913C21.5347 9.82913 20.4263 9.68862 18.99 10.3599L21.5347 9.82913Z" fill="#FCEDB0"/>
<path d="M21.5347 9.82913C21.5347 9.82913 20.4263 9.68862 18.99 10.3599" stroke="#FCEDB0" stroke-width="0.50232" stroke-miterlimit="10" stroke-linecap="round"/>
</g>
<g id="Vector_27">
<path d="M36.5375 15.2925C36.5375 15.2925 35.4603 15.6203 34.4456 16.838L36.5375 15.2925Z" fill="#FCEDB0"/>
<path d="M36.5375 15.2925C36.5375 15.2925 35.4603 15.6203 34.4456 16.838" stroke="#FCEDB0" stroke-width="0.50232" stroke-miterlimit="10" stroke-linecap="round"/>
</g>
</g>
<g id="Group 156350">
<path id="Vector_28" d="M18.5674 4.41505V4.51841C17.9285 4.6202 16.5566 4.85667 15.8817 5.11506C15.6405 5.20746 15.4495 5.39694 15.3555 5.63655C15.0971 6.30837 14.8575 7.68803 14.7557 8.3301H14.549C14.4472 7.68803 14.2076 6.30837 13.9492 5.63655C13.8553 5.39694 13.6626 5.20589 13.423 5.11506C12.7481 4.85667 11.3762 4.6202 10.7373 4.51841V4.31169C11.3762 4.2099 12.7481 3.97343 13.423 3.71504C13.6642 3.62264 13.8553 3.43316 13.9492 3.19355C14.2076 2.52173 14.4472 1.14207 14.549 0.5H14.7557C14.8575 1.14207 15.0971 2.52173 15.3555 3.19355C15.4495 3.43316 15.6421 3.62421 15.8817 3.71504C16.5566 3.97343 17.9285 4.2099 18.5674 4.31169V4.41505Z" fill="#F27927"/>
</g>
<g id="Group 156349">
<path id="Vector_29" d="M36.6759 5.6287V5.70002C36.235 5.77026 35.2884 5.93343 34.8227 6.11172C34.6563 6.17548 34.5244 6.30623 34.4596 6.47156C34.2813 6.93512 34.116 7.88712 34.0457 8.33016H33.9031C33.8328 7.88712 33.6675 6.93512 33.4892 6.47156C33.4244 6.30623 33.2915 6.1744 33.1261 6.11172C32.6604 5.93343 31.7138 5.77026 31.2729 5.70002V5.55738C31.7138 5.48714 32.6604 5.32398 33.1261 5.14568C33.2926 5.08193 33.4244 4.95118 33.4892 4.78585C33.6675 4.32228 33.8328 3.37028 33.9031 2.92725H34.0457C34.116 3.37028 34.2813 4.32228 34.4596 4.78585C34.5244 4.95118 34.6573 5.08301 34.8227 5.14568C35.2884 5.32398 36.235 5.48714 36.6759 5.55738V5.6287Z" fill="#7794FC"/>
</g>
<g id="Group 156348">
<path id="Vector_30" d="M6.59188 19.0411V19.1021C6.21471 19.1622 5.40491 19.3017 5.00648 19.4543C4.86412 19.5088 4.75134 19.6207 4.69587 19.7621C4.54334 20.1587 4.4019 20.9731 4.34182 21.3521H4.21979C4.1597 20.9731 4.01827 20.1587 3.86573 19.7621C3.81027 19.6207 3.69656 19.5079 3.55513 19.4543C3.1567 19.3017 2.34689 19.1622 1.96973 19.1021V18.98C2.34689 18.92 3.1567 18.7804 3.55513 18.6278C3.69749 18.5733 3.81027 18.4614 3.86573 18.32C4.01827 17.9234 4.1597 17.109 4.21979 16.73H4.34182C4.4019 17.109 4.54334 17.9234 4.69587 18.32C4.75134 18.4614 4.86504 18.5742 5.00648 18.6278C5.40491 18.7804 6.21471 18.92 6.59188 18.98V19.0411Z" fill="#FDCD09"/>
</g>
<g id="Group 156347">
<path id="Vector_31" d="M55.0303 8.72023V8.82358C54.3914 8.92537 53.0195 9.16184 52.3446 9.42024C52.1034 9.51263 51.9123 9.70212 51.8184 9.94172C51.56 10.6135 51.3204 11.9932 51.2186 12.6353H51.0119C50.9101 11.9932 50.6705 10.6135 50.4121 9.94172C50.3181 9.70212 50.1255 9.51107 49.8859 9.42024C49.211 9.16184 47.8391 8.92537 47.2002 8.82358V8.61687C47.8391 8.51508 49.211 8.27861 49.8859 8.02021C50.1271 7.92782 50.3181 7.73833 50.4121 7.49873C50.6705 6.82691 50.9101 5.44724 51.0119 4.80518H51.2186C51.3204 5.44724 51.56 6.82691 51.8184 7.49873C51.9123 7.73833 52.105 7.92939 52.3446 8.02021C53.0195 8.27861 54.3914 8.51508 55.0303 8.61687V8.72023Z" fill="#FDCD09"/>
</g>
</g>
</g>
<defs>
<clipPath id="clip0_1422_38365">
<rect width="56" height="58" fill="white" transform="translate(0.5 0.5)"/>
</clipPath>
</defs>
</svg>
