<svg width="width" height="height" viewBox="0 0 60 60" fill="none" xmlns="http://www.w3.org/2000/svg">
	<g id="Present_ 1" clip-path="url(#clip0_1292_41759)">
		<g id="BOX">
			<g id="Group">
				<path id="Vector" d="M10.8008 24.5513V46.3139L30.1436 55.6809V32.6693L10.8008 24.5513Z" fill="#7794FC" stroke="#4340CC" stroke-width="0.6279" stroke-miterlimit="10" stroke-linecap="round" stroke-linejoin="round" />
				<path id="Vector_2" d="M49.424 24.5513V46.3139L30.1436 55.6809V32.6693L49.424 24.5513Z" fill="#666AFF" stroke="#4340CC" stroke-width="0.6279" stroke-miterlimit="10" stroke-linecap="round" stroke-linejoin="round" />
				<path id="Vector_3" d="M30.1436 16.7297L49.3616 24.4575L30.1436 32.6692L10.8008 24.5043L30.1436 16.7297Z" fill="#4747DD" stroke="#4340CC" stroke-width="0.6279" stroke-miterlimit="10" stroke-linecap="round" stroke-linejoin="round" />
			</g>
		</g>
		<g id="Cover_1_">
			<g id="Group_2">
				<path id="Vector_4" opacity="0.35" d="M49.5019 28.2203V30.3279L30.1435 38.6333L10.8943 30.2654V28.1578L49.5019 28.2203Z" fill="#4340CC" />
				<g id="Group_3">
					<path id="Vector_5" d="M50.7507 27.6736L30.1433 36.5254L30.1589 24.0829L50.7507 24.0985V27.6736Z" fill="#666AFF" stroke="#4340CC" stroke-width="0.6279" stroke-miterlimit="10" stroke-linecap="round" stroke-linejoin="round" />
					<path id="Vector_6" d="M30.1435 24.083L9.53613 23.9269V27.5644C19.7774 32.0137 14.2977 29.6251 30.1435 36.5099V24.083Z" fill="#7794FC" stroke="#4340CC" stroke-width="0.6279" stroke-miterlimit="10" stroke-linecap="round" stroke-linejoin="round" />
					<path id="Vector_7" d="M30.1435 16.7454L50.7665 23.9892L30.1435 32.6693L9.53613 23.9267L30.1435 16.7454Z" fill="#7794FC" stroke="#4340CC" stroke-width="0.6279" stroke-miterlimit="10" stroke-linecap="round" stroke-linejoin="round" />
					<path id="Vector_8" d="M14.4226 23.7863L30.6431 30.7335C30.9709 30.874 30.9709 31.3424 30.6275 31.4829C30.2372 31.639 29.8157 31.6234 29.441 31.4673L12.9707 24.3952C12.6584 24.2547 12.6897 23.802 13.0175 23.7083C13.4859 23.5678 13.9854 23.599 14.4226 23.7863Z" fill="#B2D5F1" />
				</g>
			</g>
		</g>
		<g id="Ribbons_1_">
			<g id="Group_4">
				<path id="Vector_9" d="M22.7906 19.1495L16.5002 21.5283L27.7551 24.8946C29.2539 24.3014 30.7838 23.6925 32.2669 23.0056L22.7906 19.1495Z" fill="#FDCD09" stroke="#F27927" stroke-width="0.6279" stroke-miterlimit="10" stroke-linecap="round" stroke-linejoin="round" />
				<g id="Group_5">
					<path id="Vector_10" d="M42.7267 27.2675L32.2669 23.0055C30.7838 23.6924 29.2538 24.3013 27.7551 24.8945L38.1525 29.297L42.7267 27.2675Z" fill="#FDCD09" stroke="#F27927" stroke-width="0.6279" stroke-miterlimit="10" stroke-linecap="round" stroke-linejoin="round" />
					<path id="Vector_11" d="M42.758 27.2678L42.7112 49.5925L38.1213 51.825V29.1881L42.758 27.2678Z" fill="#F99B05" stroke="#F27927" stroke-width="0.6279" stroke-miterlimit="10" stroke-linecap="round" stroke-linejoin="round" />
				</g>
				<path id="Vector_12" d="M37.5125 19.2588L27.8489 23.0524C29.3476 23.7081 30.8931 24.2701 32.345 24.9258L42.1179 20.9136L37.5125 19.2588Z" fill="#FDCD09" stroke="#F27927" stroke-width="0.6279" stroke-miterlimit="10" stroke-linecap="round" stroke-linejoin="round" />
				<g id="Group_6">
					<path id="Vector_13" d="M17.2642 27.1896L21.8072 29.2347L32.345 24.9103C30.8931 24.2546 29.3476 23.7082 27.8489 23.0369L17.2642 27.1896Z" fill="#FDCD09" stroke="#F27927" stroke-width="0.6279" stroke-miterlimit="10" stroke-linecap="round" stroke-linejoin="round" />
					<path id="Vector_14" d="M17.2642 27.1586V49.4676L21.8384 51.6845V29.1881L17.2642 27.1586Z" fill="#FDCD09" stroke="#F27927" stroke-width="0.6279" stroke-miterlimit="10" stroke-linecap="round" stroke-linejoin="round" />
				</g>
			</g>
			<path id="Vector_15" d="M21.2761 26.7836L22.806 27.4236C23.1339 27.5641 23.1339 28.0325 22.7904 28.173C22.4001 28.3291 21.9786 28.3135 21.6039 28.1574L19.8398 27.3768C19.5276 27.2363 19.5588 26.7836 19.8867 26.6899C20.4799 26.4869 20.8234 26.5962 21.2761 26.7836Z" fill="#FCEDB0" />
			<path id="Vector_16" d="M10.8008 25.6912V26.8152" stroke="#B2D5F1" stroke-width="0.75348" stroke-miterlimit="10" stroke-linecap="round" />
			<path id="Vector_17" d="M49.5022 25.6912V26.8152" stroke="#7794FC" stroke-width="0.75348" stroke-miterlimit="10" stroke-linecap="round" />
			<path id="Vector_18" d="M12.1433 32.1074V45.2524" stroke="#B2D5F1" stroke-width="0.75348" stroke-miterlimit="10" stroke-linecap="round" />
			<path id="Vector_19" d="M47.894 32.0607V45.2057" stroke="#7794FC" stroke-width="0.75348" stroke-miterlimit="10" stroke-linecap="round" />
			<path id="Vector_20" d="M18.4817 29.2505V48.4216" stroke="#FCEDB0" stroke-width="0.75348" stroke-miterlimit="10" stroke-linecap="round" />
			<path id="Vector_21" d="M41.3059 29.2972V48.4684" stroke="#FDCD09" stroke-width="0.75348" stroke-miterlimit="10" stroke-linecap="round" />
		</g>
		<g id="Bow_1_">
			<g id="Group_7">
				<g id="Group_8">
					<path id="Vector_22" d="M29.1758 25.004C23.3526 23.8799 15.4375 19.9614 15.4375 16.1053C15.4375 14.591 16.6084 12.4366 19.7307 11.7653C16.6864 15.9492 24.664 20.258 31.2053 22.1158C30.6745 22.7715 30.0969 24.3014 29.1758 25.004Z" fill="#F99B05" stroke="#F27927" stroke-width="0.6279" stroke-miterlimit="10" stroke-linecap="round" stroke-linejoin="round" />
					<path id="Vector_23" d="M28.3796 24.7698C26.194 20.5859 19.6527 11.1877 16.6084 13.5294C17.467 12.3585 19.5746 11.3438 20.9484 11.0784C25.0387 10.2822 30.8462 19.8834 31.3458 22.1627C30.1125 23.2243 29.769 23.9112 28.3796 24.7698Z" fill="#FDCD09" stroke="#F27927" stroke-width="0.6279" stroke-miterlimit="10" stroke-linecap="round" stroke-linejoin="round" />
				</g>
				<g id="Group_9">
					<path id="Vector_24" d="M31.3614 22.8338C37.6529 25.6908 43.5853 23.7549 44.9903 20.9604C44.5688 23.8174 43.2262 25.238 40.8845 26.3933C37.1845 28.2043 30.5183 26.7055 28.5356 24.5355C29.2382 24.6292 30.331 24.0984 31.3614 22.8338Z" fill="#F99B05" stroke="#F27927" stroke-width="0.6279" stroke-miterlimit="10" stroke-linecap="round" stroke-linejoin="round" />
					<path id="Vector_25" d="M37.2158 16.5736C34.7647 17.4946 31.9859 19.9301 29.1445 24.5667C30.893 21.8503 32.9069 20.898 34.2183 20.4452C40.0415 18.447 44.0381 23.9266 39.2453 26.8772C49.1587 24.0984 44.6157 13.7791 37.2158 16.5736Z" fill="#FDCD09" stroke="#F27927" stroke-width="0.6279" stroke-miterlimit="10" stroke-linecap="round" stroke-linejoin="round" />
				</g>
			</g>
			<g id="Vector_26">
				<path d="M22.2285 12.1402C22.2285 12.1402 21.1201 11.9997 19.6838 12.671L22.2285 12.1402Z" fill="#FCEDB0" />
				<path d="M22.2285 12.1402C22.2285 12.1402 21.1201 11.9997 19.6838 12.671" stroke="#FCEDB0" stroke-width="0.50232" stroke-miterlimit="10" stroke-linecap="round" />
			</g>
			<g id="Vector_27">
				<path d="M37.2314 17.604C37.2314 17.604 36.1542 17.9319 35.1394 19.1496L37.2314 17.604Z" fill="#FCEDB0" />
				<path d="M37.2314 17.604C37.2314 17.604 36.1542 17.9319 35.1394 19.1496" stroke="#FCEDB0" stroke-width="0.50232" stroke-miterlimit="10" stroke-linecap="round" />
			</g>
		</g>
		<g id="Group 156347">
			<path id="Vector_28" d="M55.7241 14.4617V14.565C55.0852 14.6668 53.7134 14.9033 53.0384 15.1617C52.7973 15.2541 52.6062 15.4436 52.5122 15.6832C52.2538 16.355 52.0142 17.7347 51.9125 18.3767H51.7057C51.6039 17.7347 51.3643 16.355 51.1059 15.6832C51.012 15.4436 50.8194 15.2525 50.5798 15.1617C49.9048 14.9033 48.533 14.6668 47.894 14.565V14.3583C48.533 14.2565 49.9048 14.0201 50.5798 13.7617C50.8209 13.6693 51.012 13.4798 51.1059 13.2402C51.3643 12.5684 51.6039 11.1887 51.7057 10.5466H51.9125C52.0142 11.1887 52.2538 12.5684 52.5122 13.2402C52.6062 13.4798 52.7988 13.6708 53.0384 13.7617C53.7134 14.0201 55.0852 14.2565 55.7241 14.3583V14.4617Z" fill="#FDCD09" />
		</g>
		<g id="Group 156350">
			<path id="Vector_29" d="M21.5117 4.41505V4.51841C20.8728 4.6202 19.501 4.85667 18.826 5.11506C18.5848 5.20746 18.3938 5.39694 18.2998 5.63655C18.0414 6.30837 17.8018 7.68803 17.7 8.3301H17.4933C17.3915 7.68803 17.1519 6.30837 16.8935 5.63655C16.7996 5.39694 16.607 5.20589 16.3674 5.11506C15.6924 4.85667 14.3206 4.6202 13.6816 4.51841V4.31169C14.3206 4.2099 15.6924 3.97343 16.3674 3.71504C16.6085 3.62264 16.7996 3.43316 16.8935 3.19355C17.1519 2.52173 17.3915 1.14207 17.4933 0.5H17.7C17.8018 1.14207 18.0414 2.52173 18.2998 3.19355C18.3938 3.43316 18.5864 3.62421 18.826 3.71504C19.501 3.97343 20.8728 4.2099 21.5117 4.31169V4.41505Z" fill="#F27927" />
		</g>
		<g id="Group 156349">
			<path id="Vector_30" d="M39.6202 5.6287V5.70002C39.1793 5.77026 38.2327 5.93343 37.767 6.11172C37.6006 6.17548 37.4688 6.30623 37.4039 6.47156C37.2256 6.93512 37.0603 7.88712 36.9901 8.33016H36.8474C36.7772 7.88712 36.6119 6.93512 36.4336 6.47156C36.3687 6.30623 36.2358 6.1744 36.0705 6.11172C35.6048 5.93343 34.6582 5.77026 34.2173 5.70002V5.55738C34.6582 5.48714 35.6048 5.32398 36.0705 5.14568C36.2369 5.08193 36.3687 4.95118 36.4336 4.78585C36.6119 4.32228 36.7772 3.37028 36.8474 2.92725H36.9901C37.0603 3.37028 37.2256 4.32228 37.4039 4.78585C37.4688 4.95118 37.6017 5.08301 37.767 5.14568C38.2327 5.32398 39.1793 5.48714 39.6202 5.55738V5.6287Z" fill="#7794FC" />
		</g>
		<g id="Group 156348">
			<path id="Vector_31" d="M9.53622 19.0408V19.1018C9.15905 19.1619 8.34925 19.3015 7.95082 19.454C7.80846 19.5086 7.69568 19.6204 7.64021 19.7619C7.48768 20.1585 7.34624 20.9729 7.28615 21.3519H7.16413C7.10404 20.9729 6.9626 20.1585 6.81007 19.7619C6.7546 19.6204 6.6409 19.5077 6.49946 19.454C6.10103 19.3015 5.29123 19.1619 4.91406 19.1018V18.9798C5.29123 18.9197 6.10103 18.7801 6.49946 18.6276C6.64182 18.5731 6.7546 18.4612 6.81007 18.3198C6.9626 17.9232 7.10404 17.1088 7.16413 16.7297H7.28615C7.34624 17.1088 7.48768 17.9232 7.64021 18.3198C7.69568 18.4612 7.80938 18.574 7.95082 18.6276C8.34925 18.7801 9.15905 18.9197 9.53622 18.9798V19.0408Z" fill="#FDCD09" />
		</g>
	</g>
	<defs>
		<clipPath id="clip0_1292_41759">
			<rect width="59.1318" height="59.1318" fill="white" transform="translate(0.585449 0.5)" />
		</clipPath>
	</defs>
</svg>
