<svg width="width" height="height" viewBox="0 0 40 41" fill="none" xmlns="http://www.w3.org/2000/svg">
<rect width="40" height="40" rx="20" transform="matrix(1.19249e-08 -1 -1 -1.19249e-08 40 40.7197)" fill="currentColor"/>
<path fill-rule="evenodd" clip-rule="evenodd" d="M21.4998 25.0988L24.9393 21.6592C25.5251 21.0734 26.4749 21.0734 27.0607 21.6592C27.6464 22.245 27.6464 23.1948 27.0607 23.7805L21.7678 29.0734C20.7915 30.0497 19.2085 30.0497 18.2322 29.0734L12.9393 23.7805C12.3536 23.1948 12.3536 22.245 12.9393 21.6592C13.5251 21.0734 14.4749 21.0734 15.0607 21.6592L18.4998 25.0983L18.4998 12.7198C18.4998 11.8914 19.1713 11.2198 19.9998 11.2198C20.8282 11.2198 21.4998 11.8914 21.4998 12.7198L21.4998 25.0988Z" fill="white"/>
</svg>
