<svg width="width" height="height" viewBox="0 0 98 68" fill="none" xmlns="http://www.w3.org/2000/svg">
<g id="Frame 156406">
<g id="Group 156364">
<g id="Union">
<path fill-rule="evenodd" clip-rule="evenodd" d="M21.3774 67.0865C21.1997 67.0912 21.0215 67.0936 20.8427 67.0936C9.82346 67.0936 0.890625 58.1607 0.890625 47.1415C0.890625 36.9629 8.51248 28.5646 18.3602 27.3424C20.5179 12.3929 33.3821 0.90625 48.9291 0.90625C61.6307 0.90625 72.5416 8.57302 77.2866 19.5313C88.4408 21.5883 96.8906 31.3642 96.8906 43.1136C96.8906 56.3578 86.1541 67.0943 72.9099 67.0943C72.8275 67.0943 72.7452 67.0939 72.6631 67.0931H21.3774V67.0865Z" fill="url(#paint0_linear_1898_49030)"/>
<path d="M21.3774 67.0865H21.8685V66.5823L21.3645 66.5956L21.3774 67.0865ZM18.3602 27.3424L18.4207 27.8297L18.7927 27.7836L18.8462 27.4125L18.3602 27.3424ZM77.2866 19.5313L76.836 19.7264L76.94 19.9667L77.1975 20.0142L77.2866 19.5313ZM72.6631 67.0931L72.668 66.602H72.6631V67.0931ZM21.3774 67.0931H20.8863V67.5841H21.3774V67.0931ZM21.3645 66.5956C21.1911 66.6002 21.0172 66.6025 20.8427 66.6025V67.5846C21.0258 67.5846 21.2083 67.5822 21.3903 67.5774L21.3645 66.5956ZM20.8427 66.6025C10.0947 66.6025 1.38171 57.8895 1.38171 47.1415H0.399544C0.399544 58.4319 9.55225 67.5846 20.8427 67.5846V66.6025ZM1.38171 47.1415C1.38171 37.2138 8.81585 29.0218 18.4207 27.8297L18.2997 26.855C8.20911 28.1074 0.399544 36.712 0.399544 47.1415H1.38171ZM18.8462 27.4125C20.9695 12.7011 33.6297 1.39733 48.9291 1.39733V0.415169C33.1345 0.415169 20.0662 12.0846 17.8741 27.2722L18.8462 27.4125ZM48.9291 1.39733C61.428 1.39733 72.166 8.94136 76.836 19.7264L77.7373 19.3362C72.9173 8.20467 61.8334 0.415169 48.9291 0.415169V1.39733ZM77.1975 20.0142C88.1231 22.0291 96.3995 31.6053 96.3995 43.1136H97.3817C97.3817 31.123 88.7586 21.1476 77.3757 19.0483L77.1975 20.0142ZM96.3995 43.1136C96.3995 56.0865 85.8828 66.6032 72.9099 66.6032V67.5854C86.4253 67.5854 97.3817 56.629 97.3817 43.1136H96.3995ZM72.9099 66.6032C72.8291 66.6032 72.7485 66.6028 72.668 66.602L72.6581 67.5841C72.7419 67.585 72.8259 67.5854 72.9099 67.5854V66.6032ZM72.6631 66.602H21.3774V67.5841H72.6631V66.602ZM21.8685 67.0931V67.0865H20.8863V67.0931H21.8685Z" fill="url(#paint1_linear_1898_49030)"/>
</g>
<g id="Ellipse 822" filter="url(#filter0_d_1898_49030)">
<circle cx="48.9293" cy="36.9667" r="21.8886" fill="#F3F3F3"/>
<circle cx="48.9293" cy="36.9667" r="21.3975" stroke="#C5D2FF" stroke-width="0.982163"/>
</g>
<g id="Union_2" filter="url(#filter1_d_1898_49030)">
<mask id="path-5-inside-1_1898_49030" fill="white">
<path fill-rule="evenodd" clip-rule="evenodd" d="M44.784 28.7753C44.784 26.4859 46.6399 24.63 48.9293 24.63C51.2186 24.63 53.0745 26.4859 53.0745 28.7753V31.9238H44.784V28.7753ZM41.3874 31.9239V28.7753C41.3874 24.61 44.764 21.2334 48.9293 21.2334C53.0945 21.2334 56.4711 24.61 56.4711 28.7753V31.9239C58.3389 31.9333 59.8501 33.4504 59.8501 35.3204V47.8294C59.8501 49.7053 58.3294 51.226 56.4536 51.226H41.4051C39.5292 51.226 38.0085 49.7053 38.0085 47.8294V35.3204C38.0085 33.4504 39.5197 31.9334 41.3874 31.9239Z"/>
</mask>
<path fill-rule="evenodd" clip-rule="evenodd" d="M44.784 28.7753C44.784 26.4859 46.6399 24.63 48.9293 24.63C51.2186 24.63 53.0745 26.4859 53.0745 28.7753V31.9238H44.784V28.7753ZM41.3874 31.9239V28.7753C41.3874 24.61 44.764 21.2334 48.9293 21.2334C53.0945 21.2334 56.4711 24.61 56.4711 28.7753V31.9239C58.3389 31.9333 59.8501 33.4504 59.8501 35.3204V47.8294C59.8501 49.7053 58.3294 51.226 56.4536 51.226H41.4051C39.5292 51.226 38.0085 49.7053 38.0085 47.8294V35.3204C38.0085 33.4504 39.5197 31.9334 41.3874 31.9239Z" fill="url(#paint2_linear_1898_49030)"/>
<path d="M53.0745 31.9238V32.3767H53.5274V31.9238H53.0745ZM44.784 31.9238H44.3311V32.3767H44.784V31.9238ZM41.3874 31.9239L41.3897 32.3767L41.8403 32.3744V31.9239H41.3874ZM56.4711 31.9239H56.0182V32.3745L56.4688 32.3767L56.4711 31.9239ZM48.9293 24.1771C46.3898 24.1771 44.3311 26.2358 44.3311 28.7753H45.2368C45.2368 26.736 46.89 25.0828 48.9293 25.0828V24.1771ZM53.5274 28.7753C53.5274 26.2358 51.4688 24.1771 48.9293 24.1771V25.0828C50.9685 25.0828 52.6217 26.736 52.6217 28.7753H53.5274ZM53.5274 31.9238V28.7753H52.6217V31.9238H53.5274ZM44.784 32.3767H53.0745V31.471H44.784V32.3767ZM44.3311 28.7753V31.9238H45.2368V28.7753H44.3311ZM41.8403 31.9239V28.7753H40.9345V31.9239H41.8403ZM41.8403 28.7753C41.8403 24.8601 45.0141 21.6863 48.9293 21.6863V20.7805C44.5139 20.7805 40.9345 24.3599 40.9345 28.7753H41.8403ZM48.9293 21.6863C52.8444 21.6863 56.0182 24.8601 56.0182 28.7753H56.924C56.924 24.3599 53.3446 20.7805 48.9293 20.7805V21.6863ZM56.0182 28.7753V31.9239H56.924V28.7753H56.0182ZM56.4688 32.3767C58.0875 32.3849 59.3972 33.6997 59.3972 35.3204H60.303C60.303 33.201 58.5903 31.4817 56.4734 31.471L56.4688 32.3767ZM59.3972 35.3204V47.8294H60.303V35.3204H59.3972ZM59.3972 47.8294C59.3972 49.4552 58.0793 50.7731 56.4536 50.7731V51.6789C58.5795 51.6789 60.303 49.9554 60.303 47.8294H59.3972ZM56.4536 50.7731H41.4051V51.6789H56.4536V50.7731ZM41.4051 50.7731C39.7793 50.7731 38.4614 49.4552 38.4614 47.8294H37.5556C37.5556 49.9554 39.2791 51.6789 41.4051 51.6789V50.7731ZM38.4614 47.8294V35.3204H37.5556V47.8294H38.4614ZM38.4614 35.3204C38.4614 33.6998 39.7711 32.385 41.3897 32.3767L41.3851 31.471C39.2683 31.4818 37.5556 33.2011 37.5556 35.3204H38.4614Z" fill="url(#paint3_linear_1898_49030)" mask="url(#path-5-inside-1_1898_49030)"/>
</g>
<g id="?" filter="url(#filter2_d_1898_49030)">
<path d="M49.8395 43.3837C49.8395 43.8011 49.5012 44.1394 49.0838 44.1394H48.8907C48.3667 44.1394 47.9418 43.7146 47.9418 43.1906V43.115C47.9418 42.6672 47.9922 42.3369 48.093 42.1242C48.2049 41.9003 48.4401 41.6092 48.7983 41.2509L50.0243 40.025C50.2818 39.7451 50.4105 39.398 50.4105 38.9838C50.4105 38.5695 50.2762 38.2281 50.0075 37.9594C49.7388 37.6795 49.3917 37.5395 48.9663 37.5395C48.5408 37.5395 48.1825 37.6739 47.8915 37.9426C47.8248 38.0039 47.7649 38.0702 47.7115 38.1417C47.4033 38.5549 47.0125 38.9838 46.497 38.9838C45.8973 38.9838 45.4138 38.4507 45.6378 37.8944C45.8366 37.4007 46.1344 36.9857 46.5312 36.6494C47.2029 36.0785 48.037 35.793 49.0334 35.793C50.0299 35.793 50.8415 36.0673 51.4685 36.6159C52.0955 37.1533 52.409 37.909 52.409 38.883C52.409 39.5548 52.2242 40.1145 51.8548 40.5624C51.642 40.8311 51.4797 41.0214 51.3678 41.1334C51.2558 41.2453 51.1046 41.3909 50.9143 41.57C50.7352 41.7379 50.5784 41.8891 50.4441 42.0234C50.3209 42.1466 50.2202 42.2529 50.1418 42.3425C49.9403 42.5888 49.8395 42.9359 49.8395 43.3837ZM48.9159 47.2021C48.5688 47.2021 48.2665 47.0845 48.009 46.8494C47.7515 46.6031 47.6228 46.312 47.6228 45.9761C47.6228 45.6291 47.7459 45.3324 47.9922 45.0861C48.2497 44.8398 48.552 44.7166 48.8991 44.7166C49.2573 44.7166 49.5652 44.8398 49.8227 45.0861C50.0802 45.3212 50.209 45.6123 50.209 45.9593C50.209 46.2952 50.0802 46.5863 49.8227 46.8326C49.5764 47.0789 49.2741 47.2021 48.9159 47.2021Z" fill="white"/>
</g>
</g>
</g>
<defs>
<filter id="filter0_d_1898_49030" x="23.1121" y="15.0781" width="51.6345" height="51.6346" filterUnits="userSpaceOnUse" color-interpolation-filters="sRGB">
<feFlood flood-opacity="0" result="BackgroundImageFix"/>
<feColorMatrix in="SourceAlpha" type="matrix" values="0 0 0 0 0 0 0 0 0 0 0 0 0 0 0 0 0 0 127 0" result="hardAlpha"/>
<feOffset dy="3.92865"/>
<feGaussianBlur stdDeviation="1.96433"/>
<feComposite in2="hardAlpha" operator="out"/>
<feColorMatrix type="matrix" values="0 0 0 0 0 0 0 0 0 0 0 0 0 0 0 0 0 0 0.25 0"/>
<feBlend mode="normal" in2="BackgroundImageFix" result="effect1_dropShadow_1898_49030"/>
<feBlend mode="normal" in="SourceGraphic" in2="effect1_dropShadow_1898_49030" result="shape"/>
</filter>
<filter id="filter1_d_1898_49030" x="36.8763" y="21.2334" width="24.106" height="32.2566" filterUnits="userSpaceOnUse" color-interpolation-filters="sRGB">
<feFlood flood-opacity="0" result="BackgroundImageFix"/>
<feColorMatrix in="SourceAlpha" type="matrix" values="0 0 0 0 0 0 0 0 0 0 0 0 0 0 0 0 0 0 127 0" result="hardAlpha"/>
<feOffset dy="1.13219"/>
<feGaussianBlur stdDeviation="0.566094"/>
<feComposite in2="hardAlpha" operator="out"/>
<feColorMatrix type="matrix" values="0 0 0 0 0.607454 0 0 0 0 0.607454 0 0 0 0 0.607454 0 0 0 1 0"/>
<feBlend mode="normal" in2="BackgroundImageFix" result="effect1_dropShadow_1898_49030"/>
<feBlend mode="normal" in="SourceGraphic" in2="effect1_dropShadow_1898_49030" result="shape"/>
</filter>
<filter id="filter2_d_1898_49030" x="43.6176" y="34.8108" width="10.7556" height="15.3378" filterUnits="userSpaceOnUse" color-interpolation-filters="sRGB">
<feFlood flood-opacity="0" result="BackgroundImageFix"/>
<feColorMatrix in="SourceAlpha" type="matrix" values="0 0 0 0 0 0 0 0 0 0 0 0 0 0 0 0 0 0 127 0" result="hardAlpha"/>
<feOffset dy="0.982163"/>
<feGaussianBlur stdDeviation="0.982163"/>
<feComposite in2="hardAlpha" operator="out"/>
<feColorMatrix type="matrix" values="0 0 0 0 0 0 0 0 0 0 0 0 0 0 0 0 0 0 1 0"/>
<feBlend mode="normal" in2="BackgroundImageFix" result="effect1_dropShadow_1898_49030"/>
<feBlend mode="normal" in="SourceGraphic" in2="effect1_dropShadow_1898_49030" result="shape"/>
</filter>
<linearGradient id="paint0_linear_1898_49030" x1="48.8906" y1="0.90625" x2="48.8906" y2="67.0943" gradientUnits="userSpaceOnUse">
<stop stop-color="#0080FF"/>
<stop offset="1" stop-color="#375CE8"/>
</linearGradient>
<linearGradient id="paint1_linear_1898_49030" x1="48.8906" y1="0.90625" x2="48.8906" y2="67.0943" gradientUnits="userSpaceOnUse">
<stop stop-color="#3A9DFF"/>
<stop offset="1" stop-color="#1E50E6"/>
</linearGradient>
<linearGradient id="paint2_linear_1898_49030" x1="48.9293" y1="21.2334" x2="48.9293" y2="51.2261" gradientUnits="userSpaceOnUse">
<stop stop-color="#424242"/>
<stop offset="1" stop-color="#1F1F1F"/>
</linearGradient>
<linearGradient id="paint3_linear_1898_49030" x1="48.9293" y1="21.2334" x2="48.9293" y2="51.2261" gradientUnits="userSpaceOnUse">
<stop stop-color="#686868"/>
<stop offset="1" stop-color="#0F0F0F"/>
</linearGradient>
</defs>
</svg>
