<svg width="width" height="height" viewBox="0 0 25 24" fill="none" xmlns="http://www.w3.org/2000/svg">
<g id="scan">
<path id="Union" fill-rule="evenodd" clip-rule="evenodd" d="M16.5312 2.10498C15.9617 2.10498 15.5 2.55569 15.5 3.11168C15.5 3.66766 15.9617 4.11837 16.5312 4.11837H18.6875C19.1102 4.11837 19.5156 4.28229 19.8145 4.57406C20.1133 4.86583 20.2812 5.26155 20.2812 5.67418V7.77909C20.2812 8.33507 20.743 8.78578 21.3125 8.78578C21.882 8.78578 22.3438 8.33507 22.3438 7.77909V5.67418C22.3438 4.72757 21.9585 3.81973 21.2729 3.15037C20.5872 2.48102 19.6572 2.10498 18.6875 2.10498H16.5312ZM22.3438 15.6496C22.3438 15.0936 21.882 14.6429 21.3125 14.6429C20.743 14.6429 20.2812 15.0936 20.2812 15.6496V17.7545C20.2812 18.1672 20.1133 18.5629 19.8145 18.8547C19.5156 19.1464 19.1102 19.3103 18.6875 19.3103H16.5312C15.9617 19.3103 15.5 19.7611 15.5 20.317C15.5 20.873 15.9617 21.3237 16.5312 21.3237H18.6875C19.6572 21.3237 20.5872 20.9477 21.2729 20.2783C21.9585 19.609 22.3438 18.7011 22.3438 17.7545V15.6496ZM3.6875 14.6429C4.25704 14.6429 4.71875 15.0936 4.71875 15.6496V17.7545C4.71875 18.1672 4.88666 18.5629 5.18555 18.8547C5.48443 19.1464 5.88981 19.3103 6.3125 19.3103H8.46875C9.03829 19.3103 9.5 19.7611 9.5 20.317C9.5 20.873 9.03829 21.3237 8.46875 21.3237H6.3125C5.3428 21.3237 4.41282 20.9477 3.72714 20.2783C3.04146 19.609 2.65625 18.7011 2.65625 17.7545V15.6496C2.65625 15.0936 3.11796 14.6429 3.6875 14.6429ZM5.18555 4.57406C5.48444 4.28229 5.88981 4.11837 6.3125 4.11837H8.46875C9.03829 4.11837 9.5 3.66766 9.5 3.11168C9.5 2.55569 9.03829 2.10498 8.46875 2.10498H6.3125C5.3428 2.10498 4.41282 2.48102 3.72714 3.15037C3.04146 3.81973 2.65625 4.72757 2.65625 5.67418V7.77909C2.65625 8.33507 3.11796 8.78578 3.6875 8.78578C4.25704 8.78578 4.71875 8.33507 4.71875 7.77909V5.67418C4.71875 5.26155 4.88666 4.86583 5.18555 4.57406Z" fill="#0080FF"/>
</g>
</svg>
