<svg width="width" height="height" viewBox="0 0 40 41" fill="none" xmlns="http://www.w3.org/2000/svg">
<g id="Sell">
<rect y="0.5" width="40" height="40" rx="20" fill="#9225FF"/>
<g id="Subtract">
<path d="M19.3667 20.7594L17.9749 22.1512L17.9451 22.0977C17.5942 21.4613 17.5883 21.0271 17.9214 20.694C18.2544 20.3609 18.8195 20.3669 19.3667 20.7594Z" fill="white"/>
<path d="M16.024 25.2322L17.505 23.7512L17.5883 23.8939C17.9808 24.572 17.9511 24.9943 17.6061 25.3393C17.2195 25.7259 16.6545 25.7318 16.024 25.2322Z" fill="white"/>
<path fill-rule="evenodd" clip-rule="evenodd" d="M19.586 11.3442L8.56487 22.377C8.07864 22.8637 8.07864 23.6286 8.56487 24.1153L16.576 32.1349C17.0623 32.6217 17.8495 32.6217 18.3357 32.1349L29.3568 21.1022C29.9588 20.4996 30.2598 19.6652 30.1904 18.8076L29.6115 12.1787C29.5652 11.5992 29.079 11.1125 28.477 11.0661L21.8782 10.5098C21.0215 10.4403 20.188 10.7416 19.586 11.3442ZM26.5321 16.1189C26.5321 17.2083 25.6523 18.0891 24.564 18.0891C23.4758 18.0891 22.596 17.2083 22.596 16.1189C22.596 15.0296 23.4758 14.1488 24.564 14.1488C25.6523 14.1488 26.5321 15.0296 26.5321 16.1189ZM14.2403 25.8865C14.0738 26.053 14.0738 26.2909 14.2344 26.4515C14.395 26.6121 14.6388 26.618 14.8054 26.4515L15.2217 26.0352C16.3161 26.9511 17.6425 27.1236 18.5822 26.1839C19.4268 25.3393 19.3792 24.3043 18.5049 23.0255L18.3979 22.859L19.9264 21.3304C20.2476 21.7943 20.2833 22.294 20.0395 22.7757C19.9264 23.0672 19.9443 23.3348 20.1644 23.5549C20.4142 23.8047 20.7591 23.8047 20.9971 23.5668C21.0684 23.4954 21.122 23.4062 21.1755 23.317C21.6454 22.514 21.4848 21.4375 20.7354 20.5215L21.1517 20.1052C21.3182 19.9386 21.3123 19.6948 21.1517 19.5342C20.9911 19.3736 20.7591 19.3676 20.5867 19.5401L20.1703 19.9565C19.1056 19.0702 17.815 18.9691 16.9466 19.8375C16.1436 20.6405 16.2031 21.6516 16.9942 22.9185L17.0774 23.0493L15.4596 24.6672C15.0373 24.1021 15.0135 23.543 15.2812 23.085C15.412 22.7757 15.3823 22.52 15.1682 22.3059C14.9124 22.0501 14.5674 22.0501 14.3176 22.2999C14.2463 22.3713 14.1868 22.4546 14.1332 22.5557C13.6574 23.3884 13.8477 24.5066 14.6626 25.4642L14.2403 25.8865Z" fill="white"/>
</g>
</g>
</svg>
