<svg width="10" height="10" viewBox="0 0 10 10" fill="none" xmlns="http://www.w3.org/2000/svg">
<path id="Vector" d="M9.61137 5.16799V5.29486C8.82708 5.41981 7.14317 5.71007 6.31467 6.02725C6.01864 6.14066 5.78412 6.37326 5.66879 6.66736C5.35161 7.49202 5.0575 9.18554 4.93256 9.97367H4.67882C4.55387 9.18554 4.25976 7.49202 3.94258 6.66736C3.82725 6.37326 3.59081 6.13874 3.2967 6.02725C2.4682 5.71007 0.784288 5.41981 0 5.29486V5.04112C0.784288 4.91617 2.4682 4.62591 3.2967 4.30873C3.59273 4.19532 3.82725 3.96272 3.94258 3.66862C4.25976 2.84396 4.55387 1.15044 4.67882 0.362305H4.93256C5.0575 1.15044 5.35161 2.84396 5.66879 3.66862C5.78412 3.96272 6.02056 4.19724 6.31467 4.30873C7.14317 4.62591 8.82708 4.91617 9.61137 5.04112V5.16799Z" fill="white"/>
</svg>
