<svg width="width" height="height" viewBox="0 0 151 151" fill="none" xmlns="http://www.w3.org/2000/svg">
<g id="Frame 156360">
<rect x="0.5" y="0.5" width="150" height="150" rx="75" fill="white"/>
<g id="Group 156356">
<g id="Ellipse 816" filter="url(#filter0_d_1373_10699)">
<circle cx="75.4998" cy="75.4998" r="38.7791" fill="#06C30E"/>
<circle cx="75.4998" cy="75.4998" r="38.7791" fill="url(#paint0_linear_1373_10699)" fill-opacity="0.52"/>
<circle cx="75.4998" cy="75.4998" r="38.7791" fill="url(#paint1_linear_1373_10699)" fill-opacity="0.58"/>
<circle cx="75.4998" cy="75.4998" r="38.7791" fill="url(#paint2_linear_1373_10699)"/>
<circle cx="75.4998" cy="75.4998" r="38.7791" stroke="url(#paint3_linear_1373_10699)" stroke-width="2"/>
</g>
<g id="Vector 154 (Stroke)" filter="url(#filter1_d_1373_10699)">
<path fill-rule="evenodd" clip-rule="evenodd" d="M99.5046 64.6162C100.271 65.4117 100.247 66.6778 99.4516 67.4441L75.4262 90.5868C73.4717 92.4695 70.3722 92.4494 68.4423 90.5416L55.3579 77.6066C54.5723 76.83 54.5651 75.5637 55.3416 74.7782L58.1537 71.9336C58.9303 71.148 60.1966 71.1408 60.9821 71.9173L71.2907 82.1081C71.6767 82.4897 72.2966 82.4937 72.6875 82.1172L93.9016 61.6824C94.6972 60.9161 95.9633 60.9398 96.7296 61.7353L99.5046 64.6162Z" fill="url(#paint4_linear_1373_10699)"/>
<path fill-rule="evenodd" clip-rule="evenodd" d="M99.5046 64.6162C100.271 65.4117 100.247 66.6778 99.4516 67.4441L75.4262 90.5868C73.4717 92.4695 70.3722 92.4494 68.4423 90.5416L55.3579 77.6066C54.5723 76.83 54.5651 75.5637 55.3416 74.7782L58.1537 71.9336C58.9303 71.148 60.1966 71.1408 60.9821 71.9173L71.2907 82.1081C71.6767 82.4897 72.2966 82.4937 72.6875 82.1172L93.9016 61.6824C94.6972 60.9161 95.9633 60.9398 96.7296 61.7353L99.5046 64.6162Z" stroke="url(#paint5_linear_1373_10699)"/>
</g>
</g>
</g>
<defs>
<filter id="filter0_d_1373_10699" x="31.7207" y="35.7207" width="87.5581" height="87.5586" filterUnits="userSpaceOnUse" color-interpolation-filters="sRGB">
<feFlood flood-opacity="0" result="BackgroundImageFix"/>
<feColorMatrix in="SourceAlpha" type="matrix" values="0 0 0 0 0 0 0 0 0 0 0 0 0 0 0 0 0 0 127 0" result="hardAlpha"/>
<feOffset dy="4"/>
<feGaussianBlur stdDeviation="2"/>
<feComposite in2="hardAlpha" operator="out"/>
<feColorMatrix type="matrix" values="0 0 0 0 0 0 0 0 0 0 0 0 0 0 0 0 0 0 0.25 0"/>
<feBlend mode="normal" in2="BackgroundImageFix" result="effect1_dropShadow_1373_10699"/>
<feBlend mode="normal" in="SourceGraphic" in2="effect1_dropShadow_1373_10699" result="shape"/>
</filter>
<filter id="filter1_d_1373_10699" x="50.2642" y="60.623" width="54.2998" height="39.8623" filterUnits="userSpaceOnUse" color-interpolation-filters="sRGB">
<feFlood flood-opacity="0" result="BackgroundImageFix"/>
<feColorMatrix in="SourceAlpha" type="matrix" values="0 0 0 0 0 0 0 0 0 0 0 0 0 0 0 0 0 0 127 0" result="hardAlpha"/>
<feOffset dy="4"/>
<feGaussianBlur stdDeviation="2"/>
<feComposite in2="hardAlpha" operator="out"/>
<feColorMatrix type="matrix" values="0 0 0 0 0 0 0 0 0 0 0 0 0 0 0 0 0 0 0.25 0"/>
<feBlend mode="normal" in2="BackgroundImageFix" result="effect1_dropShadow_1373_10699"/>
<feBlend mode="normal" in="SourceGraphic" in2="effect1_dropShadow_1373_10699" result="shape"/>
</filter>
<linearGradient id="paint0_linear_1373_10699" x1="75.4998" y1="114.276" x2="60.4721" y2="64.0101" gradientUnits="userSpaceOnUse">
<stop stop-color="#136729"/>
<stop offset="1" stop-color="#1ED900" stop-opacity="0.95"/>
</linearGradient>
<linearGradient id="paint1_linear_1373_10699" x1="83.0314" y1="114.276" x2="102.799" y2="61.3344" gradientUnits="userSpaceOnUse">
<stop stop-color="#0E7A04" stop-opacity="0.64"/>
<stop offset="1" stop-color="#83F994"/>
</linearGradient>
<linearGradient id="paint2_linear_1373_10699" x1="52.1598" y1="43.8008" x2="63.8846" y2="62.2673" gradientUnits="userSpaceOnUse">
<stop stop-color="#FBFFCB"/>
<stop offset="1" stop-color="white" stop-opacity="0"/>
</linearGradient>
<linearGradient id="paint3_linear_1373_10699" x1="75.4998" y1="114.279" x2="75.4998" y2="36.7207" gradientUnits="userSpaceOnUse">
<stop stop-color="#096B0D"/>
<stop offset="1" stop-color="#A2FFA5"/>
</linearGradient>
<linearGradient id="paint4_linear_1373_10699" x1="97.1543" y1="64.1038" x2="77.4138" y2="91.9858" gradientUnits="userSpaceOnUse">
<stop stop-color="#F5E4EA"/>
<stop offset="1" stop-color="#D7E3E6"/>
</linearGradient>
<linearGradient id="paint5_linear_1373_10699" x1="77.4138" y1="76.1403" x2="82.5682" y2="88.7583" gradientUnits="userSpaceOnUse">
<stop stop-color="white"/>
<stop offset="1" stop-color="#AAAAAA"/>
</linearGradient>
</defs>
</svg>
