<svg width="width" height="height" viewBox="0 0 24 25" fill="none" xmlns="http://www.w3.org/2000/svg">
<g id="Telegram">
<rect y="0.208984" width="24" height="24" rx="6" fill="#008EFF"/>
<path id="Vector" fill-rule="evenodd" clip-rule="evenodd" d="M12.771 8.73654C11.5602 9.24015 9.14033 10.2825 5.51138 11.8636C4.9221 12.0979 4.61341 12.3271 4.58531 12.5513C4.53781 12.9301 5.01222 13.0793 5.65825 13.2825C5.74613 13.3101 5.83718 13.3387 5.93052 13.3691C6.56611 13.5757 7.4211 13.8174 7.86557 13.827C8.26874 13.8357 8.71873 13.6695 9.21554 13.3283C12.6062 11.0396 14.3564 9.8827 14.4663 9.85776C14.5438 9.84016 14.6513 9.81804 14.7241 9.88274C14.7968 9.94743 14.7897 10.07 14.782 10.1028C14.735 10.3032 12.8727 12.0345 11.909 12.9304C11.6086 13.2097 11.3955 13.4079 11.3519 13.4531C11.2543 13.5545 11.1549 13.6504 11.0593 13.7425C10.4688 14.3117 10.026 14.7386 11.0838 15.4357C11.5921 15.7707 11.9989 16.0477 12.4047 16.324C12.8479 16.6258 13.2899 16.9269 13.8618 17.3018C14.0076 17.3973 14.1467 17.4965 14.2823 17.5931C14.798 17.9608 15.2614 18.2911 15.8338 18.2385C16.1665 18.2078 16.5101 17.8951 16.6846 16.9622C17.097 14.7576 17.9076 9.98088 18.0949 8.01251C18.1113 7.84005 18.0907 7.61934 18.0741 7.52246C18.0575 7.42557 18.0229 7.28753 17.8969 7.18534C17.7478 7.06432 17.5175 7.0388 17.4146 7.04062C16.9463 7.04886 16.228 7.29864 12.771 8.73654Z" fill="white"/>
</g>
</svg>
