<svg width="width" height="height" viewBox="0 0 33 33" fill="none" xmlns="http://www.w3.org/2000/svg">
<g id="User Block 1">
<path id="Vector" d="M20.1361 26.9114L25.8939 22.4333M5.72461 28.6377C5.72461 23.483 9.90329 19.3044 15.0579 19.3044M27.0579 24.6377C27.0579 26.8469 25.2671 28.6377 23.0579 28.6377C20.8487 28.6377 19.0579 26.8469 19.0579 24.6377C19.0579 22.4285 20.8487 20.6377 23.0579 20.6377C25.2671 20.6377 27.0579 22.4285 27.0579 24.6377ZM20.3913 9.97103C20.3913 12.9165 18.0034 15.3044 15.0579 15.3044C12.1124 15.3044 9.72461 12.9165 9.72461 9.97103C9.72461 7.02551 12.1124 4.6377 15.0579 4.6377C18.0034 4.6377 20.3913 7.02551 20.3913 9.97103Z" stroke="#0080FF" stroke-width="2" stroke-linecap="round" stroke-linejoin="round"/>
</g>
</svg>
