<svg width="width" height="height" viewBox="0 0 40 41" fill="none" xmlns="http://www.w3.org/2000/svg">
<g clip-path="url(#clip0_533_405)">
<circle cx="20" cy="20.5" r="20" fill="#020D17"/>
<path d="M29.9349 14.3619C29.5964 14.0941 29.1927 13.7282 28.457 13.6367C27.7669 13.5453 27.0638 14.0091 26.5885 14.3162C26.1133 14.6232 25.2148 15.5248 24.8438 15.7992C24.4727 16.0736 23.5221 16.3284 21.9922 17.2496C20.4622 18.1708 14.4596 22.0385 14.4596 22.0385L16.0221 22.0581L9.05599 25.6579H9.7526L8.75 26.4223C8.75 26.4223 9.63542 26.6575 10.3776 26.1871V26.4027C10.3776 26.4027 18.6719 23.123 20.2734 23.9723L19.2969 24.2598C19.3815 24.2598 20.957 24.3643 20.957 24.3643C20.9953 24.6917 21.1049 25.0066 21.2782 25.2867C21.4515 25.5667 21.6842 25.805 21.9596 25.9845C22.9102 26.6117 22.9297 26.958 22.9297 26.958C22.9297 26.958 22.4349 27.1605 22.4349 27.4153C22.4349 27.4153 23.1641 27.1932 23.8411 27.2128C24.2709 27.2291 24.6971 27.2971 25.1107 27.4153C25.1107 27.4153 25.0586 27.1409 24.401 26.958C23.7435 26.7751 23.0924 26.0564 22.7734 25.6644C22.578 25.4149 22.4507 25.1187 22.4039 24.8048C22.3571 24.491 22.3925 24.1703 22.5065 23.8743C22.7344 23.2798 23.5286 22.9531 25.1693 22.1038C27.1029 21.0977 27.5456 20.3529 27.819 19.7714C28.0924 19.19 28.4961 18.0336 28.724 17.4913C29.0104 16.7923 29.362 16.4199 29.6549 16.1978C29.9479 15.9756 31.25 15.4856 31.25 15.4856C31.25 15.4856 30.2539 14.6167 29.9349 14.3619Z" fill="white"/>
</g>
<defs>
<clipPath id="clip0_533_405">
<rect y="0.5" width="40" height="40" rx="20" fill="white"/>
</clipPath>
</defs>
</svg>
