<svg width="width" height="height" viewBox="0 0 41 40" fill="none" xmlns="http://www.w3.org/2000/svg">
<circle cx="20.7999" cy="20" r="20" fill="#00B9B9"/>
<path fill-rule="evenodd" clip-rule="evenodd" d="M13.31 10.5117H28.5968C28.9615 10.5117 29.2985 10.7007 29.4804 11.0074L33.9341 18.5149C34.165 18.9042 34.0965 19.3956 33.767 19.7113L21.5081 31.4597C21.111 31.8403 20.4722 31.8403 20.0751 31.4597L7.83285 19.7272C7.49576 19.4042 7.43264 18.8984 7.68052 18.5067L12.4411 10.9833C12.6265 10.6903 12.9555 10.5117 13.31 10.5117ZM26.623 13.8636V15.9701H22.2684V17.4306C25.3267 17.5866 27.6213 18.2277 27.6383 18.996L27.6382 20.5977C27.6212 21.3661 25.3267 22.0071 22.2684 22.1632V25.7474H19.3769V22.1632C16.3185 22.0071 14.0239 21.3661 14.0069 20.5977L14.007 18.996C14.024 18.2277 16.3185 17.5866 19.3769 17.4306V15.9701H15.0223V13.8636H26.623ZM20.8226 21.0628C24.0864 21.0628 26.8144 20.5207 27.4821 19.7969C26.9159 19.183 24.8681 18.6999 22.2684 18.5673V20.0964C21.8024 20.1202 21.3187 20.1327 20.8226 20.1327C20.3265 20.1327 19.8428 20.1202 19.3769 20.0964V18.5673C16.7771 18.6999 14.7293 19.183 14.1632 19.7969C14.8308 20.5207 17.5588 21.0628 20.8226 21.0628Z" fill="white"/>
</svg>
