<svg width="width" height="height" viewBox="0 0 24 24" fill="none" xmlns="http://www.w3.org/2000/svg">
    <rect width="24" height="24" rx="6" fill="#008EFF"/>
    <path d="M14.5333 5.47317C14.26 5.19983 13.7866 5.3865 13.7866 5.7665V8.09317C13.7866 9.0665 14.6133 9.87317 15.62 9.87317C16.2533 9.87983 17.1333 9.87983 17.8866 9.87983C18.2666 9.87983 18.4666 9.43317 18.2 9.1665C17.24 8.19983 15.52 6.45983 14.5333 5.47317Z"
          fill="white"/>
    <path d="M13.84 16.84C12.2734 16.9534 12.2734 19.22 13.84 19.3334H17.5467C17.9934 19.3334 18.4334 19.1667 18.76 18.8667C19.86 17.9067 19.2734 15.9867 17.8267 15.8067C17.3067 12.68 12.7867 13.8667 13.8534 16.8467"
          fill="white"/>
    <path d="M18.3332 11.4602V13.6268C18.3332 13.8268 18.0398 13.9202 17.8932 13.7802C17.5732 13.4668 17.1798 13.2268 16.7265 13.0868C15.6065 12.7402 14.3065 13.0802 13.4998 13.9335C12.9598 14.4935 12.6865 15.2068 12.6932 15.9802C12.6932 16.1068 12.6332 16.2202 12.5332 16.2935C11.9998 16.7002 11.6665 17.3402 11.6665 18.0802C11.6665 18.1335 11.6665 18.1868 11.6732 18.2402C11.6865 18.4535 11.5332 18.6602 11.3132 18.6602H9.37984C7.3265 18.6602 5.6665 17.3268 5.6665 14.9468V9.04683C5.6665 6.66683 7.3265 5.3335 9.37984 5.3335H12.2065C12.5732 5.3335 12.8732 5.6335 12.8732 6.00016V7.92683C12.8732 9.5135 14.1532 10.7935 15.7398 10.7935H17.6665C18.0332 10.7935 18.3332 11.0935 18.3332 11.4602Z"
          fill="white"/>
</svg>
