<svg width="width" height="height" viewBox="0 0 56 59" fill="none" xmlns="http://www.w3.org/2000/svg">
    <g id="Present_ 1" clip-path="url(#clip0_1422_38365)">
        <g id="Group 156352">
            <g id="BOX">
                <g id="Group">
                    <path id="Vector" d="M9.9585 22.3477V44.2184L29.3975 53.632V30.5061L9.9585 22.3477Z" fill="#7794FC"
                          stroke="#4340CC" stroke-width="0.631019" stroke-miterlimit="10" stroke-linecap="round"
                          stroke-linejoin="round"/>
                    <path id="Vector_2" d="M48.7734 22.3477V44.2184L29.3972 53.632V30.5061L48.7734 22.3477Z"
                          fill="#666AFF" stroke="#4340CC" stroke-width="0.631019" stroke-miterlimit="10"
                          stroke-linecap="round" stroke-linejoin="round"/>
                    <path id="Vector_3"
                          d="M29.3975 14.4878L48.7109 22.254L29.3975 30.5065L9.9585 22.301L29.3975 14.4878Z"
                          fill="#4747DD" stroke="#4340CC" stroke-width="0.631019" stroke-miterlimit="10"
                          stroke-linecap="round" stroke-linejoin="round"/>
                </g>
            </g>
            <g id="Cover_1_">
                <g id="Group_2">
                    <path id="Vector_4" opacity="0.35"
                          d="M48.852 26.0354V28.1535L29.3973 36.5001L10.0525 28.0907V25.9727L48.852 26.0354Z"
                          fill="#4340CC"/>
                    <g id="Group_3">
                        <path id="Vector_5" d="M50.1068 25.4855L29.397 34.3813L29.4127 21.877L50.1068 21.8926V25.4855Z"
                              fill="#666AFF" stroke="#4340CC" stroke-width="0.631019" stroke-miterlimit="10"
                              stroke-linecap="round" stroke-linejoin="round"/>
                        <path id="Vector_6"
                              d="M29.3973 21.8776L8.6875 21.7207V25.3763C18.9796 29.8477 13.4727 27.4473 29.3973 34.3662V21.8776Z"
                              fill="#7794FC" stroke="#4340CC" stroke-width="0.631019" stroke-miterlimit="10"
                              stroke-linecap="round" stroke-linejoin="round"/>
                        <path id="Vector_7"
                              d="M29.3973 14.5034L50.1228 21.7832L29.3973 30.5064L8.6875 21.7205L29.3973 14.5034Z"
                              fill="#7794FC" stroke="#4340CC" stroke-width="0.631019" stroke-miterlimit="10"
                              stroke-linecap="round" stroke-linejoin="round"/>
                        <path id="Vector_8"
                              d="M13.5981 21.5793L29.8992 28.561C30.2287 28.7022 30.2287 29.1729 29.8835 29.3141C29.4913 29.471 29.0677 29.4553 28.6911 29.2984L12.139 22.1912C11.8252 22.05 11.8566 21.595 12.1861 21.5008C12.6567 21.3596 13.1588 21.391 13.5981 21.5793Z"
                              fill="#B2D5F1"/>
                    </g>
                </g>
            </g>
            <g id="Ribbons_1_">
                <g id="Group_4">
                    <path id="Vector_9"
                          d="M22.0079 16.9194L15.6863 19.31L26.9971 22.6931C28.5033 22.0969 30.0408 21.485 31.5313 20.7947L22.0079 16.9194Z"
                          fill="#FDCD09" stroke="#F27927" stroke-width="0.631019" stroke-miterlimit="10"
                          stroke-linecap="round" stroke-linejoin="round"/>
                    <g id="Group_5">
                        <path id="Vector_10"
                              d="M42.043 25.0781L31.5313 20.7949C30.0408 21.4852 28.5032 22.0971 26.9971 22.6933L37.4461 27.1177L42.043 25.0781Z"
                              fill="#FDCD09" stroke="#F27927" stroke-width="0.631019" stroke-miterlimit="10"
                              stroke-linecap="round" stroke-linejoin="round"/>
                        <path id="Vector_11"
                              d="M42.0743 25.0781L42.0272 47.5137L37.4146 49.7573V27.0079L42.0743 25.0781Z"
                              fill="#F99B05" stroke="#F27927" stroke-width="0.631019" stroke-miterlimit="10"
                              stroke-linecap="round" stroke-linejoin="round"/>
                    </g>
                    <path id="Vector_12"
                          d="M36.8029 17.0293L27.0913 20.8418C28.5975 21.5007 30.1507 22.0655 31.6098 22.7245L41.4313 18.6924L36.8029 17.0293Z"
                          fill="#FDCD09" stroke="#F27927" stroke-width="0.631019" stroke-miterlimit="10"
                          stroke-linecap="round" stroke-linejoin="round"/>
                    <g id="Group_6">
                        <path id="Vector_13"
                              d="M16.4539 24.9995L21.0194 27.0548L31.6097 22.7089C30.1506 22.0499 28.5973 21.5008 27.0912 20.8262L16.4539 24.9995Z"
                              fill="#FDCD09" stroke="#F27927" stroke-width="0.631019" stroke-miterlimit="10"
                              stroke-linecap="round" stroke-linejoin="round"/>
                        <path id="Vector_14" d="M16.4539 24.9678V47.3877L21.0508 49.6156V27.0074L16.4539 24.9678Z"
                              fill="#FDCD09" stroke="#F27927" stroke-width="0.631019" stroke-miterlimit="10"
                              stroke-linecap="round" stroke-linejoin="round"/>
                    </g>
                </g>
                <path id="Vector_15"
                      d="M20.486 24.5913L22.0235 25.2346C22.353 25.3758 22.353 25.8465 22.0078 25.9877C21.6156 26.1446 21.192 26.1289 20.8154 25.972L19.0426 25.1875C18.7288 25.0463 18.7602 24.5913 19.0896 24.4972C19.6858 24.2932 20.031 24.4031 20.486 24.5913Z"
                      fill="#FCEDB0"/>
                <path id="Vector_16" d="M9.9585 23.4937V24.6233" stroke="#B2D5F1" stroke-width="0.757223"
                      stroke-miterlimit="10" stroke-linecap="round"/>
                <path id="Vector_17" d="M48.8523 23.4937V24.6233" stroke="#7794FC" stroke-width="0.757223"
                      stroke-miterlimit="10" stroke-linecap="round"/>
                <path id="Vector_18" d="M11.3076 29.9419V43.1522" stroke="#B2D5F1" stroke-width="0.757223"
                      stroke-miterlimit="10" stroke-linecap="round"/>
                <path id="Vector_19" d="M47.2358 29.895V43.1054" stroke="#7794FC" stroke-width="0.757223"
                      stroke-miterlimit="10" stroke-linecap="round"/>
                <path id="Vector_20" d="M17.6775 27.0708V46.3372" stroke="#FCEDB0" stroke-width="0.757223"
                      stroke-miterlimit="10" stroke-linecap="round"/>
                <path id="Vector_21" d="M40.6152 27.1177V46.384" stroke="#FDCD09" stroke-width="0.757223"
                      stroke-miterlimit="10" stroke-linecap="round"/>
            </g>
            <g id="Bow_1_">
                <g id="Group_7">
                    <g id="Group_8">
                        <path id="Vector_22"
                              d="M28.4247 22.803C22.5726 21.6734 14.6182 17.7354 14.6182 13.8601C14.6182 12.3383 15.7949 10.1732 18.9327 9.49854C15.8733 13.7032 23.8905 18.0335 30.4643 19.9005C29.9309 20.5594 29.3504 22.097 28.4247 22.803Z"
                              fill="#F99B05" stroke="#F27927" stroke-width="0.631019" stroke-miterlimit="10"
                              stroke-linecap="round" stroke-linejoin="round"/>
                        <path id="Vector_23"
                              d="M27.6246 22.5677C25.4281 18.363 18.8543 8.91806 15.7949 11.2714C16.6578 10.0948 18.7759 9.07495 20.1565 8.80824C24.2671 8.00809 30.1035 17.657 30.6056 19.9476C29.3661 21.0145 29.0209 21.7048 27.6246 22.5677Z"
                              fill="#FDCD09" stroke="#F27927" stroke-width="0.631019" stroke-miterlimit="10"
                              stroke-linecap="round" stroke-linejoin="round"/>
                    </g>
                    <g id="Group_9">
                        <path id="Vector_24"
                              d="M30.6212 20.6225C36.944 23.4936 42.9059 21.5481 44.3179 18.7397C43.8943 21.6109 42.5451 23.0386 40.1917 24.1996C36.4733 26.0195 29.774 24.5134 27.7815 22.3326C28.4875 22.4267 29.5858 21.8933 30.6212 20.6225Z"
                              fill="#F99B05" stroke="#F27927" stroke-width="0.631019" stroke-miterlimit="10"
                              stroke-linecap="round" stroke-linejoin="round"/>
                        <path id="Vector_25"
                              d="M36.5046 14.3308C34.0414 15.2565 31.2487 17.704 28.3933 22.3637C30.1505 19.6338 32.1744 18.6767 33.4923 18.2217C39.3444 16.2135 43.3608 21.7204 38.5442 24.6857C48.5069 21.893 43.9413 11.5224 36.5046 14.3308Z"
                              fill="#FDCD09" stroke="#F27927" stroke-width="0.631019" stroke-miterlimit="10"
                              stroke-linecap="round" stroke-linejoin="round"/>
                    </g>
                </g>
                <g id="Vector_26">
                    <path d="M21.4428 9.87558C21.4428 9.87558 20.3289 9.73437 18.8855 10.409Z" fill="#FCEDB0"/>
                    <path d="M21.4428 9.87558C21.4428 9.87558 20.3289 9.73437 18.8855 10.409" stroke="#FCEDB0"
                          stroke-width="0.504816" stroke-miterlimit="10" stroke-linecap="round"/>
                </g>
                <g id="Vector_27">
                    <path d="M36.5203 15.3657C36.5203 15.3657 35.4378 15.6952 34.418 16.919Z" fill="#FCEDB0"/>
                    <path d="M36.5203 15.3657C36.5203 15.3657 35.4378 15.6952 34.418 16.919" stroke="#FCEDB0"
                          stroke-width="0.504816" stroke-miterlimit="10" stroke-linecap="round"/>
                </g>
            </g>
            <g id="Group 156350">
                <path id="Vector_28"
                      d="M18.4608 4.4345V4.53837C17.8187 4.64067 16.44 4.87831 15.7617 5.13799C15.5194 5.23084 15.3274 5.42127 15.2329 5.66207C14.9733 6.33723 14.7325 7.72375 14.6302 8.369H14.4224C14.3201 7.72375 14.0793 6.33723 13.8197 5.66207C13.7252 5.42127 13.5317 5.22927 13.2909 5.13799C12.6126 4.87831 11.2339 4.64067 10.5918 4.53837V4.33063C11.2339 4.22833 12.6126 3.99069 13.2909 3.73101C13.5332 3.63816 13.7252 3.44773 13.8197 3.20694C14.0793 2.53178 14.3201 1.14526 14.4224 0.5H14.6302C14.7325 1.14526 14.9733 2.53178 15.2329 3.20694C15.3274 3.44773 15.5209 3.63973 15.7617 3.73101C16.44 3.99069 17.8187 4.22833 18.4608 4.33063V4.4345Z"
                      fill="#F27927"/>
            </g>
            <g id="Group 156349">
                <path id="Vector_29"
                      d="M36.6595 5.65384V5.72551C36.2164 5.7961 35.2651 5.96008 34.7971 6.13926C34.6298 6.20333 34.4974 6.33473 34.4322 6.50088C34.253 6.96676 34.0869 7.92348 34.0163 8.36872H33.8729C33.8024 7.92348 33.6362 6.96676 33.457 6.50088C33.3919 6.33473 33.2583 6.20225 33.0921 6.13926C32.6241 5.96008 31.6728 5.7961 31.2297 5.72551V5.58217C31.6728 5.51158 32.6241 5.3476 33.0921 5.16842C33.2594 5.10435 33.3919 4.97295 33.457 4.8068C33.6362 4.34093 33.8024 3.3842 33.8729 2.93896H34.0163C34.0869 3.3842 34.253 4.34093 34.4322 4.8068C34.4974 4.97295 34.6309 5.10544 34.7971 5.16842C35.2651 5.3476 36.2164 5.51158 36.6595 5.58217V5.65384Z"
                      fill="#7794FC"/>
            </g>
            <g id="Group 156348">
                <path id="Vector_30"
                      d="M6.42588 19.1331V19.1944C6.04684 19.2548 5.23302 19.3951 4.83261 19.5484C4.68954 19.6032 4.5762 19.7156 4.52045 19.8577C4.36716 20.2563 4.22502 21.0748 4.16464 21.4557H4.04201C3.98162 21.0748 3.83948 20.2563 3.68619 19.8577C3.63045 19.7156 3.51618 19.6023 3.37404 19.5484C2.97363 19.3951 2.1598 19.2548 1.78076 19.1944V19.0718C2.1598 19.0114 2.97363 18.8711 3.37404 18.7178C3.51711 18.663 3.63045 18.5506 3.68619 18.4085C3.83948 18.0099 3.98162 17.1914 4.04201 16.8105H4.16464C4.22502 17.1914 4.36716 18.0099 4.52045 18.4085C4.5762 18.5506 4.69047 18.664 4.83261 18.7178C5.23302 18.8711 6.04684 19.0114 6.42588 19.0718V19.1331Z"
                      fill="#FDCD09"/>
            </g>
            <g id="Group 156347">
                <path id="Vector_31"
                      d="M55.1048 8.76116V8.86503C54.4627 8.96733 53.0841 9.20497 52.4058 9.46465C52.1634 9.55751 51.9714 9.74793 51.877 9.98873C51.6173 10.6639 51.3765 12.0504 51.2742 12.6957H51.0665C50.9642 12.0504 50.7234 10.6639 50.4637 9.98873C50.3693 9.74793 50.1757 9.55593 49.9349 9.46465C49.2566 9.20497 47.878 8.96733 47.2358 8.86503V8.65729C47.878 8.55499 49.2566 8.31735 49.9349 8.05767C50.1773 7.96482 50.3693 7.77439 50.4637 7.5336C50.7234 6.85844 50.9642 5.47192 51.0665 4.82666H51.2742C51.3765 5.47192 51.6173 6.85844 51.877 7.5336C51.9714 7.77439 52.165 7.96639 52.4058 8.05767C53.0841 8.31735 54.4627 8.55499 55.1048 8.65729V8.76116Z"
                      fill="#FDCD09"/>
            </g>
        </g>
    </g>
    <defs>
        <clipPath id="clip0_1422_38365">
            <rect width="56" height="58" fill="white" transform="translate(0 0.5)"/>
        </clipPath>
    </defs>
</svg>
