<svg width="width" height="height" viewBox="0 0 98 68" fill="none" xmlns="http://www.w3.org/2000/svg">
    <g id="Frame 156406">
        <g id="Group 156364">
            <g id="Union">
                <path fill-rule="evenodd" clip-rule="evenodd"
                      d="M21.8774 67.0865C21.6998 67.0912 21.5215 67.0936 21.3427 67.0936C10.3235 67.0936 1.39062 58.1607 1.39062 47.1415C1.39062 36.9629 9.01249 28.5646 18.8602 27.3424C21.0179 12.3929 33.8821 0.90625 49.4291 0.90625C62.1307 0.90625 73.0416 8.57301 77.7866 19.5313C88.9409 21.5883 97.3907 31.3641 97.3907 43.1136C97.3907 56.3578 86.6541 67.0943 73.4099 67.0943C73.3276 67.0943 73.2453 67.0939 73.1632 67.0931H21.8774V67.0865Z"
                      fill="url(#paint0_linear_1922_13206)"/>
                <path d="M21.8774 67.0865H22.3685V66.5824L21.8645 66.5956L21.8774 67.0865ZM18.8602 27.3424L18.9207 27.8297L19.2927 27.7836L19.3462 27.4125L18.8602 27.3424ZM77.7866 19.5313L77.336 19.7264L77.44 19.9667L77.6976 20.0142L77.7866 19.5313ZM73.1632 67.0931L73.1681 66.602H73.1632V67.0931ZM21.8774 67.0931H21.3864V67.5841H21.8774V67.0931ZM21.8645 66.5956C21.6911 66.6002 21.5172 66.6025 21.3427 66.6025V67.5846C21.5258 67.5846 21.7084 67.5822 21.8904 67.5774L21.8645 66.5956ZM21.3427 66.6025C10.5947 66.6025 1.88171 57.8895 1.88171 47.1415H0.899544C0.899544 58.4319 10.0522 67.5846 21.3427 67.5846V66.6025ZM1.88171 47.1415C1.88171 37.2138 9.31586 29.0218 18.9207 27.8297L18.7997 26.855C8.70912 28.1074 0.899544 36.712 0.899544 47.1415H1.88171ZM19.3462 27.4125C21.4696 12.7011 34.1297 1.39733 49.4291 1.39733V0.415169C33.6345 0.415169 20.5662 12.0846 18.3741 27.2722L19.3462 27.4125ZM49.4291 1.39733C61.928 1.39733 72.666 8.94136 77.336 19.7264L78.2373 19.3361C73.4173 8.20466 62.3334 0.415169 49.4291 0.415169V1.39733ZM77.6976 20.0142C88.6231 22.029 96.8996 31.6053 96.8996 43.1136H97.8818C97.8818 31.123 89.2587 21.1475 77.8757 19.0483L77.6976 20.0142ZM96.8996 43.1136C96.8996 56.0865 86.3829 66.6032 73.4099 66.6032V67.5854C86.9254 67.5854 97.8818 56.629 97.8818 43.1136H96.8996ZM73.4099 66.6032C73.3292 66.6032 73.2486 66.6028 73.1681 66.602L73.1582 67.5841C73.242 67.585 73.3259 67.5854 73.4099 67.5854V66.6032ZM73.1632 66.602H21.8774V67.5841H73.1632V66.602ZM22.3685 67.0931V67.0865H21.3864V67.0931H22.3685Z"
                      fill="url(#paint1_linear_1922_13206)"/>
            </g>
            <g id="Ellipse 822" filter="url(#filter0_d_1922_13206)">
                <circle cx="49.4294" cy="36.9667" r="21.8886" fill="#F3F3F3"/>
                <circle cx="49.4294" cy="36.9667" r="21.3975" stroke="#C5D2FF" stroke-width="0.982163"/>
            </g>
            <g id="Rectangle 3657" filter="url(#filter1_d_1922_13206)">
                <rect x="47.5148" y="23.2305" width="3.8291" height="3.8291" rx="1.91455"
                      fill="url(#paint2_linear_1922_13206)"/>
                <rect x="47.7412" y="23.4569" width="3.37623" height="3.37623" rx="1.68811"
                      stroke="url(#paint3_linear_1922_13206)" stroke-width="0.452875"/>
            </g>
            <g id="Rectangle 3656" filter="url(#filter2_d_1922_13206)">
                <rect x="38.6161" y="28.2617" width="21.549" height="3.62109" rx="1.81055"
                      fill="url(#paint4_linear_1922_13206)"/>
                <rect x="38.8425" y="28.4882" width="21.0961" height="3.16822" rx="1.58411"
                      stroke="url(#paint5_linear_1922_13206)" stroke-width="0.452875"/>
            </g>
            <g id="Union_2" filter="url(#filter3_d_1922_13206)">
                <mask id="path-9-inside-1_1922_13206" fill="white">
                    <path d="M39.8393 34.4162C39.7148 33.5147 40.4152 32.7109 41.3252 32.7109H57.5245C58.4349 32.7109 59.1354 33.5153 59.0103 34.4171L57.1574 47.773C56.9244 49.4525 55.4886 50.7029 53.7931 50.7029H45.0489C43.3527 50.7029 41.9165 49.4514 41.6843 47.7711L39.8393 34.4162Z"/>
                </mask>
                <path d="M39.8393 34.4162C39.7148 33.5147 40.4152 32.7109 41.3252 32.7109H57.5245C58.4349 32.7109 59.1354 33.5153 59.0103 34.4171L57.1574 47.773C56.9244 49.4525 55.4886 50.7029 53.7931 50.7029H45.0489C43.3527 50.7029 41.9165 49.4514 41.6843 47.7711L39.8393 34.4162Z"
                      fill="url(#paint6_linear_1922_13206)"/>
                <path d="M57.1574 47.773L57.606 47.8353L57.1574 47.773ZM59.0103 34.4171L58.5617 34.3548L59.0103 34.4171ZM39.8393 34.4162L39.3907 34.4782L39.8393 34.4162ZM41.3252 33.1638H57.5245V32.2581H41.3252V33.1638ZM58.5617 34.3548L56.7088 47.7108L57.606 47.8353L59.4588 34.4793L58.5617 34.3548ZM53.7931 50.25H45.0489V51.1558H53.7931V50.25ZM42.133 47.7092L40.2879 34.3542L39.3907 34.4782L41.2357 47.8331L42.133 47.7092ZM45.0489 50.25C43.5789 50.25 42.3341 49.1654 42.133 47.7092L41.2357 47.8331C41.4988 49.7375 43.1265 51.1558 45.0489 51.1558V50.25ZM56.7088 47.7108C56.5069 49.1663 55.2625 50.25 53.7931 50.25V51.1558C55.7147 51.1558 57.3419 49.7386 57.606 47.8353L56.7088 47.7108ZM57.5245 33.1638C58.16 33.1638 58.649 33.7253 58.5617 34.3548L59.4588 34.4793C59.6217 33.3053 58.7097 32.2581 57.5245 32.2581V33.1638ZM41.3252 32.2581C40.1404 32.2581 39.2286 33.3045 39.3907 34.4782L40.2879 34.3542C40.201 33.7249 40.6899 33.1638 41.3252 33.1638V32.2581Z"
                      fill="url(#paint7_linear_1922_13206)" mask="url(#path-9-inside-1_1922_13206)"/>
            </g>
        </g>
    </g>
    <defs>
        <filter id="filter0_d_1922_13206" x="23.6121" y="15.0781" width="51.6345" height="51.6346"
                filterUnits="userSpaceOnUse" color-interpolation-filters="sRGB">
            <feFlood flood-opacity="0" result="BackgroundImageFix"/>
            <feColorMatrix in="SourceAlpha" type="matrix" values="0 0 0 0 0 0 0 0 0 0 0 0 0 0 0 0 0 0 127 0"
                           result="hardAlpha"/>
            <feOffset dy="3.92865"/>
            <feGaussianBlur stdDeviation="1.96433"/>
            <feComposite in2="hardAlpha" operator="out"/>
            <feColorMatrix type="matrix" values="0 0 0 0 0 0 0 0 0 0 0 0 0 0 0 0 0 0 0.25 0"/>
            <feBlend mode="normal" in2="BackgroundImageFix" result="effect1_dropShadow_1922_13206"/>
            <feBlend mode="normal" in="SourceGraphic" in2="effect1_dropShadow_1922_13206" result="shape"/>
        </filter>
        <filter id="filter1_d_1922_13206" x="46.3826" y="23.2305" width="6.09348" height="6.09348"
                filterUnits="userSpaceOnUse" color-interpolation-filters="sRGB">
            <feFlood flood-opacity="0" result="BackgroundImageFix"/>
            <feColorMatrix in="SourceAlpha" type="matrix" values="0 0 0 0 0 0 0 0 0 0 0 0 0 0 0 0 0 0 127 0"
                           result="hardAlpha"/>
            <feOffset dy="1.13219"/>
            <feGaussianBlur stdDeviation="0.566094"/>
            <feComposite in2="hardAlpha" operator="out"/>
            <feColorMatrix type="matrix" values="0 0 0 0 0.872526 0 0 0 0 0.720455 0 0 0 0 0.712279 0 0 0 1 0"/>
            <feBlend mode="normal" in2="BackgroundImageFix" result="effect1_dropShadow_1922_13206"/>
            <feBlend mode="normal" in="SourceGraphic" in2="effect1_dropShadow_1922_13206" result="shape"/>
        </filter>
        <filter id="filter2_d_1922_13206" x="37.4839" y="28.2617" width="23.8133" height="5.88547"
                filterUnits="userSpaceOnUse" color-interpolation-filters="sRGB">
            <feFlood flood-opacity="0" result="BackgroundImageFix"/>
            <feColorMatrix in="SourceAlpha" type="matrix" values="0 0 0 0 0 0 0 0 0 0 0 0 0 0 0 0 0 0 127 0"
                           result="hardAlpha"/>
            <feOffset dy="1.13219"/>
            <feGaussianBlur stdDeviation="0.566094"/>
            <feComposite in2="hardAlpha" operator="out"/>
            <feColorMatrix type="matrix" values="0 0 0 0 0.872526 0 0 0 0 0.720455 0 0 0 0 0.712279 0 0 0 1 0"/>
            <feBlend mode="normal" in2="BackgroundImageFix" result="effect1_dropShadow_1922_13206"/>
            <feBlend mode="normal" in="SourceGraphic" in2="effect1_dropShadow_1922_13206" result="shape"/>
        </filter>
        <filter id="filter3_d_1922_13206" x="38.6928" y="32.7109" width="21.4642" height="20.2566"
                filterUnits="userSpaceOnUse" color-interpolation-filters="sRGB">
            <feFlood flood-opacity="0" result="BackgroundImageFix"/>
            <feColorMatrix in="SourceAlpha" type="matrix" values="0 0 0 0 0 0 0 0 0 0 0 0 0 0 0 0 0 0 127 0"
                           result="hardAlpha"/>
            <feOffset dy="1.13219"/>
            <feGaussianBlur stdDeviation="0.566094"/>
            <feComposite in2="hardAlpha" operator="out"/>
            <feColorMatrix type="matrix" values="0 0 0 0 0.872526 0 0 0 0 0.720455 0 0 0 0 0.712279 0 0 0 1 0"/>
            <feBlend mode="normal" in2="BackgroundImageFix" result="effect1_dropShadow_1922_13206"/>
            <feBlend mode="normal" in="SourceGraphic" in2="effect1_dropShadow_1922_13206" result="shape"/>
        </filter>
        <linearGradient id="paint0_linear_1922_13206" x1="49.3907" y1="0.90625" x2="49.3907" y2="67.0943"
                        gradientUnits="userSpaceOnUse">
            <stop stop-color="#0080FF"/>
            <stop offset="1" stop-color="#375CE8"/>
        </linearGradient>
        <linearGradient id="paint1_linear_1922_13206" x1="49.3907" y1="0.90625" x2="49.3907" y2="67.0943"
                        gradientUnits="userSpaceOnUse">
            <stop stop-color="#3A9DFF"/>
            <stop offset="1" stop-color="#1E50E6"/>
        </linearGradient>
        <linearGradient id="paint2_linear_1922_13206" x1="49.4293" y1="23.2305" x2="49.4293" y2="27.0596"
                        gradientUnits="userSpaceOnUse">
            <stop stop-color="#FF5C53"/>
            <stop offset="1" stop-color="#F1251A"/>
        </linearGradient>
        <linearGradient id="paint3_linear_1922_13206" x1="49.4293" y1="23.2305" x2="49.4293" y2="27.0596"
                        gradientUnits="userSpaceOnUse">
            <stop stop-color="#FF837B"/>
            <stop offset="1" stop-color="#CE0C00"/>
        </linearGradient>
        <linearGradient id="paint4_linear_1922_13206" x1="49.3906" y1="28.2617" x2="49.3906" y2="31.8828"
                        gradientUnits="userSpaceOnUse">
            <stop stop-color="#FF5C53"/>
            <stop offset="1" stop-color="#F1251A"/>
        </linearGradient>
        <linearGradient id="paint5_linear_1922_13206" x1="49.3906" y1="28.2617" x2="49.3906" y2="31.8828"
                        gradientUnits="userSpaceOnUse">
            <stop stop-color="#FF837B"/>
            <stop offset="1" stop-color="#CE0C00"/>
        </linearGradient>
        <linearGradient id="paint6_linear_1922_13206" x1="49.4249" y1="32.7109" x2="49.4249" y2="50.7029"
                        gradientUnits="userSpaceOnUse">
            <stop stop-color="#FF5C53"/>
            <stop offset="1" stop-color="#F1251A"/>
        </linearGradient>
        <linearGradient id="paint7_linear_1922_13206" x1="49.4249" y1="32.7109" x2="49.4249" y2="50.7029"
                        gradientUnits="userSpaceOnUse">
            <stop stop-color="#FF837B"/>
            <stop offset="1" stop-color="#CE0C00"/>
        </linearGradient>
    </defs>
</svg>
