<svg width="width" height="height" viewBox="0 0 40 41" fill="none" xmlns="http://www.w3.org/2000/svg">
    <g id="Buy">
        <rect y="0.5" width="40" height="40" rx="20" fill="#0080FF"/>
        <g id="Subtract">
            <path d="M15.5275 14.1735C15.5275 11.5924 17.6199 9.5 20.201 9.5C22.7821 9.5 24.8745 11.5924 24.8745 14.1735C24.8745 14.5706 24.5526 14.8925 24.1555 14.8925C23.7584 14.8925 23.4365 14.5706 23.4365 14.1735C23.4365 12.3866 21.9879 10.938 20.201 10.938C18.4141 10.938 16.9655 12.3866 16.9655 14.1735C16.9655 14.5706 16.6436 14.8925 16.2465 14.8925C15.8494 14.8925 15.5275 14.5706 15.5275 14.1735Z"
                  fill="white"/>
            <path d="M19.8611 20.6666V22.6699L19.8011 22.6528C19.0905 22.4473 18.7738 22.1391 18.7738 21.6597C18.7738 21.1803 19.1847 20.7779 19.8611 20.6666Z"
                  fill="white"/>
            <path d="M20.6744 26.2914V24.1596L20.837 24.2024C21.6076 24.4079 21.8901 24.7332 21.8901 25.2298C21.8901 25.7862 21.4877 26.1972 20.6744 26.2914Z"
                  fill="white"/>
            <path fill-rule="evenodd" clip-rule="evenodd"
                  d="M14.4901 15.9711C13.0745 15.9711 11.8686 17.0002 11.6477 18.3985L10.1706 27.7455C9.8947 29.4918 11.2455 31.0702 13.0131 31.0702H27.3888C29.1565 31.0702 30.5072 29.4918 30.2313 27.7455L28.7543 18.3985C28.5334 17.0002 27.3274 15.9711 25.9118 15.9711H14.4901ZM19.8615 28.0458C19.8615 28.2856 20.0327 28.4568 20.2639 28.4568C20.4951 28.4568 20.6748 28.2856 20.6748 28.0458V27.4466C22.1217 27.3181 23.2004 26.4877 23.2004 25.135C23.2004 23.9193 22.4213 23.2087 20.8718 22.9176L20.6748 22.8748V20.6746C21.2399 20.7773 21.6251 21.1112 21.7964 21.6334C21.9248 21.9245 22.1303 22.1043 22.447 22.1043C22.8066 22.1043 23.0549 21.856 23.0549 21.5136C23.0549 21.4108 23.0292 21.3081 23.0035 21.2054C22.7638 20.2893 21.8734 19.6301 20.6748 19.5102V18.9109C20.6748 18.6712 20.4951 18.5 20.2639 18.5C20.0327 18.5 19.8615 18.6627 19.8615 18.9109V19.5102C18.4575 19.6387 17.4558 20.4948 17.4558 21.7447C17.4558 22.9005 18.2263 23.5854 19.7074 23.9279L19.8615 23.9621V26.2908C19.1509 26.188 18.7314 25.8028 18.5944 25.2805C18.466 24.9638 18.2606 24.8011 17.9524 24.8011C17.5842 24.8011 17.3359 25.0494 17.3359 25.409C17.3359 25.5117 17.3531 25.6144 17.3873 25.7257C17.6441 26.6675 18.5859 27.3353 19.8615 27.438V28.0458Z"
                  fill="white"/>
        </g>
    </g>
</svg>
