<svg width="width" height="height" viewBox="0 0 24 25" fill="none" xmlns="http://www.w3.org/2000/svg">
    <rect y="0.736328" width="24" height="24" rx="6" fill="#9225FF"/>
    <path d="M9.10004 18.6761C9.08004 18.6761 9.05337 18.6894 9.03337 18.6894C7.74004 18.0494 6.68671 16.9894 6.04004 15.6961C6.04004 15.6761 6.05337 15.6494 6.05337 15.6294C6.86671 15.8694 7.70671 16.0494 8.54004 16.1894C8.68671 17.0294 8.86004 17.8627 9.10004 18.6761Z"
          fill="white"/>
    <path d="M17.9599 15.7027C17.2999 17.0294 16.1999 18.1027 14.8599 18.7494C15.1132 17.9027 15.3265 17.0494 15.4665 16.1894C16.3065 16.0494 17.1332 15.8694 17.9465 15.6294C17.9399 15.6561 17.9599 15.6827 17.9599 15.7027Z"
          fill="white"/>
    <path d="M18.0132 9.87648C17.1732 9.62314 16.3265 9.41648 15.4665 9.26981C15.3265 8.40981 15.1199 7.55648 14.8599 6.72314C16.2399 7.38314 17.3532 8.49648 18.0132 9.87648Z"
          fill="white"/>
    <path d="M9.10015 6.79637C8.86015 7.6097 8.68682 8.43637 8.54682 9.27637C7.68682 9.4097 6.83348 9.62303 5.98682 9.87637C6.63348 8.53637 7.70682 7.43637 9.03348 6.77637C9.05348 6.77637 9.08015 6.79637 9.10015 6.79637Z"
          fill="white"/>
    <path d="M14.3267 9.12982C12.78 8.95649 11.22 8.95649 9.67334 9.12982C9.84001 8.21649 10.0533 7.30316 10.3533 6.42316C10.3667 6.36982 10.36 6.32982 10.3667 6.27649C10.8933 6.14982 11.4333 6.06982 12 6.06982C12.56 6.06982 13.1067 6.14982 13.6267 6.27649C13.6333 6.32982 13.6333 6.36982 13.6467 6.42316C13.9467 7.30982 14.16 8.21649 14.3267 9.12982Z"
          fill="white"/>
    <path d="M8.3935 15.063C7.4735 14.8963 6.56683 14.683 5.68683 14.383C5.6335 14.3697 5.5935 14.3763 5.54016 14.3697C5.4135 13.843 5.3335 13.303 5.3335 12.7363C5.3335 12.1763 5.4135 11.6297 5.54016 11.1097C5.5935 11.103 5.6335 11.103 5.68683 11.0897C6.5735 10.7963 7.4735 10.5763 8.3935 10.4097C8.22683 11.9563 8.22683 13.5163 8.3935 15.063Z"
          fill="white"/>
    <path d="M18.6664 12.7363C18.6664 13.303 18.5864 13.843 18.4598 14.3697C18.4064 14.3763 18.3664 14.3697 18.3131 14.383C17.4264 14.6763 16.5198 14.8963 15.6064 15.063C15.7798 13.5163 15.7798 11.9563 15.6064 10.4097C16.5198 10.5763 17.4331 10.7897 18.3131 11.0897C18.3664 11.103 18.4064 11.1097 18.4598 11.1097C18.5864 11.6363 18.6664 12.1763 18.6664 12.7363Z"
          fill="white"/>
    <path d="M14.3267 16.3433C14.16 17.2633 13.9467 18.1699 13.6467 19.0499C13.6333 19.1033 13.6333 19.1433 13.6267 19.1966C13.1067 19.3233 12.56 19.4033 12 19.4033C11.4333 19.4033 10.8933 19.3233 10.3667 19.1966C10.36 19.1433 10.3667 19.1033 10.3533 19.0499C10.06 18.1633 9.84001 17.2633 9.67334 16.3433C10.4467 16.4299 11.22 16.4899 12 16.4899C12.78 16.4899 13.56 16.4299 14.3267 16.3433Z"
          fill="white"/>
    <path d="M14.509 15.2454C12.8417 15.4558 11.1587 15.4558 9.49128 15.2454C9.2809 13.578 9.2809 11.895 9.49128 10.2276C11.1587 10.0172 12.8417 10.0172 14.509 10.2276C14.7194 11.895 14.7194 13.578 14.509 15.2454Z"
          fill="white"/>
</svg>
