<svg width="171" height="187" viewBox="0 0 171 187" fill="none" xmlns="http://www.w3.org/2000/svg">
<rect x="28.0709" y="52.0078" width="129.958" height="40.6292" rx="6" fill="#CFD2DB"/>
<rect x="25.2828" y="50.4423" width="131.271" height="40.3912" rx="5.0489" fill="white"/>
<circle cx="43.094" cy="70.6379" r="11.5" fill="#CFD2DB"/>
<path d="M42.0558 72.9521C42.0558 72.5858 42.0838 72.2424 42.1398 71.9218C42.2008 71.6013 42.3128 71.2961 42.4756 71.0061C42.6129 70.7314 42.7732 70.5101 42.9563 70.3422C43.1446 70.1692 43.3481 70.0013 43.5668 69.8385C43.7907 69.6707 44.0247 69.457 44.2689 69.1975C44.4724 68.9737 44.6072 68.7473 44.6733 68.5183C44.7446 68.2894 44.7802 68.0427 44.7802 67.7781C44.7802 67.5848 44.7573 67.4042 44.7115 67.2363C44.6657 67.0684 44.5894 66.9234 44.4826 66.8013C44.3198 66.5978 44.1137 66.4554 43.8644 66.374C43.6152 66.2875 43.3557 66.2443 43.0861 66.2443C42.8419 66.2443 42.6078 66.2773 42.384 66.3435C42.1652 66.4096 41.9821 66.5113 41.8345 66.6487C41.6768 66.781 41.5598 66.9463 41.4835 67.1447C41.4123 67.3381 41.3792 67.5492 41.3843 67.7781H39.7054C39.7461 67.2999 39.8682 66.8522 40.0717 66.435C40.2752 66.0179 40.55 65.6795 40.8959 65.4201C41.191 65.1861 41.5268 65.0131 41.9032 64.9012C42.2797 64.7842 42.6562 64.7256 43.0326 64.7256C43.5719 64.7256 44.0807 64.8096 44.5589 64.9775C45.0422 65.1454 45.4441 65.4175 45.7646 65.794C45.9986 66.0586 46.1741 66.3613 46.2912 66.7021C46.4133 67.0379 46.4743 67.3864 46.4743 67.7476C46.4743 68.2309 46.37 68.6786 46.1614 69.0907C45.9579 69.5028 45.6959 69.8792 45.3754 70.2201C45.2075 70.3982 45.0371 70.561 44.8641 70.7085C44.6911 70.8509 44.5309 70.9908 44.3834 71.1282C44.2358 71.2656 44.1137 71.4156 44.0171 71.5784C43.8797 71.8125 43.8008 72.0236 43.7805 72.2118C43.7601 72.395 43.75 72.6417 43.75 72.9521H42.0558ZM42.0635 75.9359V74.0891H43.75V75.9359H42.0635Z" fill="#EBEEF6"/>
<rect x="62.1674" y="65.9731" width="26.4838" height="9.32947" rx="4.66473" fill="#CFD2DB"/>
<rect x="28.0709" y="98.2654" width="129.958" height="40.6292" rx="6" fill="#CFD2DB"/>
<rect x="25.2828" y="96.6998" width="131.271" height="40.3912" rx="5.0489" fill="white"/>
<circle cx="43.094" cy="116.895" r="11.5" fill="#CFD2DB"/>
<rect x="62.1674" y="112.231" width="26.4838" height="9.32947" rx="4.66473" fill="#CFD2DB"/>
<rect x="82.4586" y="107.559" width="13.1112" height="35.7522" transform="rotate(-45 82.4586 107.559)" fill="#CFD2DB"/>
<path fill-rule="evenodd" clip-rule="evenodd" d="M96.6825 70.9954C96.6825 47.7719 77.8562 28.9456 54.6327 28.9456C31.4092 28.9456 12.5829 47.7719 12.5829 70.9954C12.5829 94.2188 31.4092 113.045 54.6327 113.045C77.8562 113.045 96.6825 94.2188 96.6825 70.9954ZM108.682 70.9954C108.682 41.1445 84.4836 16.9456 54.6327 16.9456C24.7818 16.9456 0.582882 41.1445 0.582883 70.9954C0.582885 100.846 24.7818 125.045 54.6327 125.045C84.4836 125.045 108.682 100.846 108.682 70.9954Z" fill="#DDE0E9"/>
<rect x="100.189" y="133.913" width="24.5529" height="74.4834" rx="8" transform="rotate(-45 100.189 133.913)" fill="#DDE0E9"/>
<path d="M120.393 126.505L161.247 167.36" stroke="#EBEEF6" stroke-width="2.65475" stroke-miterlimit="10" stroke-linecap="round"/>
<path d="M97.756 110.283L107.869 120.396" stroke="#EBEEF6" stroke-width="2.65475" stroke-miterlimit="10" stroke-linecap="round"/>
<path d="M89.8805 35.7477C70.4138 16.2809 38.8519 16.2809 19.3851 35.7477" stroke="#EBEEF6" stroke-width="2.65" stroke-linecap="round"/>
<path d="M147.893 28.1789V28.543C145.641 28.9017 140.808 29.7348 138.43 30.6452C137.58 30.9708 136.907 31.6384 136.576 32.4826C135.666 34.8496 134.821 39.7106 134.463 41.9729H133.734C133.376 39.7106 132.532 34.8496 131.621 32.4826C131.29 31.6384 130.611 30.9653 129.767 30.6452C127.389 29.7348 122.556 28.9017 120.305 28.543V27.8147C122.556 27.4561 127.389 26.6229 129.767 25.7125C130.617 25.387 131.29 24.7193 131.621 23.8751C132.532 21.5081 133.376 16.6471 133.734 14.3849H134.463C134.821 16.6471 135.666 21.5081 136.576 23.8751C136.907 24.7193 137.586 25.3925 138.43 25.7125C140.808 26.6229 145.641 27.4561 147.893 27.8147V28.1789Z" fill="#DDE0E9"/>
<path d="M51.1867 162.217V162.469C49.6334 162.716 46.2982 163.291 44.6573 163.919C44.071 164.144 43.6065 164.604 43.3781 165.187C42.7499 166.82 42.1674 170.174 41.9199 171.735H41.4173C41.1699 170.174 40.5874 166.82 39.9592 165.187C39.7307 164.604 39.2624 164.14 38.6799 163.919C37.039 163.291 33.7039 162.716 32.1505 162.469V161.966C33.7039 161.719 37.039 161.144 38.6799 160.515C39.2662 160.291 39.7307 159.83 39.9592 159.248C40.5874 157.614 41.1699 154.26 41.4173 152.699H41.9199C42.1674 154.26 42.7499 157.614 43.3781 159.248C43.6065 159.83 44.0748 160.295 44.6573 160.515C46.2982 161.144 49.6334 161.719 51.1867 161.966V162.217Z" fill="#CFD2DB"/>
</svg>
