<svg width="16" height="16" viewBox="0 0 16 16" fill="none" xmlns="http://www.w3.org/2000/svg">
<g clip-path="url(#clip0_2151_14158)">
<path d="M7.99225 16C12.3791 16 16 12.3791 16 8C16 3.62089 12.3714 0 7.98451 0C3.6054 0 -0.00775146 3.62089 -0.00775146 8C-0.00775146 12.3791 3.61314 16 7.99225 16ZM4.24757 8.00774C4.24757 7.55126 4.57252 7.23404 5.02126 7.23404H7.22629V5.02901C7.22629 4.58027 7.53577 4.26306 7.97677 4.26306C8.43325 4.26306 8.75047 4.58027 8.75047 5.02901V7.23404H10.9632C11.4042 7.23404 11.7292 7.55126 11.7292 8.00774C11.7292 8.44874 11.4042 8.76596 10.9632 8.76596H8.75047V10.971C8.75047 11.412 8.43325 11.7369 7.97677 11.7369C7.53577 11.7369 7.22629 11.412 7.22629 10.971V8.76596H5.02126C4.57252 8.76596 4.24757 8.44874 4.24757 8.00774Z" fill="currentColor"/>
</g>
<defs>
<clipPath id="clip0_2151_14158">
<rect width="16" height="16" fill="white"/>
</clipPath>
</defs>
</svg>
