<svg width="17" height="17" viewBox="0 0 17 17" fill="none" xmlns="http://www.w3.org/2000/svg">
<g clip-path="url(#clip0_2243_674)">
<path d="M7.01676 13.5826C8.33832 13.5826 9.57676 13.1836 10.6074 12.5021L14.2479 16.1509C14.489 16.3836 14.7965 16.5 15.129 16.5C15.8188 16.5 16.3259 15.9597 16.3259 15.2782C16.3259 14.9623 16.2178 14.6548 15.9851 14.4221L12.3695 10.7899C13.1175 9.72597 13.5581 8.43766 13.5581 7.0413C13.5581 3.44234 10.6157 0.5 7.01676 0.5C3.42611 0.5 0.475464 3.44234 0.475464 7.0413C0.475464 10.6403 3.4178 13.5826 7.01676 13.5826ZM7.01676 11.8371C4.38196 11.8371 2.22092 9.6761 2.22092 7.0413C2.22092 4.40649 4.38196 2.24545 7.01676 2.24545C9.65157 2.24545 11.8126 4.40649 11.8126 7.0413C11.8126 9.6761 9.65157 11.8371 7.01676 11.8371Z" fill="currentColor"/>
</g>
<defs>
<clipPath id="clip0_2243_674">
<rect width="16" height="16" fill="white" transform="translate(0.400635 0.5)"/>
</clipPath>
</defs>
</svg>
