<svg width="width" height="height" viewBox="0 0 40 40" fill="none" xmlns="http://www.w3.org/2000/svg">
    <g id="settings">
        <rect width="40" height="40" rx="20" fill="currentColor"/>
        <circle id="Ellipse 811" cx="20" cy="20" r="19.5" fill="white" stroke="#E0E4F5"/>
        <path id="Vector"
              d="M28.3589 17.5728C28.1651 16.8635 27.8839 16.1907 27.5269 15.5659C27.3343 15.2286 27.3736 14.8069 27.6247 14.5095L28.1645 13.8702C28.3444 13.6573 28.3311 13.3426 28.1338 13.1459L26.7158 11.7279C26.5191 11.5312 26.2044 11.5179 25.9915 11.6973L25.3523 12.237C25.0555 12.4875 24.6331 12.5275 24.2959 12.3348C23.6716 11.9779 22.9982 11.6961 22.2889 11.5029C21.9123 11.3999 21.6387 11.0748 21.6063 10.6854L21.5363 9.85235C21.5131 9.57523 21.2812 9.36176 21.0029 9.36176H18.9971C18.7189 9.36176 18.4869 9.57523 18.4637 9.85235L18.3937 10.6854C18.3607 11.0748 18.0877 11.3999 17.7111 11.5029C17.0018 11.6967 16.3289 11.9779 15.7041 12.3348C15.3669 12.5275 14.9451 12.4881 14.6477 12.237L14.0085 11.6973C13.7956 11.5174 13.4809 11.5307 13.2842 11.7279L11.8662 13.1459C11.6695 13.3426 11.6562 13.6573 11.8355 13.8702L12.3753 14.5095C12.6258 14.8063 12.6657 15.2286 12.4731 15.5659C12.1161 16.1901 11.8344 16.8635 11.6411 17.5728C11.5382 17.9494 11.213 18.2231 10.8237 18.2555L9.99059 18.3255C9.71348 18.3486 9.5 18.5806 9.5 18.8589V20.8646C9.5 21.1429 9.71348 21.3749 9.99059 21.398L10.8237 21.468C11.213 21.501 11.5382 21.7741 11.6411 22.1507C11.8349 22.86 12.1161 23.5328 12.4731 24.1576C12.6657 24.4949 12.6264 24.9166 12.3753 25.214L11.8355 25.8533C11.6556 26.0662 11.6689 26.3809 11.8662 26.5776L13.2842 27.9956C13.4809 28.1923 13.7956 28.2056 14.0085 28.0262L14.6477 27.4865C14.9445 27.236 15.3669 27.196 15.7041 27.3887C16.3284 27.7457 17.0018 28.0274 17.7111 28.2206C18.0877 28.3236 18.3613 28.6487 18.3937 29.0381L18.4637 29.8712C18.4869 30.1483 18.7189 30.3618 18.9971 30.3618H21.0029C21.2812 30.3618 21.5131 30.1483 21.5363 29.8712L21.6063 29.0381C21.6393 28.6487 21.9123 28.3236 22.2889 28.2206C22.9982 28.0268 23.6711 27.7457 24.2959 27.3887C24.6331 27.196 25.0549 27.2354 25.3523 27.4865L25.9915 28.0262C26.2044 28.2062 26.5191 28.1929 26.7158 27.9956L28.1338 26.5776C28.3305 26.3809 28.3438 26.0662 28.1645 25.8533L27.6247 25.214C27.3742 24.9172 27.3343 24.4949 27.5269 24.1576C27.8839 23.5334 28.1656 22.86 28.3589 22.1507C28.4618 21.7741 28.787 21.5004 29.1763 21.468L30.0094 21.398C30.2865 21.3749 30.5 21.1429 30.5 20.8646V18.8589C30.5 18.5806 30.2865 18.3486 30.0094 18.3255L29.1763 18.2555C28.787 18.2225 28.4618 17.9494 28.3589 17.5728ZM19.9997 25.2481C17.0255 25.2481 14.6142 22.8368 14.6142 19.8626C14.6142 16.8884 17.0255 14.4771 19.9997 14.4771C22.9739 14.4771 25.3852 16.8884 25.3852 19.8626C25.3852 22.8368 22.9739 25.2481 19.9997 25.2481Z"
              fill="currentColor"/>
    </g>
</svg>
