<svg width="129" height="128" viewBox="0 0 129 128" fill="none" xmlns="http://www.w3.org/2000/svg"><g filter="url(#filter0_dd_2290_26160)"><g clip-path="url(#clip0_2290_26160)"><g filter="url(#filter1_d_2290_26160)"><rect x="10.4004" y="10.0098" width="107.981" height="107.981" fill="#DDE4F8"/></g><g filter="url(#filter2_d_2290_26160)"><circle cx="64.3913" cy="71.9128" r="32.9489" fill="url(#paint0_linear_2290_26160)" stroke="url(#paint1_linear_2290_26160)" stroke-width="0.982163"/><g filter="url(#filter3_d_2290_26160)"><path d="M64.3798 96.3274C77.7679 96.3274 88.8183 85.277 88.8183 71.9125C88.8183 58.548 77.7443 47.4976 64.3562 47.4976C50.9917 47.4976 39.9648 58.548 39.9648 71.9125C39.9648 85.277 51.0153 96.3274 64.3798 96.3274ZM50.1653 57.1077C52.5029 54.8645 55.3836 53.1409 58.5712 52.1728C56.8947 53.8492 55.478 56.234 54.4155 59.1147C52.7626 58.5953 51.3223 57.9105 50.1653 57.1077ZM70.212 52.1964C73.3996 53.1645 76.2567 54.8645 78.5943 57.1313C77.4373 57.9341 76.0206 58.5953 74.3677 59.1383C73.3052 56.234 71.8884 53.8728 70.212 52.1964ZM57.6976 59.9412C58.9962 56.4702 60.7671 53.9201 62.7269 52.9992V60.4606C60.9324 60.3898 59.256 60.2245 57.6976 59.9412ZM66.0326 52.9992C67.9924 53.9201 69.787 56.4702 71.062 59.9412C69.5272 60.2245 67.8272 60.3898 66.0326 60.4606V52.9992ZM43.8608 70.2597C44.1914 66.2692 45.679 62.5857 47.993 59.5634C49.4097 60.6259 51.2751 61.5468 53.4474 62.2315C52.8335 64.6636 52.4557 67.379 52.3376 70.2597H43.8608ZM76.422 70.2597C76.3275 67.379 75.9261 64.6636 75.3122 62.2315C77.4845 61.5468 79.3499 60.6259 80.7666 59.5634C83.0806 62.5857 84.5682 66.2692 84.8987 70.2597H76.422ZM66.0326 70.2597V63.7663C68.1341 63.6955 70.1648 63.4594 72.0301 63.0816C72.5732 65.2775 72.951 67.7095 73.0454 70.2597H66.0326ZM55.7141 70.2597C55.8322 67.7095 56.1864 65.2775 56.7295 63.0816C58.6184 63.4594 60.6255 63.6955 62.7269 63.7663V70.2597H55.7141ZM43.8608 73.5653H52.3376C52.432 76.4933 52.8335 79.2323 53.471 81.7115C51.3223 82.3963 49.4569 83.2935 48.0402 84.3325C45.7026 81.2865 44.1914 77.5794 43.8608 73.5653ZM55.7141 73.5653H62.7269V80.1767C60.6491 80.2476 58.6184 80.4837 56.7531 80.8615C56.1864 78.6183 55.8322 76.1391 55.7141 73.5653ZM66.0326 80.1767V73.5653H73.0691C72.951 76.1391 72.5732 78.6183 72.0065 80.8615C70.1411 80.4837 68.1341 80.2476 66.0326 80.1767ZM75.3122 81.7115C75.9261 79.2323 76.3275 76.4933 76.4456 73.5653H84.8987C84.5682 77.5794 83.057 81.2865 80.7194 84.3325C79.3027 83.2935 77.4609 82.3963 75.3122 81.7115ZM66.0326 83.4824C67.8272 83.5533 69.48 83.7186 71.0384 84.0019C69.7634 87.4021 67.9924 89.9286 66.0326 90.8494V83.4824ZM57.7448 84.0019C59.2796 83.7186 60.956 83.5533 62.7269 83.4824V90.8494C60.7907 89.9286 59.0198 87.4021 57.7448 84.0019ZM50.2361 86.7645C51.3931 85.9853 52.8098 85.3242 54.4391 84.8047C55.478 87.6382 56.8947 89.9758 58.524 91.6286C55.3836 90.6841 52.5501 88.9841 50.2361 86.7645ZM74.3441 84.8047C75.9733 85.3242 77.3901 85.9853 78.5471 86.7645C76.2095 88.9841 73.376 90.6841 70.2356 91.6286C71.8884 89.9758 73.2816 87.6382 74.3441 84.8047Z" fill="#F3F3F3"/></g></g><g filter="url(#filter4_d_2290_26160)"><circle cx="84.1348" cy="91.0596" r="16.5108" fill="url(#paint2_linear_2290_26160)" stroke="url(#paint3_linear_2290_26160)"/></g><g filter="url(#filter5_d_2290_26160)"><rect x="-1.05469" y="8.22266" width="130.891" height="26.2324" fill="#ECF0FB"/></g><g filter="url(#filter6_d_2290_26160)"><rect x="65.2607" y="16.6357" width="10.9499" height="10.9499" rx="5.47493" fill="url(#paint4_linear_2290_26160)"/><rect x="65.2607" y="16.6357" width="10.9499" height="10.9499" rx="5.47493" stroke="url(#paint5_linear_2290_26160)"/></g><g filter="url(#filter7_d_2290_26160)"><rect x="20.6699" y="16.6357" width="39.5906" height="10.9499" rx="5.47493" fill="url(#paint6_linear_2290_26160)"/><rect x="20.6699" y="16.6357" width="39.5906" height="10.9499" rx="5.47493" stroke="url(#paint7_linear_2290_26160)"/></g><g filter="url(#filter8_d_2290_26160)"><rect x="81.2109" y="16.6362" width="10.9499" height="10.9499" rx="5.47493" fill="url(#paint8_linear_2290_26160)"/><rect x="81.2109" y="16.6362" width="10.9499" height="10.9499" rx="5.47493" stroke="url(#paint9_linear_2290_26160)"/></g><g filter="url(#filter9_d_2290_26160)"><rect x="97.1611" y="16.6362" width="10.9499" height="10.9499" rx="5.47493" fill="url(#paint10_linear_2290_26160)"/><rect x="97.1611" y="16.6362" width="10.9499" height="10.9499" rx="5.47493" stroke="url(#paint11_linear_2290_26160)"/></g><g filter="url(#filter10_d_2290_26160)"><mask id="path-11-inside-1_2290_26160" fill="white"><path fill-rule="evenodd" clip-rule="evenodd" d="M92.9594 82.2861C92.0483 81.3749 90.5709 81.3749 89.6597 82.2861L84.1349 87.8109L78.61 82.2859C77.6988 81.3747 76.2215 81.3747 75.3103 82.2859C74.3991 83.1971 74.3991 84.6745 75.3103 85.5856L80.8352 91.1106L75.3101 96.6357C74.3989 97.5469 74.3989 99.0243 75.3101 99.9355C76.2213 100.847 77.6986 100.847 78.6098 99.9355L84.1349 94.4103L89.6599 99.9353C90.5711 100.846 92.0484 100.846 92.9596 99.9353C93.8708 99.0241 93.8708 97.5468 92.9596 96.6356L87.4347 91.1106L92.9594 85.5858C93.8706 84.6746 93.8706 83.1973 92.9594 82.2861Z"/></mask><path fill-rule="evenodd" clip-rule="evenodd" d="M92.9594 82.2861C92.0483 81.3749 90.5709 81.3749 89.6597 82.2861L84.1349 87.8109L78.61 82.2859C77.6988 81.3747 76.2215 81.3747 75.3103 82.2859C74.3991 83.1971 74.3991 84.6745 75.3103 85.5856L80.8352 91.1106L75.3101 96.6357C74.3989 97.5469 74.3989 99.0243 75.3101 99.9355C76.2213 100.847 77.6986 100.847 78.6098 99.9355L84.1349 94.4103L89.6599 99.9353C90.5711 100.846 92.0484 100.846 92.9596 99.9353C93.8708 99.0241 93.8708 97.5468 92.9596 96.6356L87.4347 91.1106L92.9594 85.5858C93.8706 84.6746 93.8706 83.1973 92.9594 82.2861Z" fill="url(#paint12_linear_2290_26160)"/><path d="M89.6597 82.2861L89.2328 81.8591L89.6597 82.2861ZM84.1349 87.8109L83.708 88.2379L84.1349 88.6648L84.5619 88.2379L84.1349 87.8109ZM75.3103 85.5856L74.8833 86.0126L75.3103 85.5856ZM80.8352 91.1106L81.2622 91.5376L81.6892 91.1106L81.2622 90.6836L80.8352 91.1106ZM84.1349 94.4103L84.5619 93.9834L84.1349 93.5564L83.708 93.9834L84.1349 94.4103ZM87.4347 91.1106L87.0077 90.6836L86.5807 91.1106L87.0077 91.5376L87.4347 91.1106ZM90.0867 82.7131C90.7621 82.0377 91.8571 82.0377 92.5325 82.7131L93.3864 81.8591C92.2394 80.7121 90.3798 80.7121 89.2328 81.8591L90.0867 82.7131ZM84.5619 88.2379L90.0867 82.7131L89.2328 81.8591L83.708 87.3839L84.5619 88.2379ZM78.183 82.7129L83.708 88.2379L84.5619 87.3839L79.037 81.859L78.183 82.7129ZM75.7372 82.7129C76.4126 82.0375 77.5076 82.0375 78.183 82.7129L79.037 81.859C77.8899 80.712 76.0303 80.712 74.8833 81.859L75.7372 82.7129ZM75.7372 85.1587C75.0619 84.4833 75.0619 83.3883 75.7372 82.7129L74.8833 81.859C73.7363 83.006 73.7363 84.8656 74.8833 86.0126L75.7372 85.1587ZM81.2622 90.6836L75.7372 85.1587L74.8833 86.0126L80.4082 91.5376L81.2622 90.6836ZM75.7371 97.0627L81.2622 91.5376L80.4082 90.6836L74.8831 96.2088L75.7371 97.0627ZM75.7371 99.5085C75.0617 98.8331 75.0617 97.7381 75.7371 97.0627L74.8831 96.2088C73.7361 97.3558 73.7361 99.2154 74.8831 100.362L75.7371 99.5085ZM78.1828 99.5085C77.5074 100.184 76.4124 100.184 75.7371 99.5085L74.8831 100.362C76.0301 101.509 77.8898 101.509 79.0368 100.362L78.1828 99.5085ZM83.708 93.9834L78.1828 99.5085L79.0368 100.362L84.5619 94.8373L83.708 93.9834ZM90.0869 99.5083L84.5619 93.9834L83.708 94.8373L89.2329 100.362L90.0869 99.5083ZM92.5326 99.5083C91.8573 100.184 90.7623 100.184 90.0869 99.5083L89.2329 100.362C90.3799 101.509 92.2396 101.509 93.3866 100.362L92.5326 99.5083ZM92.5326 97.0625C93.208 97.7379 93.208 98.8329 92.5326 99.5083L93.3866 100.362C94.5336 99.2153 94.5336 97.3556 93.3866 96.2086L92.5326 97.0625ZM87.0077 91.5376L92.5326 97.0625L93.3866 96.2086L87.8616 90.6836L87.0077 91.5376ZM92.5325 85.1588L87.0077 90.6836L87.8616 91.5376L93.3864 86.0128L92.5325 85.1588ZM92.5325 82.7131C93.2078 83.3885 93.2078 84.4835 92.5325 85.1588L93.3864 86.0128C94.5334 84.8658 94.5334 83.0061 93.3864 81.8591L92.5325 82.7131Z" fill="url(#paint13_linear_2290_26160)" mask="url(#path-11-inside-1_2290_26160)"/></g></g></g><defs><filter id="filter0_dd_2290_26160" x="6.40039" y="9.00977" width="115.98" height="115.981" filterUnits="userSpaceOnUse" color-interpolation-filters="sRGB"><feFlood flood-opacity="0" result="BackgroundImageFix"/><feColorMatrix in="SourceAlpha" type="matrix" values="0 0 0 0 0 0 0 0 0 0 0 0 0 0 0 0 0 0 127 0" result="hardAlpha"/><feOffset dy="3"/><feGaussianBlur stdDeviation="2"/><feComposite in2="hardAlpha" operator="out"/><feColorMatrix type="matrix" values="0 0 0 0 0.878431 0 0 0 0 0.894118 0 0 0 0 0.960784 0 0 0 1 0"/><feBlend mode="normal" in2="BackgroundImageFix" result="effect1_dropShadow_2290_26160"/><feColorMatrix in="SourceAlpha" type="matrix" values="0 0 0 0 0 0 0 0 0 0 0 0 0 0 0 0 0 0 127 0" result="hardAlpha"/><feOffset dy="1"/><feGaussianBlur stdDeviation="0.5"/><feComposite in2="hardAlpha" operator="out"/><feColorMatrix type="matrix" values="0 0 0 0 0.784314 0 0 0 0 0.796078 0 0 0 0 0.85098 0 0 0 1 0"/><feBlend mode="normal" in2="effect1_dropShadow_2290_26160" result="effect2_dropShadow_2290_26160"/><feBlend mode="normal" in="SourceGraphic" in2="effect2_dropShadow_2290_26160" result="shape"/></filter><filter id="filter1_d_2290_26160" x="7.14656" y="10.0098" width="114.488" height="114.489" filterUnits="userSpaceOnUse" color-interpolation-filters="sRGB"><feFlood flood-opacity="0" result="BackgroundImageFix"/><feColorMatrix in="SourceAlpha" type="matrix" values="0 0 0 0 0 0 0 0 0 0 0 0 0 0 0 0 0 0 127 0" result="hardAlpha"/><feOffset dy="3.25383"/><feGaussianBlur stdDeviation="1.62691"/><feComposite in2="hardAlpha" operator="out"/><feColorMatrix type="matrix" values="0 0 0 0 0.583563 0 0 0 0 0.610151 0 0 0 0 0.674723 0 0 0 0.25 0"/><feBlend mode="normal" in2="BackgroundImageFix" result="effect1_dropShadow_2290_26160"/><feBlend mode="normal" in="SourceGraphic" in2="effect1_dropShadow_2290_26160" result="shape"/></filter><filter id="filter2_d_2290_26160" x="27.6973" y="38.4727" width="73.3875" height="73.3875" filterUnits="userSpaceOnUse" color-interpolation-filters="sRGB"><feFlood flood-opacity="0" result="BackgroundImageFix"/><feColorMatrix in="SourceAlpha" type="matrix" values="0 0 0 0 0 0 0 0 0 0 0 0 0 0 0 0 0 0 127 0" result="hardAlpha"/><feOffset dy="3.25383"/><feGaussianBlur stdDeviation="1.62691"/><feComposite in2="hardAlpha" operator="out"/><feColorMatrix type="matrix" values="0 0 0 0 0.565959 0 0 0 0 0.622767 0 0 0 0 0.785075 0 0 0 1 0"/><feBlend mode="normal" in2="BackgroundImageFix" result="effect1_dropShadow_2290_26160"/><feBlend mode="normal" in="SourceGraphic" in2="effect1_dropShadow_2290_26160" result="shape"/></filter><filter id="filter3_d_2290_26160" x="35.2148" y="47.4976" width="58.3536" height="58.3302" filterUnits="userSpaceOnUse" color-interpolation-filters="sRGB"><feFlood flood-opacity="0" result="BackgroundImageFix"/><feColorMatrix in="SourceAlpha" type="matrix" values="0 0 0 0 0 0 0 0 0 0 0 0 0 0 0 0 0 0 127 0" result="hardAlpha"/><feOffset dy="4.75006"/><feGaussianBlur stdDeviation="2.37503"/><feComposite in2="hardAlpha" operator="out"/><feColorMatrix type="matrix" values="0 0 0 0 0 0 0 0 0 0 0 0 0 0 0 0 0 0 0.25 0"/><feBlend mode="normal" in2="BackgroundImageFix" result="effect1_dropShadow_2290_26160"/><feBlend mode="normal" in="SourceGraphic" in2="effect1_dropShadow_2290_26160" result="shape"/></filter><filter id="filter4_d_2290_26160" x="63.8702" y="74.0488" width="40.5291" height="40.5291" filterUnits="userSpaceOnUse" color-interpolation-filters="sRGB"><feFlood flood-opacity="0" result="BackgroundImageFix"/><feColorMatrix in="SourceAlpha" type="matrix" values="0 0 0 0 0 0 0 0 0 0 0 0 0 0 0 0 0 0 127 0" result="hardAlpha"/><feOffset dy="3.25383"/><feGaussianBlur stdDeviation="1.62691"/><feComposite in2="hardAlpha" operator="out"/><feColorMatrix type="matrix" values="0 0 0 0 0.316941 0 0 0 0 0.393364 0 0 0 0 0.611719 0 0 0 0.28 0"/><feBlend mode="normal" in2="BackgroundImageFix" result="effect1_dropShadow_2290_26160"/><feBlend mode="normal" in="SourceGraphic" in2="effect1_dropShadow_2290_26160" result="shape"/></filter><filter id="filter5_d_2290_26160" x="-4.30851" y="6.96883" width="137.398" height="32.7401" filterUnits="userSpaceOnUse" color-interpolation-filters="sRGB"><feFlood flood-opacity="0" result="BackgroundImageFix"/><feColorMatrix in="SourceAlpha" type="matrix" values="0 0 0 0 0 0 0 0 0 0 0 0 0 0 0 0 0 0 127 0" result="hardAlpha"/><feOffset dy="2"/><feGaussianBlur stdDeviation="1.62691"/><feComposite in2="hardAlpha" operator="out"/><feColorMatrix type="matrix" values="0 0 0 0 0.838027 0 0 0 0 0.870815 0 0 0 0 0.952783 0 0 0 1 0"/><feBlend mode="normal" in2="BackgroundImageFix" result="effect1_dropShadow_2290_26160"/><feBlend mode="normal" in="SourceGraphic" in2="effect1_dropShadow_2290_26160" result="shape"/></filter><filter id="filter6_d_2290_26160" x="62.5607" y="15.9357" width="16.3502" height="16.3497" filterUnits="userSpaceOnUse" color-interpolation-filters="sRGB"><feFlood flood-opacity="0" result="BackgroundImageFix"/><feColorMatrix in="SourceAlpha" type="matrix" values="0 0 0 0 0 0 0 0 0 0 0 0 0 0 0 0 0 0 127 0" result="hardAlpha"/><feOffset dy="2"/><feGaussianBlur stdDeviation="1.1"/><feComposite in2="hardAlpha" operator="out"/><feColorMatrix type="matrix" values="0 0 0 0 0.757824 0 0 0 0 0.802391 0 0 0 0 0.908236 0 0 0 1 0"/><feBlend mode="normal" in2="BackgroundImageFix" result="effect1_dropShadow_2290_26160"/><feBlend mode="normal" in="SourceGraphic" in2="effect1_dropShadow_2290_26160" result="shape"/></filter><filter id="filter7_d_2290_26160" x="17.9699" y="15.9357" width="44.9908" height="16.3497" filterUnits="userSpaceOnUse" color-interpolation-filters="sRGB"><feFlood flood-opacity="0" result="BackgroundImageFix"/><feColorMatrix in="SourceAlpha" type="matrix" values="0 0 0 0 0 0 0 0 0 0 0 0 0 0 0 0 0 0 127 0" result="hardAlpha"/><feOffset dy="2"/><feGaussianBlur stdDeviation="1.1"/><feComposite in2="hardAlpha" operator="out"/><feColorMatrix type="matrix" values="0 0 0 0 0.757824 0 0 0 0 0.802391 0 0 0 0 0.908236 0 0 0 1 0"/><feBlend mode="normal" in2="BackgroundImageFix" result="effect1_dropShadow_2290_26160"/><feBlend mode="normal" in="SourceGraphic" in2="effect1_dropShadow_2290_26160" result="shape"/></filter><filter id="filter8_d_2290_26160" x="78.5109" y="15.9362" width="16.3502" height="16.3497" filterUnits="userSpaceOnUse" color-interpolation-filters="sRGB"><feFlood flood-opacity="0" result="BackgroundImageFix"/><feColorMatrix in="SourceAlpha" type="matrix" values="0 0 0 0 0 0 0 0 0 0 0 0 0 0 0 0 0 0 127 0" result="hardAlpha"/><feOffset dy="2"/><feGaussianBlur stdDeviation="1.1"/><feComposite in2="hardAlpha" operator="out"/><feColorMatrix type="matrix" values="0 0 0 0 0.757824 0 0 0 0 0.802391 0 0 0 0 0.908236 0 0 0 1 0"/><feBlend mode="normal" in2="BackgroundImageFix" result="effect1_dropShadow_2290_26160"/><feBlend mode="normal" in="SourceGraphic" in2="effect1_dropShadow_2290_26160" result="shape"/></filter><filter id="filter9_d_2290_26160" x="94.4611" y="15.9362" width="16.3502" height="16.3497" filterUnits="userSpaceOnUse" color-interpolation-filters="sRGB"><feFlood flood-opacity="0" result="BackgroundImageFix"/><feColorMatrix in="SourceAlpha" type="matrix" values="0 0 0 0 0 0 0 0 0 0 0 0 0 0 0 0 0 0 127 0" result="hardAlpha"/><feOffset dy="2"/><feGaussianBlur stdDeviation="1.1"/><feComposite in2="hardAlpha" operator="out"/><feColorMatrix type="matrix" values="0 0 0 0 0.757824 0 0 0 0 0.802391 0 0 0 0 0.908236 0 0 0 1 0"/><feBlend mode="normal" in2="BackgroundImageFix" result="effect1_dropShadow_2290_26160"/><feBlend mode="normal" in="SourceGraphic" in2="effect1_dropShadow_2290_26160" result="shape"/></filter><filter id="filter10_d_2290_26160" x="73.1174" y="81.6025" width="22.0348" height="22.0353" filterUnits="userSpaceOnUse" color-interpolation-filters="sRGB"><feFlood flood-opacity="0" result="BackgroundImageFix"/><feColorMatrix in="SourceAlpha" type="matrix" values="0 0 0 0 0 0 0 0 0 0 0 0 0 0 0 0 0 0 127 0" result="hardAlpha"/><feOffset dy="1.50958"/><feGaussianBlur stdDeviation="0.754792"/><feComposite in2="hardAlpha" operator="out"/><feColorMatrix type="matrix" values="0 0 0 0 0.872526 0 0 0 0 0.720455 0 0 0 0 0.712279 0 0 0 1 0"/><feBlend mode="normal" in2="BackgroundImageFix" result="effect1_dropShadow_2290_26160"/><feBlend mode="normal" in="SourceGraphic" in2="effect1_dropShadow_2290_26160" result="shape"/></filter><linearGradient id="paint0_linear_2290_26160" x1="64.3913" y1="38.9639" x2="64.3913" y2="104.862" gradientUnits="userSpaceOnUse"><stop stop-color="#0080FF"/><stop offset="1" stop-color="#375CE8"/></linearGradient><linearGradient id="paint1_linear_2290_26160" x1="64.3913" y1="38.9639" x2="64.3913" y2="104.862" gradientUnits="userSpaceOnUse"><stop stop-color="#3A9DFF"/><stop offset="1" stop-color="#1E50E6"/></linearGradient><linearGradient id="paint2_linear_2290_26160" x1="84.1348" y1="74.5488" x2="84.1348" y2="107.57" gradientUnits="userSpaceOnUse"><stop stop-color="white"/><stop offset="1" stop-color="#DCE2F5"/></linearGradient><linearGradient id="paint3_linear_2290_26160" x1="84.1348" y1="74.5488" x2="84.1348" y2="107.57" gradientUnits="userSpaceOnUse"><stop stop-color="white"/><stop offset="1" stop-color="#CFD8F0"/></linearGradient><linearGradient id="paint4_linear_2290_26160" x1="70.7357" y1="16.6357" x2="70.7357" y2="27.5856" gradientUnits="userSpaceOnUse"><stop stop-color="white"/><stop offset="1" stop-color="#DCE2F5"/></linearGradient><linearGradient id="paint5_linear_2290_26160" x1="70.7357" y1="16.6357" x2="70.7357" y2="27.5856" gradientUnits="userSpaceOnUse"><stop stop-color="white"/><stop offset="1" stop-color="#CFD8F0"/></linearGradient><linearGradient id="paint6_linear_2290_26160" x1="40.4652" y1="16.6357" x2="40.4652" y2="27.5856" gradientUnits="userSpaceOnUse"><stop stop-color="white"/><stop offset="1" stop-color="#DCE2F5"/></linearGradient><linearGradient id="paint7_linear_2290_26160" x1="40.4652" y1="16.6357" x2="40.4652" y2="27.5856" gradientUnits="userSpaceOnUse"><stop stop-color="white"/><stop offset="1" stop-color="#CFD8F0"/></linearGradient><linearGradient id="paint8_linear_2290_26160" x1="86.6859" y1="16.6362" x2="86.6859" y2="27.5861" gradientUnits="userSpaceOnUse"><stop stop-color="white"/><stop offset="1" stop-color="#DCE2F5"/></linearGradient><linearGradient id="paint9_linear_2290_26160" x1="86.6859" y1="16.6362" x2="86.6859" y2="27.5861" gradientUnits="userSpaceOnUse"><stop stop-color="white"/><stop offset="1" stop-color="#CFD8F0"/></linearGradient><linearGradient id="paint10_linear_2290_26160" x1="102.636" y1="16.6362" x2="102.636" y2="27.5861" gradientUnits="userSpaceOnUse"><stop stop-color="white"/><stop offset="1" stop-color="#DCE2F5"/></linearGradient><linearGradient id="paint11_linear_2290_26160" x1="102.636" y1="16.6362" x2="102.636" y2="27.5861" gradientUnits="userSpaceOnUse"><stop stop-color="white"/><stop offset="1" stop-color="#CFD8F0"/></linearGradient><linearGradient id="paint12_linear_2290_26160" x1="92.9596" y1="99.9353" x2="75.3103" y2="82.2859" gradientUnits="userSpaceOnUse"><stop stop-color="#FF5C53"/><stop offset="1" stop-color="#F1251A"/></linearGradient><linearGradient id="paint13_linear_2290_26160" x1="92.9596" y1="99.9353" x2="75.3103" y2="82.2859" gradientUnits="userSpaceOnUse"><stop stop-color="#FF837B"/><stop offset="1" stop-color="#CE0C00"/></linearGradient><clipPath id="clip0_2290_26160"><rect x="10.4004" y="10.0098" width="107.981" height="107.981" rx="17.52" fill="white"/></clipPath></defs></svg>
