<svg width="25" height="25" viewBox="0 0 25 25" fill="none" xmlns="http://www.w3.org/2000/svg">
<g id="Icon">
<path id="Shape" fill-rule="evenodd" clip-rule="evenodd" d="M12.4993 3C7.25256 3 2.99927 7.25329 2.99927 12.5C2.99927 17.7467 7.25256 22 12.4993 22C17.746 22 21.9993 17.7467 21.9993 12.5C21.9993 7.25329 17.746 3 12.4993 3ZM13.0306 7.68396C12.7377 7.39106 12.2628 7.39106 11.9699 7.68396L8.54134 11.1125C8.24845 11.4054 8.24845 11.8803 8.54134 12.1732C8.83424 12.4661 9.30911 12.4661 9.602 12.1732L11.7502 10.0249V16.7857C11.7502 17.1999 12.086 17.5357 12.5002 17.5357C12.9145 17.5357 13.2502 17.1999 13.2502 16.7857V10.0249L15.3985 12.1732C15.6914 12.4661 16.1663 12.4661 16.4591 12.1732C16.752 11.8803 16.752 11.4054 16.4591 11.1125L13.0306 7.68396Z" fill="currentColor"/>
</g>
</svg>
